<svg xmlns="http://www.w3.org/2000/svg" xmlns:xlink="http://www.w3.org/1999/xlink" width="500" zoomAndPan="magnify" viewBox="0 0 375 374.999991" height="500" preserveAspectRatio="xMidYMid meet" version="1.0"><defs><clipPath id="1894f91309"><path d="M 3.101562 2.507812 L 375 2.507812 L 375 373.757812 L 3.101562 373.757812 Z M 3.101562 2.507812 " clip-rule="nonzero"/></clipPath></defs><g clip-path="url(#1894f91309)"><path fill="#ffffff" d="M 189.050781 26.683594 C 99.972656 26.683594 27.511719 99.144531 27.511719 188.222656 C 27.511719 277.296875 99.972656 349.769531 189.050781 349.769531 C 278.125 349.769531 350.585938 277.296875 350.585938 188.222656 C 350.585938 99.144531 278.125 26.683594 189.050781 26.683594 Z M 189.050781 373.964844 C 163.980469 373.964844 139.65625 369.058594 116.746094 359.367188 C 94.621094 350.007812 74.761719 336.617188 57.707031 319.566406 C 40.65625 302.507812 27.265625 282.648438 17.902344 260.527344 C 8.222656 237.617188 3.304688 213.289062 3.304688 188.222656 C 3.304688 163.152344 8.222656 138.828125 17.902344 115.917969 C 27.265625 93.796875 40.65625 73.933594 57.707031 56.878906 C 74.761719 39.828125 94.621094 26.4375 116.746094 17.085938 C 139.65625 7.394531 163.980469 2.476562 189.050781 2.476562 C 214.117188 2.476562 238.445312 7.394531 261.355469 17.085938 C 283.476562 26.4375 303.335938 39.828125 320.394531 56.878906 C 337.441406 73.933594 350.835938 93.796875 360.195312 115.917969 C 369.878906 138.828125 374.792969 163.152344 374.792969 188.222656 C 374.792969 213.289062 369.878906 237.617188 360.195312 260.527344 C 350.835938 282.640625 337.441406 302.507812 320.394531 319.566406 C 303.335938 336.617188 283.476562 350.007812 261.355469 359.367188 C 238.445312 369.058594 214.117188 373.964844 189.050781 373.964844 " fill-opacity="1" fill-rule="nonzero"/></g><path fill="#ffffff" d="M 193.742188 72.382812 L 184.359375 72.382812 C 183.601562 72.382812 182.980469 71.761719 182.980469 71.003906 L 182.980469 42.175781 C 182.980469 41.417969 183.601562 40.796875 184.359375 40.796875 L 193.742188 40.796875 C 194.5 40.796875 195.121094 41.417969 195.121094 42.175781 L 195.121094 71.003906 C 195.121094 71.761719 194.5 72.382812 193.742188 72.382812 " fill-opacity="1" fill-rule="nonzero"/><path fill="#ffffff" d="M 193.742188 335.648438 L 184.359375 335.648438 C 183.601562 335.648438 182.980469 335.027344 182.980469 334.269531 L 182.980469 305.441406 C 182.980469 304.683594 183.601562 304.058594 184.359375 304.058594 L 193.742188 304.058594 C 194.5 304.058594 195.121094 304.683594 195.121094 305.441406 L 195.121094 334.269531 C 195.121094 335.027344 194.5 335.648438 193.742188 335.648438 " fill-opacity="1" fill-rule="nonzero"/><path fill="#ffffff" d="M 274.273438 109.628906 L 267.640625 102.996094 C 267.109375 102.457031 267.109375 101.582031 267.640625 101.050781 L 288.027344 80.664062 C 288.566406 80.125 289.441406 80.125 289.980469 80.664062 L 296.605469 87.289062 C 297.148438 87.828125 297.148438 88.707031 296.605469 89.246094 L 276.222656 109.628906 C 275.691406 110.164062 274.8125 110.164062 274.273438 109.628906 " fill-opacity="1" fill-rule="nonzero"/><path fill="#ffffff" d="M 88.117188 295.78125 L 81.484375 289.15625 C 80.953125 288.613281 80.953125 287.738281 81.484375 287.199219 L 101.871094 266.8125 C 102.410156 266.28125 103.285156 266.28125 103.824219 266.8125 L 110.457031 273.445312 C 110.988281 273.984375 110.988281 274.863281 110.457031 275.394531 L 90.074219 295.78125 C 89.535156 296.320312 88.65625 296.320312 88.117188 295.78125 " fill-opacity="1" fill-rule="nonzero"/><path fill="#ffffff" d="M 304.886719 192.914062 L 304.886719 183.53125 C 304.886719 182.773438 305.511719 182.152344 306.265625 182.152344 L 335.097656 182.152344 C 335.855469 182.152344 336.476562 182.773438 336.476562 183.53125 L 336.476562 192.914062 C 336.476562 193.671875 335.855469 194.292969 335.097656 194.292969 L 306.265625 194.292969 C 305.511719 194.292969 304.886719 193.671875 304.886719 192.914062 " fill-opacity="1" fill-rule="nonzero"/><path fill="#ffffff" d="M 41.625 192.914062 L 41.625 183.53125 C 41.625 182.773438 42.246094 182.152344 43.003906 182.152344 L 71.832031 182.152344 C 72.589844 182.152344 73.210938 182.773438 73.210938 183.53125 L 73.210938 192.914062 C 73.210938 193.671875 72.589844 194.292969 71.832031 194.292969 L 43.003906 194.292969 C 42.246094 194.292969 41.625 193.671875 41.625 192.914062 " fill-opacity="1" fill-rule="nonzero"/><path fill="#ffffff" d="M 267.640625 273.445312 L 274.273438 266.8125 C 274.8125 266.28125 275.691406 266.28125 276.222656 266.8125 L 296.605469 287.199219 C 297.148438 287.738281 297.148438 288.613281 296.605469 289.15625 L 289.980469 295.78125 C 289.441406 296.320312 288.566406 296.320312 288.027344 295.78125 L 267.640625 275.394531 C 267.109375 274.863281 267.109375 273.984375 267.640625 273.445312 " fill-opacity="1" fill-rule="nonzero"/><path fill="#ffffff" d="M 81.484375 87.289062 L 88.117188 80.664062 C 88.65625 80.125 89.535156 80.125 90.074219 80.664062 L 110.457031 101.050781 C 110.988281 101.582031 110.988281 102.457031 110.457031 102.996094 L 103.824219 109.628906 C 103.285156 110.164062 102.410156 110.164062 101.871094 109.628906 L 81.484375 89.246094 C 80.953125 88.707031 80.953125 87.828125 81.484375 87.289062 " fill-opacity="1" fill-rule="nonzero"/><path fill="#ffffff" d="M 255.195312 238.832031 L 204.742188 188.378906 C 204.742188 188.328125 204.75 188.273438 204.75 188.222656 C 204.75 184.714844 203.597656 181.476562 201.65625 178.863281 L 201.65625 107.75 C 201.65625 100.816406 195.980469 95.144531 189.050781 95.144531 C 182.117188 95.144531 176.445312 100.816406 176.445312 107.75 L 176.445312 178.863281 C 174.503906 181.476562 173.347656 184.714844 173.347656 188.222656 C 173.347656 195.011719 177.667969 200.796875 183.707031 202.984375 L 237.371094 256.652344 C 242.273438 261.554688 250.292969 261.554688 255.195312 256.652344 C 260.09375 251.75 260.09375 243.730469 255.195312 238.832031 " fill-opacity="1" fill-rule="nonzero"/></svg>