<svg xmlns="http://www.w3.org/2000/svg" xmlns:xlink="http://www.w3.org/1999/xlink" width="500" zoomAndPan="magnify" viewBox="0 0 375 374.999991" height="500" preserveAspectRatio="xMidYMid meet" version="1.0"><defs><clipPath id="fb6270ebd8"><path d="M 10.707031 10.707031 L 363.957031 10.707031 L 363.957031 363.957031 L 10.707031 363.957031 Z M 10.707031 10.707031 " clip-rule="nonzero"/></clipPath></defs><g clip-path="url(#fb6270ebd8)"><path fill="#ffb300" d="M 363.957031 187.332031 C 363.957031 190.222656 363.886719 193.113281 363.746094 196 C 363.605469 198.886719 363.390625 201.769531 363.109375 204.644531 C 362.824219 207.523438 362.46875 210.390625 362.046875 213.25 C 361.621094 216.109375 361.128906 218.957031 360.5625 221.792969 C 360 224.625 359.367188 227.445312 358.664062 230.25 C 357.960938 233.054688 357.191406 235.839844 356.351562 238.605469 C 355.511719 241.371094 354.605469 244.113281 353.632812 246.835938 C 352.660156 249.558594 351.621094 252.253906 350.511719 254.925781 C 349.40625 257.59375 348.234375 260.238281 347 262.851562 C 345.765625 265.464844 344.464844 268.042969 343.101562 270.59375 C 341.738281 273.144531 340.316406 275.65625 338.828125 278.136719 C 337.34375 280.617188 335.796875 283.058594 334.191406 285.460938 C 332.585938 287.863281 330.921875 290.226562 329.199219 292.546875 C 327.476562 294.871094 325.699219 297.148438 323.867188 299.382812 C 322.03125 301.617188 320.144531 303.804688 318.203125 305.949219 C 316.261719 308.089844 314.269531 310.183594 312.226562 312.226562 C 310.183594 314.269531 308.089844 316.261719 305.949219 318.203125 C 303.804688 320.144531 301.617188 322.03125 299.382812 323.867188 C 297.148438 325.699219 294.871094 327.476562 292.546875 329.199219 C 290.226562 330.921875 287.863281 332.585938 285.460938 334.191406 C 283.058594 335.796875 280.617188 337.34375 278.136719 338.828125 C 275.65625 340.316406 273.144531 341.738281 270.59375 343.101562 C 268.042969 344.464844 265.464844 345.765625 262.851562 347 C 260.238281 348.234375 257.59375 349.40625 254.925781 350.511719 C 252.253906 351.621094 249.558594 352.660156 246.835938 353.632812 C 244.113281 354.605469 241.371094 355.511719 238.605469 356.351562 C 235.839844 357.191406 233.054688 357.960938 230.25 358.664062 C 227.445312 359.367188 224.625 360 221.792969 360.5625 C 218.957031 361.128906 216.109375 361.621094 213.25 362.046875 C 210.390625 362.46875 207.523438 362.824219 204.644531 363.109375 C 201.769531 363.390625 198.886719 363.605469 196 363.746094 C 193.113281 363.886719 190.222656 363.957031 187.332031 363.957031 C 184.441406 363.957031 181.554688 363.886719 178.667969 363.746094 C 175.78125 363.605469 172.898438 363.390625 170.019531 363.109375 C 167.144531 362.824219 164.277344 362.46875 161.417969 362.046875 C 158.558594 361.621094 155.710938 361.128906 152.875 360.5625 C 150.039062 360 147.222656 359.367188 144.417969 358.664062 C 141.613281 357.960938 138.828125 357.191406 136.0625 356.351562 C 133.296875 355.511719 130.550781 354.605469 127.828125 353.632812 C 125.109375 352.660156 122.414062 351.621094 119.742188 350.511719 C 117.070312 349.40625 114.429688 348.234375 111.816406 347 C 109.203125 345.765625 106.621094 344.464844 104.074219 343.101562 C 101.523438 341.738281 99.007812 340.316406 96.53125 338.828125 C 94.050781 337.34375 91.609375 335.796875 89.207031 334.191406 C 86.800781 332.585938 84.441406 330.921875 82.117188 329.199219 C 79.796875 327.476562 77.519531 325.699219 75.285156 323.867188 C 73.050781 322.03125 70.859375 320.144531 68.71875 318.203125 C 66.578125 316.261719 64.484375 314.269531 62.441406 312.226562 C 60.398438 310.183594 58.402344 308.089844 56.460938 305.949219 C 54.523438 303.804688 52.632812 301.617188 50.800781 299.382812 C 48.964844 297.148438 47.1875 294.871094 45.464844 292.546875 C 43.746094 290.226562 42.082031 287.863281 40.476562 285.460938 C 38.867188 283.058594 37.324219 280.617188 35.835938 278.136719 C 34.351562 275.65625 32.925781 273.144531 31.5625 270.59375 C 30.203125 268.042969 28.902344 265.464844 27.667969 262.851562 C 26.429688 260.238281 25.257812 257.59375 24.152344 254.925781 C 23.046875 252.253906 22.007812 249.558594 21.03125 246.835938 C 20.058594 244.113281 19.152344 241.371094 18.3125 238.605469 C 17.472656 235.839844 16.703125 233.054688 16 230.25 C 15.300781 227.445312 14.664062 224.625 14.101562 221.792969 C 13.539062 218.957031 13.042969 216.109375 12.621094 213.25 C 12.195312 210.390625 11.84375 207.523438 11.558594 204.644531 C 11.277344 201.769531 11.0625 198.886719 10.921875 196 C 10.777344 193.113281 10.707031 190.222656 10.707031 187.332031 C 10.707031 184.441406 10.777344 181.554688 10.921875 178.667969 C 11.0625 175.78125 11.277344 172.898438 11.558594 170.019531 C 11.84375 167.144531 12.195312 164.277344 12.621094 161.417969 C 13.042969 158.558594 13.539062 155.710938 14.101562 152.875 C 14.664062 150.039062 15.300781 147.222656 16 144.417969 C 16.703125 141.613281 17.472656 138.828125 18.3125 136.0625 C 19.152344 133.296875 20.058594 130.550781 21.03125 127.828125 C 22.007812 125.109375 23.046875 122.414062 24.152344 119.742188 C 25.257812 117.070312 26.429688 114.429688 27.667969 111.816406 C 28.902344 109.203125 30.203125 106.621094 31.5625 104.074219 C 32.925781 101.523438 34.351562 99.007812 35.835938 96.53125 C 37.324219 94.050781 38.867188 91.609375 40.476562 89.207031 C 42.082031 86.800781 43.746094 84.441406 45.464844 82.117188 C 47.1875 79.796875 48.964844 77.519531 50.800781 75.285156 C 52.632812 73.050781 54.523438 70.859375 56.460938 68.71875 C 58.402344 66.578125 60.398438 64.484375 62.441406 62.441406 C 64.484375 60.398438 66.578125 58.402344 68.71875 56.460938 C 70.859375 54.523438 73.050781 52.632812 75.285156 50.800781 C 77.519531 48.964844 79.796875 47.1875 82.117188 45.464844 C 84.441406 43.746094 86.800781 42.082031 89.207031 40.476562 C 91.609375 38.867188 94.050781 37.324219 96.53125 35.835938 C 99.007812 34.351562 101.523438 32.925781 104.074219 31.5625 C 106.621094 30.203125 109.203125 28.902344 111.816406 27.667969 C 114.429688 26.429688 117.070312 25.257812 119.742188 24.152344 C 122.414062 23.046875 125.109375 22.007812 127.828125 21.03125 C 130.550781 20.058594 133.296875 19.152344 136.0625 18.3125 C 138.828125 17.472656 141.613281 16.703125 144.417969 16 C 147.222656 15.300781 150.039062 14.664062 152.875 14.101562 C 155.710938 13.539062 158.558594 13.042969 161.417969 12.621094 C 164.277344 12.195312 167.144531 11.84375 170.019531 11.558594 C 172.898438 11.277344 175.78125 11.0625 178.667969 10.921875 C 181.554688 10.777344 184.441406 10.707031 187.332031 10.707031 C 190.222656 10.707031 193.113281 10.777344 196 10.921875 C 198.886719 11.0625 201.769531 11.277344 204.644531 11.558594 C 207.523438 11.84375 210.390625 12.195312 213.25 12.621094 C 216.109375 13.042969 218.957031 13.539062 221.792969 14.101562 C 224.625 14.664062 227.445312 15.300781 230.25 16 C 233.054688 16.703125 235.839844 17.472656 238.605469 18.3125 C 241.371094 19.152344 244.113281 20.058594 246.835938 21.03125 C 249.558594 22.007812 252.253906 23.046875 254.925781 24.152344 C 257.59375 25.257812 260.238281 26.429688 262.851562 27.667969 C 265.464844 28.902344 268.042969 30.203125 270.59375 31.5625 C 273.144531 32.925781 275.65625 34.351562 278.136719 35.835938 C 280.617188 37.324219 283.058594 38.867188 285.460938 40.476562 C 287.863281 42.082031 290.226562 43.746094 292.546875 45.464844 C 294.871094 47.1875 297.148438 48.964844 299.382812 50.800781 C 301.617188 52.632812 303.804688 54.523438 305.949219 56.460938 C 308.089844 58.402344 310.183594 60.398438 312.226562 62.441406 C 314.269531 64.484375 316.261719 66.578125 318.203125 68.71875 C 320.144531 70.859375 322.03125 73.050781 323.867188 75.285156 C 325.699219 77.519531 327.476562 79.796875 329.199219 82.117188 C 330.921875 84.441406 332.585938 86.800781 334.191406 89.207031 C 335.796875 91.609375 337.34375 94.050781 338.828125 96.53125 C 340.316406 99.007812 341.738281 101.523438 343.101562 104.074219 C 344.464844 106.621094 345.765625 109.203125 347 111.816406 C 348.234375 114.429688 349.40625 117.070312 350.511719 119.742188 C 351.621094 122.414062 352.660156 125.109375 353.632812 127.828125 C 354.605469 130.550781 355.511719 133.296875 356.351562 136.0625 C 357.191406 138.828125 357.960938 141.613281 358.664062 144.417969 C 359.367188 147.222656 360 150.039062 360.5625 152.875 C 361.128906 155.710938 361.621094 158.558594 362.046875 161.417969 C 362.46875 164.277344 362.824219 167.144531 363.109375 170.019531 C 363.390625 172.898438 363.605469 175.78125 363.746094 178.667969 C 363.886719 181.554688 363.957031 184.441406 363.957031 187.332031 Z M 363.957031 187.332031 " fill-opacity="1" fill-rule="nonzero"/></g><path fill="#ffca28" d="M 353.71875 187.332031 C 353.71875 190.054688 353.652344 192.777344 353.519531 195.496094 C 353.386719 198.21875 353.183594 200.933594 352.917969 203.640625 C 352.652344 206.351562 352.316406 209.054688 351.917969 211.746094 C 351.519531 214.441406 351.054688 217.121094 350.523438 219.792969 C 349.992188 222.464844 349.394531 225.121094 348.734375 227.761719 C 348.070312 230.402344 347.34375 233.027344 346.554688 235.632812 C 345.765625 238.238281 344.910156 240.824219 343.992188 243.386719 C 343.074219 245.949219 342.097656 248.492188 341.054688 251.007812 C 340.011719 253.523438 338.910156 256.011719 337.746094 258.472656 C 336.578125 260.933594 335.355469 263.367188 334.074219 265.765625 C 332.789062 268.167969 331.445312 270.535156 330.046875 272.871094 C 328.648438 275.207031 327.191406 277.507812 325.679688 279.773438 C 324.164062 282.035156 322.597656 284.261719 320.976562 286.449219 C 319.351562 288.636719 317.679688 290.78125 315.953125 292.886719 C 314.222656 294.992188 312.445312 297.054688 310.617188 299.070312 C 308.789062 301.089844 306.910156 303.058594 304.984375 304.984375 C 303.058594 306.910156 301.089844 308.789062 299.070312 310.617188 C 297.054688 312.445312 294.992188 314.222656 292.886719 315.953125 C 290.78125 317.679688 288.636719 319.351562 286.449219 320.976562 C 284.261719 322.597656 282.035156 324.164062 279.773438 325.679688 C 277.507812 327.191406 275.207031 328.648438 272.871094 330.046875 C 270.535156 331.445312 268.167969 332.789062 265.765625 334.074219 C 263.367188 335.355469 260.933594 336.578125 258.472656 337.746094 C 256.011719 338.910156 253.523438 340.011719 251.007812 341.054688 C 248.492188 342.097656 245.949219 343.074219 243.386719 343.992188 C 240.824219 344.910156 238.238281 345.765625 235.632812 346.554688 C 233.027344 347.34375 230.402344 348.070312 227.761719 348.734375 C 225.121094 349.394531 222.464844 349.992188 219.792969 350.523438 C 217.121094 351.054688 214.441406 351.519531 211.746094 351.917969 C 209.054688 352.316406 206.351562 352.652344 203.640625 352.917969 C 200.933594 353.183594 198.21875 353.386719 195.496094 353.519531 C 192.777344 353.652344 190.054688 353.71875 187.332031 353.71875 C 184.609375 353.71875 181.890625 353.652344 179.167969 353.519531 C 176.449219 353.386719 173.734375 353.183594 171.023438 352.917969 C 168.316406 352.652344 165.613281 352.316406 162.917969 351.917969 C 160.226562 351.519531 157.542969 351.054688 154.871094 350.523438 C 152.203125 349.992188 149.546875 349.394531 146.90625 348.734375 C 144.261719 348.070312 141.640625 347.34375 139.035156 346.554688 C 136.429688 345.765625 133.84375 344.910156 131.28125 343.992188 C 128.714844 343.074219 126.175781 342.097656 123.660156 341.054688 C 121.144531 340.011719 118.65625 338.910156 116.195312 337.746094 C 113.734375 336.578125 111.300781 335.355469 108.898438 334.074219 C 106.496094 332.789062 104.128906 331.445312 101.792969 330.046875 C 99.457031 328.648438 97.160156 327.191406 94.894531 325.679688 C 92.628906 324.164062 90.40625 322.597656 88.21875 320.976562 C 86.03125 319.351562 83.882812 317.679688 81.777344 315.953125 C 79.675781 314.222656 77.613281 312.445312 75.59375 310.617188 C 73.578125 308.789062 71.605469 306.910156 69.679688 304.984375 C 67.753906 303.058594 65.878906 301.089844 64.050781 299.070312 C 62.222656 297.054688 60.441406 294.992188 58.714844 292.886719 C 56.988281 290.78125 55.3125 288.636719 53.691406 286.449219 C 52.070312 284.261719 50.5 282.035156 48.988281 279.773438 C 47.476562 277.507812 46.019531 275.207031 44.621094 272.871094 C 43.21875 270.535156 41.878906 268.167969 40.59375 265.765625 C 39.308594 263.367188 38.085938 260.933594 36.921875 258.472656 C 35.757812 256.011719 34.65625 253.523438 33.613281 251.007812 C 32.570312 248.492188 31.589844 245.949219 30.671875 243.386719 C 29.757812 240.824219 28.902344 238.238281 28.113281 235.632812 C 27.320312 233.027344 26.59375 230.402344 25.933594 227.761719 C 25.273438 225.121094 24.675781 222.464844 24.144531 219.792969 C 23.613281 217.121094 23.148438 214.441406 22.75 211.746094 C 22.347656 209.054688 22.015625 206.351562 21.75 203.640625 C 21.480469 200.933594 21.28125 198.21875 21.148438 195.496094 C 21.015625 192.777344 20.949219 190.054688 20.949219 187.332031 C 20.949219 184.609375 21.015625 181.890625 21.148438 179.167969 C 21.28125 176.449219 21.480469 173.734375 21.75 171.023438 C 22.015625 168.316406 22.347656 165.613281 22.75 162.917969 C 23.148438 160.226562 23.613281 157.542969 24.144531 154.871094 C 24.675781 152.203125 25.273438 149.546875 25.933594 146.90625 C 26.59375 144.261719 27.320312 141.640625 28.113281 139.035156 C 28.902344 136.429688 29.757812 133.84375 30.671875 131.28125 C 31.589844 128.714844 32.570312 126.175781 33.613281 123.660156 C 34.65625 121.144531 35.757812 118.65625 36.921875 116.195312 C 38.085938 113.734375 39.308594 111.300781 40.59375 108.898438 C 41.878906 106.496094 43.21875 104.128906 44.621094 101.792969 C 46.019531 99.457031 47.476562 97.160156 48.988281 94.894531 C 50.5 92.628906 52.070312 90.40625 53.691406 88.21875 C 55.3125 86.03125 56.988281 83.882812 58.714844 81.777344 C 60.441406 79.675781 62.222656 77.613281 64.050781 75.59375 C 65.878906 73.578125 67.753906 71.605469 69.679688 69.679688 C 71.605469 67.753906 73.578125 65.878906 75.59375 64.050781 C 77.613281 62.222656 79.675781 60.441406 81.777344 58.714844 C 83.882812 56.988281 86.03125 55.3125 88.21875 53.691406 C 90.40625 52.070312 92.628906 50.5 94.894531 48.988281 C 97.160156 47.476562 99.457031 46.019531 101.792969 44.621094 C 104.128906 43.21875 106.496094 41.878906 108.898438 40.59375 C 111.300781 39.308594 113.734375 38.085938 116.195312 36.921875 C 118.65625 35.757812 121.144531 34.65625 123.660156 33.613281 C 126.175781 32.570312 128.714844 31.589844 131.28125 30.671875 C 133.84375 29.757812 136.429688 28.902344 139.035156 28.113281 C 141.640625 27.320312 144.261719 26.59375 146.90625 25.933594 C 149.546875 25.273438 152.203125 24.675781 154.871094 24.144531 C 157.542969 23.613281 160.226562 23.148438 162.917969 22.75 C 165.613281 22.347656 168.316406 22.015625 171.023438 21.75 C 173.734375 21.480469 176.449219 21.28125 179.167969 21.148438 C 181.890625 21.015625 184.609375 20.949219 187.332031 20.949219 C 190.054688 20.949219 192.777344 21.015625 195.496094 21.148438 C 198.21875 21.28125 200.933594 21.480469 203.640625 21.75 C 206.351562 22.015625 209.054688 22.347656 211.746094 22.75 C 214.441406 23.148438 217.121094 23.613281 219.792969 24.144531 C 222.464844 24.675781 225.121094 25.273438 227.761719 25.933594 C 230.402344 26.59375 233.027344 27.320312 235.632812 28.113281 C 238.238281 28.902344 240.824219 29.757812 243.386719 30.671875 C 245.949219 31.589844 248.492188 32.570312 251.007812 33.613281 C 253.523438 34.65625 256.011719 35.757812 258.472656 36.921875 C 260.933594 38.085938 263.367188 39.308594 265.765625 40.59375 C 268.167969 41.878906 270.535156 43.21875 272.871094 44.621094 C 275.207031 46.019531 277.507812 47.476562 279.773438 48.988281 C 282.035156 50.5 284.261719 52.070312 286.449219 53.691406 C 288.636719 55.3125 290.78125 56.988281 292.886719 58.714844 C 294.992188 60.441406 297.054688 62.222656 299.070312 64.050781 C 301.089844 65.878906 303.058594 67.753906 304.984375 69.679688 C 306.910156 71.605469 308.789062 73.578125 310.617188 75.59375 C 312.445312 77.613281 314.222656 79.675781 315.953125 81.777344 C 317.679688 83.882812 319.351562 86.03125 320.976562 88.21875 C 322.597656 90.40625 324.164062 92.628906 325.679688 94.894531 C 327.191406 97.160156 328.648438 99.457031 330.046875 101.792969 C 331.445312 104.128906 332.789062 106.496094 334.074219 108.898438 C 335.355469 111.300781 336.578125 113.734375 337.746094 116.195312 C 338.910156 118.65625 340.011719 121.144531 341.054688 123.660156 C 342.097656 126.175781 343.074219 128.714844 343.992188 131.28125 C 344.910156 133.84375 345.765625 136.429688 346.554688 139.035156 C 347.34375 141.640625 348.070312 144.261719 348.734375 146.90625 C 349.394531 149.546875 349.992188 152.203125 350.523438 154.871094 C 351.054688 157.542969 351.519531 160.226562 351.917969 162.917969 C 352.316406 165.613281 352.652344 168.316406 352.917969 171.023438 C 353.183594 173.734375 353.386719 176.449219 353.519531 179.167969 C 353.652344 181.890625 353.71875 184.609375 353.71875 187.332031 Z M 353.71875 187.332031 " fill-opacity="1" fill-rule="nonzero"/><path fill="#ffa000" d="M 328.121094 187.332031 C 328.121094 189.636719 328.066406 191.941406 327.953125 194.242188 C 327.839844 196.542969 327.667969 198.839844 327.441406 201.132812 C 327.21875 203.425781 326.933594 205.710938 326.597656 207.992188 C 326.257812 210.269531 325.867188 212.539062 325.417969 214.800781 C 324.964844 217.058594 324.460938 219.308594 323.902344 221.542969 C 323.34375 223.777344 322.726562 225.996094 322.058594 228.203125 C 321.390625 230.40625 320.667969 232.59375 319.890625 234.761719 C 319.113281 236.933594 318.285156 239.082031 317.40625 241.210938 C 316.523438 243.339844 315.589844 245.445312 314.605469 247.527344 C 313.617188 249.609375 312.582031 251.667969 311.496094 253.699219 C 310.410156 255.730469 309.277344 257.738281 308.089844 259.710938 C 306.90625 261.6875 305.675781 263.636719 304.394531 265.550781 C 303.113281 267.464844 301.789062 269.351562 300.414062 271.199219 C 299.042969 273.050781 297.625 274.867188 296.164062 276.648438 C 294.703125 278.429688 293.199219 280.171875 291.648438 281.878906 C 290.101562 283.589844 288.515625 285.257812 286.886719 286.886719 C 285.257812 288.515625 283.589844 290.101562 281.878906 291.648438 C 280.171875 293.199219 278.429688 294.703125 276.648438 296.164062 C 274.867188 297.625 273.050781 299.042969 271.199219 300.414062 C 269.351562 301.789062 267.464844 303.113281 265.550781 304.394531 C 263.636719 305.675781 261.6875 306.90625 259.710938 308.089844 C 257.738281 309.277344 255.730469 310.410156 253.699219 311.496094 C 251.667969 312.582031 249.609375 313.617188 247.527344 314.605469 C 245.445312 315.589844 243.339844 316.523438 241.210938 317.40625 C 239.082031 318.285156 236.933594 319.113281 234.761719 319.890625 C 232.59375 320.667969 230.40625 321.390625 228.203125 322.058594 C 225.996094 322.726562 223.777344 323.34375 221.542969 323.902344 C 219.308594 324.460938 217.058594 324.964844 214.800781 325.417969 C 212.539062 325.867188 210.269531 326.257812 207.992188 326.597656 C 205.710938 326.933594 203.425781 327.21875 201.132812 327.441406 C 198.839844 327.667969 196.542969 327.839844 194.242188 327.953125 C 191.941406 328.066406 189.636719 328.121094 187.332031 328.121094 C 185.027344 328.121094 182.726562 328.066406 180.425781 327.953125 C 178.125 327.839844 175.828125 327.667969 173.535156 327.441406 C 171.242188 327.21875 168.953125 326.933594 166.675781 326.597656 C 164.394531 326.257812 162.125 325.867188 159.867188 325.417969 C 157.605469 324.964844 155.359375 324.460938 153.125 323.902344 C 150.890625 323.34375 148.667969 322.726562 146.464844 322.058594 C 144.257812 321.390625 142.074219 320.667969 139.902344 319.890625 C 137.734375 319.113281 135.585938 318.285156 133.457031 317.40625 C 131.328125 316.523438 129.222656 315.589844 127.136719 314.605469 C 125.054688 313.617188 123 312.582031 120.964844 311.496094 C 118.933594 310.410156 116.929688 309.277344 114.953125 308.089844 C 112.976562 306.90625 111.03125 305.675781 109.117188 304.394531 C 107.199219 303.113281 105.316406 301.789062 103.464844 300.414062 C 101.613281 299.042969 99.800781 297.625 98.019531 296.164062 C 96.238281 294.703125 94.492188 293.199219 92.785156 291.648438 C 91.078125 290.101562 89.410156 288.515625 87.78125 286.886719 C 86.152344 285.257812 84.5625 283.589844 83.015625 281.878906 C 81.46875 280.171875 79.964844 278.429688 78.503906 276.648438 C 77.039062 274.867188 75.625 273.050781 74.25 271.199219 C 72.878906 269.351562 71.550781 267.464844 70.273438 265.550781 C 68.992188 263.636719 67.761719 261.6875 66.574219 259.710938 C 65.390625 257.738281 64.253906 255.730469 63.167969 253.699219 C 62.082031 251.667969 61.046875 249.609375 60.0625 247.527344 C 59.078125 245.445312 58.144531 243.339844 57.261719 241.210938 C 56.378906 239.082031 55.550781 236.933594 54.773438 234.761719 C 54 232.59375 53.277344 230.40625 52.609375 228.203125 C 51.9375 225.996094 51.324219 223.777344 50.765625 221.542969 C 50.203125 219.308594 49.699219 217.058594 49.25 214.800781 C 48.800781 212.539062 48.40625 210.269531 48.070312 207.992188 C 47.730469 205.710938 47.449219 203.425781 47.222656 201.132812 C 46.996094 198.839844 46.828125 196.542969 46.714844 194.242188 C 46.601562 191.941406 46.546875 189.636719 46.546875 187.332031 C 46.546875 185.027344 46.601562 182.726562 46.714844 180.425781 C 46.828125 178.125 46.996094 175.828125 47.222656 173.535156 C 47.449219 171.242188 47.730469 168.953125 48.070312 166.675781 C 48.40625 164.394531 48.800781 162.125 49.25 159.867188 C 49.699219 157.605469 50.203125 155.359375 50.765625 153.125 C 51.324219 150.890625 51.9375 148.667969 52.609375 146.464844 C 53.277344 144.257812 54 142.074219 54.773438 139.902344 C 55.550781 137.734375 56.378906 135.585938 57.261719 133.457031 C 58.144531 131.328125 59.078125 129.222656 60.0625 127.136719 C 61.046875 125.054688 62.082031 123 63.167969 120.964844 C 64.253906 118.933594 65.390625 116.929688 66.574219 114.953125 C 67.761719 112.976562 68.992188 111.03125 70.273438 109.117188 C 71.550781 107.199219 72.878906 105.316406 74.25 103.464844 C 75.625 101.613281 77.039062 99.800781 78.503906 98.019531 C 79.964844 96.238281 81.46875 94.492188 83.015625 92.785156 C 84.5625 91.078125 86.152344 89.410156 87.78125 87.78125 C 89.410156 86.152344 91.078125 84.5625 92.785156 83.015625 C 94.492188 81.46875 96.238281 79.964844 98.019531 78.503906 C 99.800781 77.039062 101.613281 75.625 103.464844 74.25 C 105.316406 72.878906 107.199219 71.550781 109.117188 70.273438 C 111.03125 68.992188 112.976562 67.761719 114.953125 66.574219 C 116.929688 65.390625 118.933594 64.253906 120.964844 63.167969 C 123 62.082031 125.054688 61.046875 127.136719 60.0625 C 129.222656 59.078125 131.328125 58.144531 133.457031 57.261719 C 135.585938 56.378906 137.734375 55.550781 139.902344 54.773438 C 142.074219 54 144.257812 53.277344 146.464844 52.609375 C 148.667969 51.9375 150.890625 51.324219 153.125 50.765625 C 155.359375 50.203125 157.605469 49.699219 159.867188 49.25 C 162.125 48.800781 164.394531 48.40625 166.675781 48.070312 C 168.953125 47.730469 171.242188 47.449219 173.535156 47.222656 C 175.828125 46.996094 178.125 46.828125 180.425781 46.714844 C 182.726562 46.601562 185.027344 46.546875 187.332031 46.546875 C 189.636719 46.546875 191.941406 46.601562 194.242188 46.714844 C 196.542969 46.828125 198.839844 46.996094 201.132812 47.222656 C 203.425781 47.449219 205.710938 47.730469 207.992188 48.070312 C 210.269531 48.40625 212.539062 48.800781 214.800781 49.25 C 217.058594 49.699219 219.308594 50.203125 221.542969 50.765625 C 223.777344 51.324219 225.996094 51.9375 228.203125 52.609375 C 230.40625 53.277344 232.59375 54 234.761719 54.773438 C 236.933594 55.550781 239.082031 56.378906 241.210938 57.261719 C 243.339844 58.144531 245.445312 59.078125 247.527344 60.0625 C 249.609375 61.046875 251.667969 62.082031 253.699219 63.167969 C 255.730469 64.253906 257.738281 65.390625 259.710938 66.574219 C 261.6875 67.761719 263.636719 68.992188 265.550781 70.273438 C 267.464844 71.550781 269.351562 72.878906 271.199219 74.25 C 273.050781 75.625 274.867188 77.039062 276.648438 78.503906 C 278.429688 79.964844 280.171875 81.46875 281.878906 83.015625 C 283.589844 84.5625 285.257812 86.152344 286.886719 87.78125 C 288.515625 89.410156 290.101562 91.078125 291.648438 92.785156 C 293.199219 94.492188 294.703125 96.238281 296.164062 98.019531 C 297.625 99.800781 299.042969 101.613281 300.414062 103.464844 C 301.789062 105.316406 303.113281 107.199219 304.394531 109.117188 C 305.675781 111.03125 306.90625 112.976562 308.089844 114.953125 C 309.277344 116.929688 310.410156 118.933594 311.496094 120.964844 C 312.582031 123 313.617188 125.054688 314.605469 127.136719 C 315.589844 129.222656 316.523438 131.328125 317.40625 133.457031 C 318.285156 135.585938 319.113281 137.734375 319.890625 139.902344 C 320.667969 142.074219 321.390625 144.257812 322.058594 146.464844 C 322.726562 148.667969 323.34375 150.890625 323.902344 153.125 C 324.460938 155.359375 324.964844 157.605469 325.417969 159.867188 C 325.867188 162.125 326.257812 164.394531 326.597656 166.675781 C 326.933594 168.953125 327.21875 171.242188 327.441406 173.535156 C 327.667969 175.828125 327.839844 178.125 327.953125 180.425781 C 328.066406 182.726562 328.121094 185.027344 328.121094 187.332031 Z M 328.121094 187.332031 " fill-opacity="1" fill-rule="nonzero"/></svg>