<svg xmlns="http://www.w3.org/2000/svg" xmlns:xlink="http://www.w3.org/1999/xlink" width="500" zoomAndPan="magnify" viewBox="0 0 375 374.999991" height="500" preserveAspectRatio="xMidYMid meet" version="1.0"><defs><clipPath id="902b742463"><path d="M 3.101562 2.507812 L 375 2.507812 L 375 373.757812 L 3.101562 373.757812 Z M 3.101562 2.507812 " clip-rule="nonzero"/></clipPath><clipPath id="7191c44892"><path d="M 10.488281 9.664062 L 367.488281 9.664062 L 367.488281 366.664062 L 10.488281 366.664062 Z M 10.488281 9.664062 " clip-rule="nonzero"/></clipPath></defs><g clip-path="url(#902b742463)"><path fill="#ffffff" d="M 189.050781 26.683594 C 99.972656 26.683594 27.511719 99.144531 27.511719 188.222656 C 27.511719 277.296875 99.972656 349.769531 189.050781 349.769531 C 278.125 349.769531 350.585938 277.296875 350.585938 188.222656 C 350.585938 99.144531 278.125 26.683594 189.050781 26.683594 Z M 189.050781 373.964844 C 163.980469 373.964844 139.65625 369.058594 116.746094 359.367188 C 94.621094 350.007812 74.761719 336.617188 57.707031 319.566406 C 40.65625 302.507812 27.265625 282.648438 17.902344 260.527344 C 8.222656 237.617188 3.304688 213.289062 3.304688 188.222656 C 3.304688 163.152344 8.222656 138.828125 17.902344 115.917969 C 27.265625 93.796875 40.65625 73.933594 57.707031 56.878906 C 74.761719 39.828125 94.621094 26.4375 116.746094 17.085938 C 139.65625 7.394531 163.980469 2.476562 189.050781 2.476562 C 214.117188 2.476562 238.445312 7.394531 261.355469 17.085938 C 283.476562 26.4375 303.335938 39.828125 320.394531 56.878906 C 337.441406 73.933594 350.835938 93.796875 360.195312 115.917969 C 369.878906 138.828125 374.792969 163.152344 374.792969 188.222656 C 374.792969 213.289062 369.878906 237.617188 360.195312 260.527344 C 350.835938 282.640625 337.441406 302.507812 320.394531 319.566406 C 303.335938 336.617188 283.476562 350.007812 261.355469 359.367188 C 238.445312 369.058594 214.117188 373.964844 189.050781 373.964844 " fill-opacity="1" fill-rule="nonzero"/></g><path fill="#ffffff" d="M 193.742188 72.382812 L 184.359375 72.382812 C 183.601562 72.382812 182.980469 71.761719 182.980469 71.003906 L 182.980469 42.175781 C 182.980469 41.417969 183.601562 40.796875 184.359375 40.796875 L 193.742188 40.796875 C 194.5 40.796875 195.121094 41.417969 195.121094 42.175781 L 195.121094 71.003906 C 195.121094 71.761719 194.5 72.382812 193.742188 72.382812 " fill-opacity="1" fill-rule="nonzero"/><path fill="#ffffff" d="M 193.742188 335.648438 L 184.359375 335.648438 C 183.601562 335.648438 182.980469 335.027344 182.980469 334.269531 L 182.980469 305.441406 C 182.980469 304.683594 183.601562 304.058594 184.359375 304.058594 L 193.742188 304.058594 C 194.5 304.058594 195.121094 304.683594 195.121094 305.441406 L 195.121094 334.269531 C 195.121094 335.027344 194.5 335.648438 193.742188 335.648438 " fill-opacity="1" fill-rule="nonzero"/><path fill="#ffffff" d="M 274.273438 109.628906 L 267.640625 102.996094 C 267.109375 102.457031 267.109375 101.582031 267.640625 101.050781 L 288.027344 80.664062 C 288.566406 80.125 289.441406 80.125 289.980469 80.664062 L 296.605469 87.289062 C 297.148438 87.828125 297.148438 88.707031 296.605469 89.246094 L 276.222656 109.628906 C 275.691406 110.164062 274.8125 110.164062 274.273438 109.628906 " fill-opacity="1" fill-rule="nonzero"/><path fill="#ffffff" d="M 88.117188 295.78125 L 81.484375 289.15625 C 80.953125 288.613281 80.953125 287.738281 81.484375 287.199219 L 101.871094 266.8125 C 102.410156 266.28125 103.285156 266.28125 103.824219 266.8125 L 110.457031 273.445312 C 110.988281 273.984375 110.988281 274.863281 110.457031 275.394531 L 90.074219 295.78125 C 89.535156 296.320312 88.65625 296.320312 88.117188 295.78125 " fill-opacity="1" fill-rule="nonzero"/><path fill="#ffffff" d="M 304.886719 192.914062 L 304.886719 183.53125 C 304.886719 182.773438 305.511719 182.152344 306.265625 182.152344 L 335.097656 182.152344 C 335.855469 182.152344 336.476562 182.773438 336.476562 183.53125 L 336.476562 192.914062 C 336.476562 193.671875 335.855469 194.292969 335.097656 194.292969 L 306.265625 194.292969 C 305.511719 194.292969 304.886719 193.671875 304.886719 192.914062 " fill-opacity="1" fill-rule="nonzero"/><path fill="#ffffff" d="M 41.625 192.914062 L 41.625 183.53125 C 41.625 182.773438 42.246094 182.152344 43.003906 182.152344 L 71.832031 182.152344 C 72.589844 182.152344 73.210938 182.773438 73.210938 183.53125 L 73.210938 192.914062 C 73.210938 193.671875 72.589844 194.292969 71.832031 194.292969 L 43.003906 194.292969 C 42.246094 194.292969 41.625 193.671875 41.625 192.914062 " fill-opacity="1" fill-rule="nonzero"/><path fill="#ffffff" d="M 267.640625 273.445312 L 274.273438 266.8125 C 274.8125 266.28125 275.691406 266.28125 276.222656 266.8125 L 296.605469 287.199219 C 297.148438 287.738281 297.148438 288.613281 296.605469 289.15625 L 289.980469 295.78125 C 289.441406 296.320312 288.566406 296.320312 288.027344 295.78125 L 267.640625 275.394531 C 267.109375 274.863281 267.109375 273.984375 267.640625 273.445312 " fill-opacity="1" fill-rule="nonzero"/><path fill="#ffffff" d="M 81.484375 87.289062 L 88.117188 80.664062 C 88.65625 80.125 89.535156 80.125 90.074219 80.664062 L 110.457031 101.050781 C 110.988281 101.582031 110.988281 102.457031 110.457031 102.996094 L 103.824219 109.628906 C 103.285156 110.164062 102.410156 110.164062 101.871094 109.628906 L 81.484375 89.246094 C 80.953125 88.707031 80.953125 87.828125 81.484375 87.289062 " fill-opacity="1" fill-rule="nonzero"/><path fill="#ffffff" d="M 255.195312 238.832031 L 204.742188 188.378906 C 204.742188 188.328125 204.75 188.273438 204.75 188.222656 C 204.75 184.714844 203.597656 181.476562 201.65625 178.863281 L 201.65625 107.75 C 201.65625 100.816406 195.980469 95.144531 189.050781 95.144531 C 182.117188 95.144531 176.445312 100.816406 176.445312 107.75 L 176.445312 178.863281 C 174.503906 181.476562 173.347656 184.714844 173.347656 188.222656 C 173.347656 195.011719 177.667969 200.796875 183.707031 202.984375 L 237.371094 256.652344 C 242.273438 261.554688 250.292969 261.554688 255.195312 256.652344 C 260.09375 251.75 260.09375 243.730469 255.195312 238.832031 " fill-opacity="1" fill-rule="nonzero"/><g clip-path="url(#7191c44892)"><path fill="#ffffff" d="M 168.386719 9.664062 Z M 146.253906 117.183594 C 147.628906 117.734375 149.121094 118.171875 150.726562 118.476562 L 148.773438 123.332031 C 147.726562 125.941406 148.996094 128.902344 151.601562 129.949219 C 154.210938 130.992188 157.175781 129.726562 158.21875 127.117188 L 161.148438 119.832031 L 162.171875 119.96875 C 167.886719 120.691406 173.78125 119.574219 178.644531 117.199219 C 183.769531 114.707031 187.921875 110.746094 189.859375 105.941406 C 190.378906 104.65625 190.714844 103.324219 190.886719 102.003906 L 190.886719 101.984375 C 191.351562 98.308594 190.429688 94.808594 188.386719 91.835938 C 186.484375 89.078125 183.617188 86.808594 180.011719 85.363281 C 178.191406 84.628906 176.15625 84.105469 173.941406 83.816406 L 164.09375 82.578125 C 162.796875 82.417969 161.601562 82.105469 160.53125 81.675781 C 158.824219 80.988281 157.523438 80.003906 156.746094 78.871094 C 156.113281 77.945312 155.816406 76.863281 155.960938 75.757812 L 155.976562 75.738281 C 156.03125 75.273438 156.15625 74.800781 156.34375 74.328125 C 157.289062 71.96875 159.613281 69.890625 162.574219 68.445312 C 165.796875 66.882812 169.628906 66.140625 173.308594 66.597656 L 177.949219 67.183594 C 178.136719 67.222656 178.316406 67.238281 178.503906 67.257812 L 183.15625 67.847656 C 184.449219 68.007812 185.644531 68.320312 186.714844 68.746094 C 188.421875 69.433594 189.714844 70.417969 190.503906 71.550781 C 191.136719 72.46875 191.429688 73.550781 191.289062 74.667969 C 191.234375 75.105469 191.101562 75.585938 190.894531 76.09375 C 189.851562 78.703125 191.117188 81.667969 193.726562 82.710938 C 196.332031 83.753906 199.296875 82.488281 200.339844 79.878906 C 200.859375 78.585938 201.199219 77.265625 201.367188 75.945312 L 201.367188 75.925781 C 201.832031 72.246094 200.910156 68.746094 198.867188 65.785156 C 196.964844 63.023438 194.101562 60.757812 190.492188 59.3125 C 189.117188 58.757812 187.628906 58.320312 186.019531 58.015625 L 187.976562 53.152344 C 189.019531 50.542969 187.753906 47.578125 185.144531 46.535156 C 182.539062 45.492188 179.574219 46.757812 178.53125 49.363281 L 175.59375 56.648438 L 174.539062 56.515625 C 168.832031 55.800781 162.960938 56.910156 158.085938 59.285156 C 152.960938 61.785156 148.808594 65.738281 146.871094 70.542969 C 146.335938 71.871094 145.988281 73.203125 145.84375 74.507812 C 145.378906 78.195312 146.308594 81.683594 148.34375 84.65625 C 150.246094 87.414062 153.121094 89.683594 156.71875 91.128906 C 158.539062 91.863281 160.574219 92.390625 162.789062 92.664062 L 172.636719 93.90625 C 173.933594 94.066406 175.128906 94.378906 176.199219 94.808594 C 177.90625 95.496094 179.199219 96.476562 179.984375 97.613281 C 180.617188 98.53125 180.914062 99.613281 180.769531 100.726562 C 180.71875 101.164062 180.582031 101.648438 180.378906 102.15625 C 179.429688 104.511719 177.109375 106.59375 174.144531 108.039062 C 170.921875 109.609375 167.085938 110.351562 163.414062 109.886719 L 158.78125 109.308594 C 158.585938 109.273438 158.398438 109.246094 158.199219 109.234375 L 153.566406 108.648438 C 152.273438 108.484375 151.078125 108.171875 150.003906 107.746094 C 148.300781 107.058594 147.003906 106.074219 146.21875 104.941406 C 145.585938 104.023438 145.292969 102.941406 145.433594 101.824219 C 145.488281 101.386719 145.621094 100.90625 145.828125 100.398438 C 146.871094 97.789062 145.601562 94.824219 142.996094 93.78125 C 140.390625 92.738281 137.425781 94.003906 136.382812 96.613281 C 135.863281 97.90625 135.523438 99.226562 135.355469 100.550781 L 135.355469 100.566406 C 134.890625 104.246094 135.808594 107.746094 137.855469 110.707031 C 139.78125 113.46875 142.65625 115.734375 146.253906 117.183594 Z M 168.386719 30.132812 Z M 34.613281 88.238281 C 34.613281 71.335938 50.226562 56.445312 75.464844 46.054688 C 99.347656 36.214844 132.210938 30.125 168.386719 30.125 C 204.5625 30.125 237.425781 36.214844 261.308594 46.054688 C 286.546875 56.445312 302.164062 71.335938 302.164062 88.238281 C 302.164062 105.136719 286.546875 120.03125 261.308594 130.421875 C 237.425781 140.261719 204.5625 146.347656 168.386719 146.347656 C 132.210938 146.347656 99.347656 140.261719 75.464844 130.421875 C 50.226562 120.03125 34.613281 105.136719 34.613281 88.238281 Z M 44.808594 88.238281 C 44.808594 100.613281 58.003906 112.234375 79.332031 121.019531 C 102.015625 130.367188 133.496094 136.144531 168.386719 136.144531 C 203.277344 136.144531 234.757812 130.359375 257.445312 121.019531 C 278.773438 112.234375 291.96875 100.613281 291.96875 88.238281 C 291.96875 75.863281 278.773438 64.238281 257.445312 55.453125 C 234.757812 46.105469 203.277344 40.328125 168.386719 40.328125 C 133.496094 40.328125 102.015625 46.117188 79.332031 55.453125 C 58.003906 64.238281 44.808594 75.863281 44.808594 88.238281 Z M 367.605469 160.625 L 367.605469 215.808594 C 367.605469 228.648438 361.613281 240.691406 350.964844 251.296875 C 350.730469 251.582031 350.464844 251.851562 350.167969 252.082031 C 347.992188 254.191406 345.632812 256.234375 343.089844 258.226562 L 343.097656 288.203125 C 343.097656 310.613281 324.886719 330.585938 295.441406 344.738281 C 267.128906 358.359375 228.140625 366.78125 185.207031 366.78125 C 142.273438 366.78125 103.285156 358.351562 74.976562 344.738281 C 45.53125 330.578125 27.316406 310.613281 27.316406 288.203125 L 27.316406 233.03125 C 27.316406 233.03125 27.316406 233.03125 27.316406 233.023438 C 27.316406 224.925781 29.71875 217.113281 34.183594 209.753906 C 37.503906 204.292969 41.96875 199.105469 47.433594 194.257812 C 39.886719 189.808594 33.324219 184.925781 27.914062 179.6875 C 27.628906 179.453125 27.371094 179.203125 27.140625 178.917969 C 16.480469 168.3125 10.488281 156.269531 10.488281 143.429688 L 10.488281 88.238281 C 10.488281 65.828125 28.710938 45.867188 58.144531 31.695312 C 86.464844 18.089844 125.453125 9.664062 168.386719 9.664062 C 211.320312 9.664062 250.308594 18.089844 278.621094 31.707031 C 308.066406 45.867188 326.277344 65.835938 326.277344 88.246094 L 326.277344 107.335938 C 338.671875 114.019531 348.714844 121.816406 355.777344 130.402344 C 363.410156 139.679688 367.605469 149.875 367.605469 160.625 Z M 326.277344 119.003906 L 326.277344 131.589844 C 331.339844 135.476562 335.402344 139.679688 338.285156 144.136719 C 341.679688 149.347656 343.480469 154.882812 343.480469 160.632812 C 343.480469 177.214844 328.472656 191.847656 304.109375 202.203125 C 281.113281 211.96875 249.371094 218.199219 214.195312 218.683594 C 213.972656 218.71875 213.742188 218.746094 213.507812 218.78125 C 213.082031 218.84375 212.652344 218.90625 212.222656 218.96875 C 210.4375 219.21875 208.632812 219.460938 206.824219 219.683594 C 206.6875 219.699219 206.554688 219.71875 206.421875 219.738281 C 206.410156 219.738281 206.402344 219.738281 206.394531 219.738281 C 206.367188 219.738281 206.339844 219.746094 206.304688 219.746094 C 206.074219 219.773438 205.832031 219.800781 205.597656 219.824219 C 203.992188 220.011719 202.386719 220.191406 200.761719 220.363281 C 200.492188 220.386719 200.222656 220.414062 199.957031 220.441406 C 198.109375 220.628906 196.25 220.789062 194.386719 220.941406 C 194.207031 220.960938 194.027344 220.976562 193.851562 220.988281 C 193.574219 221.003906 193.289062 221.03125 193.011719 221.050781 C 192.394531 221.09375 191.789062 221.136719 191.171875 221.183594 C 190.886719 221.199219 190.601562 221.21875 190.316406 221.238281 C 183.144531 221.726562 175.824219 221.988281 168.386719 221.988281 C 161.003906 221.988281 153.738281 221.726562 146.621094 221.246094 C 146.253906 221.21875 145.878906 221.199219 145.523438 221.175781 C 144.960938 221.136719 144.398438 221.09375 143.835938 221.050781 C 143.53125 221.023438 143.21875 221.003906 142.917969 220.976562 L 141.542969 220.863281 C 141.203125 220.835938 140.855469 220.808594 140.515625 220.773438 L 139.84375 220.71875 C 140.015625 220.761719 140.175781 220.808594 140.34375 220.84375 C 141.871094 221.226562 143.40625 221.601562 144.96875 221.960938 C 144.96875 221.960938 144.980469 221.960938 144.980469 221.960938 C 146.039062 222.199219 147.121094 222.441406 148.191406 222.675781 C 148.335938 222.699219 148.46875 222.726562 148.601562 222.761719 C 156.316406 224.414062 164.386719 225.761719 172.734375 226.78125 C 172.789062 226.789062 172.832031 226.789062 172.886719 226.796875 C 184.664062 228.21875 196.992188 228.984375 209.714844 228.984375 C 222.382812 228.984375 234.675781 228.234375 246.417969 226.816406 C 246.535156 226.796875 246.640625 226.789062 246.757812 226.78125 C 251.695312 226.183594 256.542969 225.46875 261.265625 224.636719 C 264.488281 224.074219 267.65625 223.449219 270.765625 222.789062 C 270.960938 222.738281 271.15625 222.691406 271.363281 222.664062 C 271.371094 222.664062 271.390625 222.65625 271.398438 222.65625 C 274.710938 221.941406 277.960938 221.164062 281.136719 220.335938 C 285.941406 219.085938 290.574219 217.710938 295.039062 216.21875 C 295.296875 216.101562 295.574219 216.015625 295.859375 215.941406 C 302.90625 213.558594 309.492188 210.898438 315.554688 207.988281 C 316.839844 207.371094 318.089844 206.738281 319.324219 206.105469 C 319.574219 205.941406 319.839844 205.808594 320.117188 205.691406 C 329.269531 200.882812 337.007812 195.496094 343.027344 189.695312 C 343.269531 189.398438 343.542969 189.132812 343.839844 188.890625 C 352.527344 180.222656 357.390625 170.632812 357.390625 160.617188 C 357.390625 152.304688 354.027344 144.269531 347.917969 136.839844 C 342.625 130.402344 335.285156 124.394531 326.277344 119.003906 Z M 311.296875 122.019531 C 311.128906 122.207031 310.949219 122.386719 310.777344 122.574219 L 310.777344 161.347656 C 311.082031 160.855469 311.367188 160.355469 311.636719 159.855469 C 311.816406 159.527344 311.984375 159.195312 312.152344 158.867188 C 312.261719 158.652344 312.378906 158.445312 312.476562 158.230469 C 312.691406 157.792969 312.894531 157.367188 313.082031 156.929688 C 313.128906 156.839844 313.164062 156.75 313.207031 156.660156 C 313.414062 156.195312 313.601562 155.722656 313.789062 155.257812 C 313.816406 155.179688 313.851562 155.109375 313.878906 155.027344 C 314.054688 154.5625 314.226562 154.089844 314.378906 153.617188 C 314.402344 153.527344 314.441406 153.4375 314.464844 153.339844 C 314.617188 152.882812 314.753906 152.429688 314.878906 151.972656 C 314.914062 151.847656 314.941406 151.734375 314.976562 151.609375 C 315.089844 151.179688 315.199219 150.75 315.296875 150.320312 C 315.332031 150.160156 315.367188 149.992188 315.394531 149.832031 C 315.476562 149.4375 315.554688 149.046875 315.625 148.644531 C 315.664062 148.421875 315.6875 148.207031 315.726562 147.984375 C 315.777344 147.636719 315.832031 147.285156 315.867188 146.9375 C 315.902344 146.636719 315.921875 146.339844 315.949219 146.035156 C 315.976562 145.761719 316 145.484375 316.019531 145.199219 C 316.046875 144.679688 316.0625 144.160156 316.0625 143.644531 C 316.0625 143.574219 316.074219 143.511719 316.074219 143.4375 L 316.074219 116.414062 C 315.964844 116.558594 315.851562 116.699219 315.734375 116.84375 C 315.386719 117.296875 315.027344 117.753906 314.652344 118.207031 C 314.484375 118.421875 314.304688 118.628906 314.128906 118.84375 C 313.769531 119.269531 313.402344 119.707031 313.019531 120.128906 C 312.832031 120.34375 312.636719 120.566406 312.441406 120.78125 C 312.074219 121.191406 311.691406 121.609375 311.296875 122.019531 Z M 199.644531 210.238281 C 200.011719 210.203125 200.367188 210.15625 200.722656 210.121094 L 200.722656 165.1875 C 195.886719 165.679688 190.957031 166.070312 185.957031 166.339844 L 185.957031 211.308594 C 187.617188 211.21875 189.277344 211.113281 190.929688 210.996094 C 191.191406 210.976562 191.457031 210.960938 191.714844 210.933594 C 192.359375 210.890625 193 210.835938 193.644531 210.78125 C 195.449219 210.640625 197.234375 210.476562 199.011719 210.300781 C 199.226562 210.28125 199.429688 210.253906 199.644531 210.238281 Z M 145.648438 210.988281 C 147.351562 211.113281 149.078125 211.21875 150.800781 211.316406 L 150.800781 166.347656 C 145.808594 166.078125 140.878906 165.6875 136.042969 165.195312 L 136.042969 210.128906 C 136.335938 210.15625 136.632812 210.203125 136.925781 210.230469 C 137.230469 210.253906 137.53125 210.292969 137.835938 210.328125 C 139.542969 210.496094 141.265625 210.648438 142.996094 210.789062 C 143.78125 210.851562 144.558594 210.914062 145.34375 210.976562 C 145.441406 210.96875 145.550781 210.976562 145.648438 210.988281 Z M 277.21875 231.789062 L 277.21875 276.519531 C 282.316406 275.285156 287.246094 273.910156 291.976562 272.410156 L 291.976562 227.859375 C 287.21875 229.296875 282.300781 230.609375 277.21875 231.789062 Z M 302.171875 224.53125 L 302.171875 268.902344 C 306.878906 267.125 311.339844 265.222656 315.554688 263.199219 C 316.019531 262.976562 316.476562 262.742188 316.929688 262.519531 L 316.929688 218.574219 C 312.277344 220.699219 307.351562 222.691406 302.171875 224.53125 Z M 267.015625 233.941406 C 262.203125 234.859375 257.273438 235.671875 252.246094 236.359375 L 252.246094 281.257812 C 257.28125 280.542969 262.210938 279.714844 267.015625 278.757812 Z M 242.050781 282.519531 L 242.050781 237.582031 C 237.214844 238.074219 232.285156 238.46875 227.292969 238.734375 L 227.292969 283.707031 C 232.292969 283.417969 237.214844 283.027344 242.050781 282.519531 Z M 209.707031 239.207031 C 207.234375 239.207031 204.769531 239.171875 202.324219 239.121094 L 202.324219 284.070312 C 204.296875 284.125 206.269531 284.160156 208.242188 284.1875 C 208.734375 284.1875 209.214844 284.195312 209.707031 284.195312 C 212.179688 284.195312 214.644531 284.167969 217.089844 284.105469 L 217.089844 239.128906 C 214.644531 239.183594 212.1875 239.207031 209.707031 239.207031 Z M 287.046875 140.386719 C 286.636719 140.617188 286.226562 140.839844 285.808594 141.074219 L 285.808594 184.507812 C 287.824219 183.273438 289.773438 182.015625 291.601562 180.730469 C 294.90625 178.410156 297.894531 176 300.574219 173.515625 L 300.574219 131.566406 C 300.539062 131.589844 300.503906 131.617188 300.476562 131.636719 C 300.289062 131.777344 300.09375 131.914062 299.90625 132.054688 C 299.34375 132.476562 298.769531 132.902344 298.183594 133.3125 C 297.914062 133.511719 297.636719 133.699219 297.359375 133.894531 C 296.851562 134.25 296.332031 134.617188 295.808594 134.964844 C 295.496094 135.179688 295.171875 135.386719 294.859375 135.601562 C 294.359375 135.929688 293.859375 136.261719 293.34375 136.589844 C 293.003906 136.804688 292.664062 137.027344 292.316406 137.242188 C 291.816406 137.554688 291.308594 137.867188 290.789062 138.179688 C 290.433594 138.394531 290.074219 138.609375 289.710938 138.832031 C 289.191406 139.144531 288.664062 139.449219 288.136719 139.75 C 287.78125 139.976562 287.421875 140.179688 287.046875 140.386719 Z M 275.613281 146.1875 C 270.953125 148.3125 266.023438 150.304688 260.84375 152.144531 L 260.84375 196.496094 C 262.863281 195.730469 264.863281 194.933594 266.84375 194.105469 C 269.878906 192.828125 272.808594 191.496094 275.601562 190.113281 L 275.601562 146.1875 Z M 250.648438 155.472656 C 245.890625 156.902344 240.960938 158.214844 235.882812 159.402344 L 235.882812 204.121094 C 238.015625 203.605469 240.140625 203.058594 242.257812 202.480469 L 242.550781 202.417969 C 242.667969 202.390625 242.785156 202.355469 242.890625 202.328125 C 244.625 201.84375 246.347656 201.355469 248.042969 200.835938 C 248.246094 200.773438 248.460938 200.710938 248.667969 200.648438 C 249.335938 200.445312 249.980469 200.230469 250.640625 200.015625 L 250.640625 155.472656 Z M 225.6875 161.554688 C 220.875 162.472656 215.957031 163.285156 210.921875 163.972656 L 210.921875 208.871094 C 211.394531 208.800781 211.875 208.738281 212.347656 208.667969 C 212.796875 208.605469 213.234375 208.53125 213.671875 208.46875 C 214.339844 208.371094 215.007812 208.265625 215.667969 208.15625 C 216.125 208.085938 216.589844 208.015625 217.035156 207.933594 C 217.394531 207.871094 217.75 207.808594 218.117188 207.753906 C 220.660156 207.328125 223.179688 206.855469 225.679688 206.355469 L 225.679688 161.554688 Z M 175.761719 211.710938 L 175.761719 166.730469 C 173.316406 166.785156 170.859375 166.820312 168.378906 166.820312 C 165.90625 166.820312 163.441406 166.792969 160.996094 166.730469 L 160.996094 211.710938 C 163.441406 211.765625 165.90625 211.800781 168.378906 211.800781 C 170.859375 211.800781 173.316406 211.773438 175.761719 211.710938 Z M 152.398438 278.527344 C 157.246094 279.492188 162.171875 280.339844 167.164062 281.0625 L 167.164062 236.371094 C 162.136719 235.683594 157.210938 234.871094 152.398438 233.949219 Z M 177.359375 237.574219 L 177.359375 282.347656 C 182.242188 282.882812 187.171875 283.304688 192.128906 283.605469 L 192.128906 238.734375 C 187.128906 238.457031 182.207031 238.066406 177.359375 237.574219 Z M 67.207031 233.523438 L 67.316406 233.691406 L 67.316406 204.042969 C 67.039062 203.925781 66.753906 203.816406 66.476562 203.703125 C 65.796875 203.425781 65.136719 203.121094 64.464844 202.828125 C 64.039062 202.640625 63.609375 202.460938 63.179688 202.273438 C 62.796875 202.105469 62.394531 201.945312 62.011719 201.765625 L 62.011719 215.808594 C 62.011719 216.933594 62.074219 218.050781 62.199219 219.164062 C 62.234375 219.433594 62.269531 219.699219 62.304688 219.96875 C 62.332031 220.183594 62.359375 220.398438 62.394531 220.601562 C 62.441406 220.871094 62.484375 221.128906 62.527344 221.398438 C 62.601562 221.78125 62.664062 222.164062 62.753906 222.550781 C 62.957031 223.386719 63.171875 224.175781 63.394531 224.925781 C 63.554688 225.433594 63.714844 225.941406 63.886719 226.460938 C 64.214844 227.414062 64.582031 228.324219 64.992188 229.246094 C 65.164062 229.601562 65.332031 229.96875 65.503906 230.316406 C 65.511719 230.324219 65.511719 230.34375 65.519531 230.351562 C 65.589844 230.503906 65.671875 230.65625 65.742188 230.808594 C 66.117188 231.558594 66.527344 232.324219 66.992188 233.136719 C 67.066406 233.273438 67.136719 233.398438 67.207031 233.523438 Z M 100.875 159.402344 C 95.792969 158.222656 90.875 156.902344 86.109375 155.472656 L 86.109375 200.015625 L 87.269531 200.390625 L 92.105469 201.820312 C 92.144531 201.828125 92.167969 201.84375 92.195312 201.855469 C 92.464844 201.925781 92.722656 202.007812 92.992188 202.078125 C 93.894531 202.328125 94.785156 202.570312 95.660156 202.800781 C 95.769531 202.828125 95.875 202.855469 95.972656 202.878906 C 96.492188 203.015625 97 203.148438 97.507812 203.28125 C 98.242188 203.46875 98.972656 203.65625 99.714844 203.835938 C 100.097656 203.933594 100.492188 204.023438 100.882812 204.113281 L 100.882812 159.402344 Z M 82.109375 249.859375 C 82.671875 250.304688 83.234375 250.753906 83.804688 251.191406 C 84.027344 251.316406 84.214844 251.464844 84.394531 251.628906 L 86.910156 253.429688 C 87.847656 254.082031 88.867188 254.761719 89.964844 255.464844 L 92.152344 256.832031 C 92.1875 256.859375 92.230469 256.875 92.269531 256.902344 L 92.269531 213.460938 C 91.917969 213.265625 91.5625 213.078125 91.214844 212.878906 C 90.734375 212.613281 90.257812 212.335938 89.785156 212.058594 C 89.429688 211.851562 89.0625 211.648438 88.714844 211.441406 L 84.277344 210.101562 C 82.761719 209.628906 81.214844 209.128906 79.652344 208.613281 C 79.4375 208.550781 79.222656 208.488281 79.027344 208.398438 C 78.8125 208.328125 78.609375 208.253906 78.394531 208.183594 C 78.207031 208.121094 78.019531 208.050781 77.824219 207.988281 C 77.714844 207.953125 77.609375 207.917969 77.511719 207.878906 L 77.511719 245.769531 C 78.832031 247.082031 80.304688 248.40625 82.109375 249.859375 Z M 117.238281 268.699219 L 117.238281 224.53125 C 117.035156 224.460938 116.820312 224.386719 116.613281 224.308594 C 116.050781 224.101562 115.5 223.898438 114.9375 223.691406 C 114.347656 223.46875 113.75 223.253906 113.160156 223.03125 C 112.605469 222.816406 112.070312 222.601562 111.515625 222.386719 C 110.9375 222.164062 110.355469 221.933594 109.785156 221.710938 C 109.25 221.496094 108.714844 221.273438 108.1875 221.050781 C 107.613281 220.816406 107.050781 220.585938 106.492188 220.34375 C 105.964844 220.121094 105.445312 219.886719 104.929688 219.664062 C 104.375 219.425781 103.8125 219.183594 103.265625 218.933594 C 103 218.816406 102.742188 218.691406 102.472656 218.566406 L 102.472656 262.386719 C 107.160156 264.660156 112.089844 266.769531 117.238281 268.699219 Z M 125.835938 208.871094 L 125.835938 163.972656 C 120.8125 163.285156 115.882812 162.472656 111.070312 161.554688 L 111.070312 206.355469 C 111.667969 206.46875 112.265625 206.605469 112.863281 206.71875 C 112.9375 206.738281 113.007812 206.746094 113.078125 206.765625 C 114.882812 207.113281 116.703125 207.433594 118.535156 207.738281 C 118.972656 207.808594 119.398438 207.890625 119.835938 207.960938 C 120.203125 208.023438 120.570312 208.078125 120.9375 208.140625 C 121.695312 208.253906 122.445312 208.378906 123.203125 208.496094 C 123.558594 208.550781 123.917969 208.605469 124.273438 208.65625 C 124.800781 208.730469 125.320312 208.800781 125.835938 208.871094 Z M 61.144531 146.179688 L 61.144531 190.113281 C 61.289062 190.183594 61.429688 190.257812 61.574219 190.328125 C 61.804688 190.445312 62.027344 190.550781 62.261719 190.667969 C 64.824219 191.898438 67.527344 193.113281 70.375 194.300781 C 72.1875 195.058594 74.046875 195.78125 75.910156 196.488281 L 75.910156 152.132812 C 70.742188 150.296875 65.804688 148.304688 61.144531 146.179688 Z M 138.78125 230.976562 C 138.246094 230.84375 137.71875 230.710938 137.195312 230.566406 C 136.433594 230.371094 135.675781 230.183594 134.925781 229.984375 C 134.328125 229.824219 133.738281 229.664062 133.148438 229.503906 C 132.480469 229.316406 131.800781 229.136719 131.132812 228.949219 C 130.523438 228.78125 129.925781 228.601562 129.328125 228.421875 C 128.695312 228.234375 128.058594 228.058594 127.433594 227.871094 L 127.433594 272.1875 C 132.21875 273.6875 137.148438 275.054688 142.203125 276.269531 L 142.203125 231.789062 C 141.058594 231.523438 139.917969 231.253906 138.78125 230.976562 Z M 277.851562 200.355469 C 285.976562 198.203125 293.449219 195.683594 300.128906 192.847656 C 320.652344 184.125 333.285156 172.730469 333.285156 160.644531 C 333.285156 156.902344 332.0625 153.214844 329.761719 149.679688 C 328.777344 148.160156 327.597656 146.671875 326.242188 145.207031 C 326.242188 145.25 326.234375 145.304688 326.234375 145.347656 C 326.222656 145.472656 326.222656 145.597656 326.214844 145.722656 C 326.207031 145.929688 326.179688 146.125 326.171875 146.332031 C 326.160156 146.519531 326.144531 146.707031 326.125 146.894531 C 326.109375 147.082031 326.097656 147.269531 326.082031 147.457031 C 326.0625 147.652344 326.035156 147.839844 326.019531 148.035156 C 325.992188 148.242188 325.964844 148.4375 325.9375 148.644531 C 325.867188 149.234375 325.777344 149.8125 325.679688 150.394531 C 325.652344 150.554688 325.625 150.714844 325.589844 150.875 C 325.464844 151.535156 325.332031 152.1875 325.179688 152.847656 C 325.160156 152.929688 325.144531 153 325.125 153.082031 C 324.207031 156.9375 322.742188 160.695312 320.769531 164.347656 C 320.714844 164.453125 320.652344 164.5625 320.589844 164.667969 C 320.277344 165.242188 319.949219 165.8125 319.609375 166.382812 C 319.492188 166.578125 319.375 166.777344 319.261719 166.964844 C 318.976562 167.417969 318.6875 167.875 318.386719 168.328125 C 318.207031 168.597656 318.039062 168.875 317.851562 169.140625 C 317.636719 169.453125 317.402344 169.777344 317.179688 170.089844 C 314.957031 173.230469 312.359375 176.277344 309.402344 179.195312 C 309.289062 179.320312 309.171875 179.4375 309.046875 179.542969 C 305.617188 182.882812 301.742188 186.078125 297.457031 189.078125 C 293.082031 192.148438 288.296875 195.042969 283.15625 197.71875 C 283.148438 197.730469 283.136719 197.730469 283.121094 197.738281 C 283.101562 197.746094 283.085938 197.757812 283.058594 197.773438 C 282.121094 198.265625 281.175781 198.746094 280.210938 199.21875 C 280.03125 199.308594 279.851562 199.398438 279.675781 199.480469 C 279.074219 199.757812 278.46875 200.058594 277.851562 200.355469 Z M 36.183594 173.570312 C 40.359375 177.4375 45.316406 181.105469 50.949219 184.535156 L 50.949219 141.074219 C 50.53125 140.839844 50.121094 140.617188 49.707031 140.386719 C 49.351562 140.179688 49.003906 139.984375 48.644531 139.777344 C 48.101562 139.464844 47.566406 139.152344 47.03125 138.839844 C 46.683594 138.636719 46.34375 138.429688 45.996094 138.214844 C 45.457031 137.894531 44.933594 137.5625 44.414062 137.242188 C 44.09375 137.039062 43.761719 136.832031 43.441406 136.625 C 42.90625 136.289062 42.378906 135.9375 41.859375 135.589844 C 41.566406 135.394531 41.273438 135.199219 40.976562 135 C 40.421875 134.625 39.878906 134.25 39.34375 133.867188 C 39.09375 133.699219 38.84375 133.519531 38.601562 133.351562 C 37.976562 132.902344 37.371094 132.457031 36.761719 132.003906 C 36.613281 131.886719 36.460938 131.777344 36.308594 131.664062 C 36.273438 131.636719 36.226562 131.601562 36.183594 131.574219 Z M 53.011719 318.355469 C 57.191406 322.21875 62.144531 325.890625 67.769531 329.316406 L 67.769531 285.847656 C 67.367188 285.625 66.964844 285.402344 66.566406 285.179688 C 66.171875 284.957031 65.789062 284.730469 65.402344 284.507812 C 64.894531 284.214844 64.394531 283.929688 63.894531 283.625 C 63.519531 283.402344 63.144531 283.179688 62.777344 282.957031 C 62.277344 282.652344 61.777344 282.347656 61.289062 282.035156 C 60.929688 281.8125 60.582031 281.589844 60.234375 281.367188 C 59.734375 281.042969 59.234375 280.714844 58.742188 280.394531 C 58.421875 280.179688 58.09375 279.964844 57.78125 279.75 C 57.261719 279.402344 56.753906 279.046875 56.242188 278.6875 C 55.96875 278.492188 55.679688 278.296875 55.40625 278.097656 C 54.824219 277.6875 54.261719 277.269531 53.699219 276.847656 C 53.503906 276.707031 53.304688 276.5625 53.117188 276.421875 C 53.082031 276.394531 53.046875 276.367188 53.019531 276.347656 L 53.019531 318.355469 Z M 102.929688 300.25 L 102.929688 344.800781 C 107.667969 346.300781 112.597656 347.664062 117.695312 348.90625 L 117.695312 304.175781 C 112.613281 303 107.695312 301.6875 102.929688 300.25 Z M 127.898438 351.148438 C 132.695312 352.101562 137.621094 352.933594 142.667969 353.648438 L 142.667969 308.75 C 137.640625 308.0625 132.710938 307.25 127.898438 306.328125 Z M 152.863281 354.90625 C 157.699219 355.414062 162.621094 355.808594 167.628906 356.09375 L 167.628906 311.125 C 162.636719 310.855469 157.710938 310.460938 152.863281 309.972656 Z M 202.785156 311.113281 L 202.785156 356.085938 C 207.785156 355.808594 212.714844 355.40625 217.542969 354.898438 L 217.542969 309.960938 C 212.707031 310.460938 207.777344 310.847656 202.785156 311.113281 Z M 227.75 353.648438 C 232.785156 352.933594 237.714844 352.101562 242.515625 351.148438 L 242.515625 306.328125 C 237.703125 307.25 232.785156 308.0625 227.75 308.75 Z M 252.710938 348.90625 C 257.808594 347.675781 262.738281 346.300781 267.46875 344.800781 L 267.46875 300.265625 C 267.390625 300.292969 267.316406 300.3125 267.246094 300.339844 C 262.558594 301.738281 257.710938 303.015625 252.710938 304.175781 Z M 302.636719 285.847656 L 302.636719 329.316406 C 308.261719 325.890625 313.214844 322.21875 317.402344 318.355469 L 317.402344 276.359375 C 317.386719 276.375 317.359375 276.394531 317.332031 276.410156 C 316.796875 276.8125 316.242188 277.214844 315.699219 277.609375 C 315.234375 277.945312 314.777344 278.285156 314.304688 278.617188 C 313.707031 279.035156 313.089844 279.445312 312.484375 279.859375 C 312.027344 280.160156 311.589844 280.464844 311.136719 280.769531 C 310.476562 281.195312 309.789062 281.625 309.109375 282.054688 C 308.671875 282.320312 308.253906 282.597656 307.816406 282.867188 C 307.082031 283.3125 306.332031 283.75 305.582031 284.1875 C 305.171875 284.429688 304.769531 284.667969 304.351562 284.910156 C 303.78125 285.222656 303.207031 285.535156 302.636719 285.847656 Z M 335.152344 251.546875 C 337.582031 249.734375 339.839844 247.878906 341.910156 245.96875 L 341.910156 203.96875 C 341.875 203.996094 341.832031 204.023438 341.792969 204.058594 C 341.644531 204.175781 341.480469 204.292969 341.332031 204.40625 C 340.730469 204.855469 340.125 205.308594 339.5 205.746094 C 339.25 205.925781 339 206.09375 338.75 206.273438 C 338.214844 206.648438 337.671875 207.03125 337.117188 207.40625 C 336.820312 207.605469 336.527344 207.800781 336.234375 207.996094 C 335.707031 208.34375 335.1875 208.683594 334.652344 209.03125 C 334.332031 209.238281 334.007812 209.441406 333.679688 209.648438 C 333.152344 209.980469 332.625 210.300781 332.089844 210.628906 C 331.75 210.835938 331.410156 211.039062 331.074219 211.246094 C 330.535156 211.566406 329.984375 211.878906 329.4375 212.203125 C 329.089844 212.398438 328.75 212.601562 328.402344 212.800781 C 327.984375 213.03125 327.5625 213.265625 327.144531 213.496094 L 327.144531 256.804688 C 329.742188 255.269531 332.3125 253.671875 334.992188 251.671875 C 335.046875 251.601562 335.097656 251.582031 335.152344 251.546875 Z M 20.683594 88.238281 C 20.683594 93.78125 22.183594 99.199219 24.988281 104.398438 C 27.246094 108.585938 30.351562 112.628906 34.226562 116.496094 C 34.53125 116.734375 34.808594 117.011719 35.058594 117.316406 C 41.074219 123.117188 48.808594 128.503906 57.957031 133.3125 C 58.234375 133.429688 58.503906 133.5625 58.753906 133.726562 C 59.992188 134.367188 61.242188 135 62.527344 135.617188 C 68.601562 138.539062 75.207031 141.207031 82.261719 143.589844 C 82.519531 143.652344 82.777344 143.742188 83.019531 143.839844 C 90.457031 146.324219 98.394531 148.492188 106.75 150.296875 C 106.9375 150.320312 107.125 150.367188 107.300781 150.410156 C 115 152.0625 123.050781 153.402344 131.382812 154.421875 C 131.453125 154.429688 131.523438 154.4375 131.59375 154.445312 C 143.355469 155.867188 155.675781 156.625 168.378906 156.625 C 181.074219 156.625 193.386719 155.867188 205.144531 154.457031 C 205.222656 154.445312 205.304688 154.4375 205.386719 154.429688 C 213.722656 153.421875 221.777344 152.070312 229.480469 150.421875 C 229.652344 150.375 229.820312 150.339844 229.992188 150.3125 C 238.347656 148.5 246.285156 146.339844 253.730469 143.859375 C 253.980469 143.75 254.230469 143.671875 254.496094 143.597656 C 261.550781 141.214844 268.15625 138.546875 274.226562 135.625 C 275.515625 135.011719 276.773438 134.375 278.011719 133.734375 C 278.253906 133.582031 278.511719 133.449219 278.78125 133.339844 C 287.941406 128.527344 295.683594 123.144531 301.699219 117.332031 C 301.941406 117.03125 302.21875 116.761719 302.519531 116.53125 C 307.386719 111.664062 311.054688 106.523438 313.339844 101.164062 C 315.128906 96.96875 316.074219 92.65625 316.074219 88.253906 C 316.074219 70.085938 300.082031 53.3125 274.226562 40.875 C 247.246094 27.902344 209.820312 19.875 168.378906 19.875 C 126.925781 19.875 89.507812 27.902344 62.527344 40.875 C 36.683594 53.292969 20.683594 70.070312 20.683594 88.238281 Z M 20.683594 143.429688 C 20.683594 149.597656 22.53125 155.609375 25.976562 161.339844 L 25.976562 122.566406 C 25.808594 122.386719 25.648438 122.21875 25.476562 122.039062 C 25.078125 121.609375 24.675781 121.179688 24.289062 120.742188 C 24.101562 120.539062 23.914062 120.332031 23.738281 120.117188 C 23.351562 119.679688 22.976562 119.242188 22.613281 118.804688 C 22.441406 118.601562 22.273438 118.394531 22.101562 118.199219 C 21.726562 117.742188 21.371094 117.28125 21.015625 116.816406 C 20.90625 116.671875 20.792969 116.539062 20.683594 116.394531 Z M 42.859375 215.015625 C 39.378906 220.746094 37.511719 226.789062 37.511719 233.023438 C 37.511719 236.046875 37.96875 239.039062 38.824219 241.976562 C 43.128906 256.664062 57.816406 270.035156 79.359375 280.402344 C 106.339844 293.375 143.753906 301.402344 185.207031 301.402344 C 214.296875 301.402344 241.410156 297.4375 264.335938 290.578125 C 264.96875 290.390625 265.585938 290.195312 266.210938 290 C 266.917969 289.777344 267.628906 289.5625 268.335938 289.339844 C 268.996094 289.125 269.648438 288.902344 270.308594 288.6875 C 270.835938 288.507812 271.371094 288.339844 271.898438 288.160156 C 268.023438 288.992188 264.273438 289.6875 260.585938 290.277344 C 256.425781 290.972656 252.183594 291.578125 247.871094 292.105469 C 247.773438 292.125 247.675781 292.132812 247.578125 292.140625 C 236.675781 293.464844 225.339844 294.222656 213.679688 294.367188 C 213.671875 294.367188 213.671875 294.367188 213.660156 294.367188 C 212.347656 294.382812 211.035156 294.390625 209.714844 294.390625 C 196.671875 294.390625 183.984375 293.605469 171.859375 292.140625 C 171.753906 292.132812 171.644531 292.117188 171.539062 292.105469 C 166.136719 291.445312 160.84375 290.652344 155.683594 289.730469 C 126.246094 286.9375 100.507812 280.027344 82.160156 270.535156 C 62.929688 260.582031 51.441406 247.574219 51.441406 233.023438 C 51.441406 231.386719 51.601562 229.699219 51.921875 227.984375 L 51.921875 227.96875 C 52.128906 226.835938 52.421875 225.699219 52.769531 224.585938 C 52.476562 223.246094 52.253906 221.898438 52.101562 220.53125 C 52.101562 220.503906 52.09375 220.46875 52.09375 220.441406 C 52.09375 220.433594 52.09375 220.414062 52.09375 220.40625 C 51.921875 218.898438 51.832031 217.371094 51.824219 215.84375 C 51.824219 215.835938 51.824219 215.828125 51.824219 215.816406 L 51.824219 204.023438 C 48.171875 207.542969 45.164062 211.21875 42.859375 215.015625 Z M 37.511719 288.203125 C 37.511719 294.375 39.359375 300.382812 42.808594 306.125 L 42.808594 267.347656 C 42.628906 267.171875 42.460938 266.984375 42.289062 266.796875 C 41.898438 266.386719 41.511719 265.964844 41.136719 265.546875 C 40.941406 265.324219 40.746094 265.109375 40.546875 264.886719 C 40.171875 264.464844 39.816406 264.039062 39.460938 263.609375 C 39.28125 263.394531 39.09375 263.171875 38.914062 262.957031 C 38.558594 262.519531 38.210938 262.074219 37.859375 261.625 C 37.746094 261.476562 37.621094 261.324219 37.503906 261.171875 L 37.503906 288.203125 Z M 79.347656 335.578125 C 83.5625 337.601562 88.027344 339.503906 92.730469 341.28125 L 92.730469 296.910156 C 87.5625 295.070312 82.625 293.078125 77.964844 290.953125 L 77.964844 334.890625 C 78.429688 335.128906 78.886719 335.351562 79.347656 335.578125 Z M 192.589844 356.496094 L 192.589844 311.507812 C 190.144531 311.558594 187.691406 311.597656 185.207031 311.597656 C 182.734375 311.597656 180.269531 311.570312 177.824219 311.507812 L 177.824219 356.484375 C 180.269531 356.539062 182.734375 356.574219 185.207031 356.574219 C 187.679688 356.585938 190.144531 356.546875 192.589844 356.496094 Z M 291.058594 335.578125 C 291.523438 335.351562 291.976562 335.121094 292.433594 334.898438 L 292.433594 290.964844 C 291.523438 291.382812 290.59375 291.792969 289.65625 292.195312 C 289.476562 292.277344 289.296875 292.355469 289.121094 292.4375 C 287.808594 293.007812 286.46875 293.5625 285.121094 294.105469 C 285.085938 294.125 285.039062 294.140625 285.003906 294.152344 C 282.621094 295.105469 280.175781 296.027344 277.675781 296.917969 L 277.675781 341.28125 C 282.371094 339.515625 286.84375 337.601562 291.058594 335.578125 Z M 332.902344 265.324219 C 331.25 266.386719 329.410156 267.4375 327.597656 268.421875 L 327.597656 306.125 C 331.054688 300.390625 332.902344 294.375 332.902344 288.203125 Z M 357.105469 189.167969 C 356.738281 189.648438 356.355469 190.132812 355.972656 190.605469 C 355.8125 190.800781 355.652344 190.988281 355.488281 191.183594 C 355.113281 191.640625 354.730469 192.085938 354.339844 192.535156 C 354.160156 192.730469 353.980469 192.933594 353.804688 193.132812 C 353.410156 193.570312 353.007812 194.007812 352.597656 194.445312 C 352.4375 194.613281 352.265625 194.792969 352.105469 194.960938 L 352.105469 233.734375 C 355.550781 228.003906 357.410156 221.988281 357.410156 215.816406 L 357.410156 188.792969 C 357.3125 188.917969 357.203125 189.042969 357.105469 189.167969 Z M 357.105469 189.167969 " fill-opacity="1" fill-rule="nonzero"/></g></svg>