<svg xmlns="http://www.w3.org/2000/svg" xmlns:xlink="http://www.w3.org/1999/xlink" width="500" zoomAndPan="magnify" viewBox="0 0 375 374.999991" height="500" preserveAspectRatio="xMidYMid meet" version="1.0"><defs><clipPath id="d0c00cd537"><path d="M 3.101562 2.507812 L 375 2.507812 L 375 373.757812 L 3.101562 373.757812 Z M 3.101562 2.507812 " clip-rule="nonzero"/></clipPath><clipPath id="9e9b5a0882"><path d="M 10.488281 9.664062 L 367.488281 9.664062 L 367.488281 366.664062 L 10.488281 366.664062 Z M 10.488281 9.664062 " clip-rule="nonzero"/></clipPath></defs><g clip-path="url(#d0c00cd537)"><path fill="#ffffff" d="M 189.050781 26.683594 C 99.972656 26.683594 27.511719 99.144531 27.511719 188.222656 C 27.511719 277.296875 99.972656 349.769531 189.050781 349.769531 C 278.125 349.769531 350.585938 277.296875 350.585938 188.222656 C 350.585938 99.144531 278.125 26.683594 189.050781 26.683594 Z M 189.050781 373.964844 C 163.980469 373.964844 139.65625 369.058594 116.746094 359.367188 C 94.621094 350.007812 74.761719 336.617188 57.707031 319.566406 C 40.65625 302.507812 27.265625 282.648438 17.902344 260.527344 C 8.222656 237.617188 3.304688 213.289062 3.304688 188.222656 C 3.304688 163.152344 8.222656 138.828125 17.902344 115.917969 C 27.265625 93.796875 40.65625 73.933594 57.707031 56.878906 C 74.761719 39.828125 94.621094 26.4375 116.746094 17.085938 C 139.65625 7.394531 163.980469 2.476562 189.050781 2.476562 C 214.117188 2.476562 238.445312 7.394531 261.355469 17.085938 C 283.476562 26.4375 303.335938 39.828125 320.394531 56.878906 C 337.441406 73.933594 350.835938 93.796875 360.195312 115.917969 C 369.878906 138.828125 374.792969 163.152344 374.792969 188.222656 C 374.792969 213.289062 369.878906 237.617188 360.195312 260.527344 C 350.835938 282.640625 337.441406 302.507812 320.394531 319.566406 C 303.335938 336.617188 283.476562 350.007812 261.355469 359.367188 C 238.445312 369.058594 214.117188 373.964844 189.050781 373.964844 " fill-opacity="1" fill-rule="nonzero"/></g><path fill="#ffffff" d="M 193.742188 72.382812 L 184.359375 72.382812 C 183.601562 72.382812 182.980469 71.761719 182.980469 71.003906 L 182.980469 42.175781 C 182.980469 41.417969 183.601562 40.796875 184.359375 40.796875 L 193.742188 40.796875 C 194.5 40.796875 195.121094 41.417969 195.121094 42.175781 L 195.121094 71.003906 C 195.121094 71.761719 194.5 72.382812 193.742188 72.382812 " fill-opacity="1" fill-rule="nonzero"/><path fill="#ffffff" d="M 193.742188 335.648438 L 184.359375 335.648438 C 183.601562 335.648438 182.980469 335.027344 182.980469 334.269531 L 182.980469 305.441406 C 182.980469 304.683594 183.601562 304.058594 184.359375 304.058594 L 193.742188 304.058594 C 194.5 304.058594 195.121094 304.683594 195.121094 305.441406 L 195.121094 334.269531 C 195.121094 335.027344 194.5 335.648438 193.742188 335.648438 " fill-opacity="1" fill-rule="nonzero"/><path fill="#ffffff" d="M 274.273438 109.628906 L 267.640625 102.996094 C 267.109375 102.457031 267.109375 101.582031 267.640625 101.050781 L 288.027344 80.664062 C 288.566406 80.125 289.441406 80.125 289.980469 80.664062 L 296.605469 87.289062 C 297.148438 87.828125 297.148438 88.707031 296.605469 89.246094 L 276.222656 109.628906 C 275.691406 110.164062 274.8125 110.164062 274.273438 109.628906 " fill-opacity="1" fill-rule="nonzero"/><path fill="#ffffff" d="M 88.117188 295.78125 L 81.484375 289.15625 C 80.953125 288.613281 80.953125 287.738281 81.484375 287.199219 L 101.871094 266.8125 C 102.410156 266.28125 103.285156 266.28125 103.824219 266.8125 L 110.457031 273.445312 C 110.988281 273.984375 110.988281 274.863281 110.457031 275.394531 L 90.074219 295.78125 C 89.535156 296.320312 88.65625 296.320312 88.117188 295.78125 " fill-opacity="1" fill-rule="nonzero"/><path fill="#ffffff" d="M 304.886719 192.914062 L 304.886719 183.53125 C 304.886719 182.773438 305.511719 182.152344 306.265625 182.152344 L 335.097656 182.152344 C 335.855469 182.152344 336.476562 182.773438 336.476562 183.53125 L 336.476562 192.914062 C 336.476562 193.671875 335.855469 194.292969 335.097656 194.292969 L 306.265625 194.292969 C 305.511719 194.292969 304.886719 193.671875 304.886719 192.914062 " fill-opacity="1" fill-rule="nonzero"/><path fill="#ffffff" d="M 41.625 192.914062 L 41.625 183.53125 C 41.625 182.773438 42.246094 182.152344 43.003906 182.152344 L 71.832031 182.152344 C 72.589844 182.152344 73.210938 182.773438 73.210938 183.53125 L 73.210938 192.914062 C 73.210938 193.671875 72.589844 194.292969 71.832031 194.292969 L 43.003906 194.292969 C 42.246094 194.292969 41.625 193.671875 41.625 192.914062 " fill-opacity="1" fill-rule="nonzero"/><path fill="#ffffff" d="M 267.640625 273.445312 L 274.273438 266.8125 C 274.8125 266.28125 275.691406 266.28125 276.222656 266.8125 L 296.605469 287.199219 C 297.148438 287.738281 297.148438 288.613281 296.605469 289.15625 L 289.980469 295.78125 C 289.441406 296.320312 288.566406 296.320312 288.027344 295.78125 L 267.640625 275.394531 C 267.109375 274.863281 267.109375 273.984375 267.640625 273.445312 " fill-opacity="1" fill-rule="nonzero"/><path fill="#ffffff" d="M 81.484375 87.289062 L 88.117188 80.664062 C 88.65625 80.125 89.535156 80.125 90.074219 80.664062 L 110.457031 101.050781 C 110.988281 101.582031 110.988281 102.457031 110.457031 102.996094 L 103.824219 109.628906 C 103.285156 110.164062 102.410156 110.164062 101.871094 109.628906 L 81.484375 89.246094 C 80.953125 88.707031 80.953125 87.828125 81.484375 87.289062 " fill-opacity="1" fill-rule="nonzero"/><path fill="#ffffff" d="M 255.195312 238.832031 L 204.742188 188.378906 C 204.742188 188.328125 204.75 188.273438 204.75 188.222656 C 204.75 184.714844 203.597656 181.476562 201.65625 178.863281 L 201.65625 107.75 C 201.65625 100.816406 195.980469 95.144531 189.050781 95.144531 C 182.117188 95.144531 176.445312 100.816406 176.445312 107.75 L 176.445312 178.863281 C 174.503906 181.476562 173.347656 184.714844 173.347656 188.222656 C 173.347656 195.011719 177.667969 200.796875 183.707031 202.984375 L 237.371094 256.652344 C 242.273438 261.554688 250.292969 261.554688 255.195312 256.652344 C 260.09375 251.75 260.09375 243.730469 255.195312 238.832031 " fill-opacity="1" fill-rule="nonzero"/><g clip-path="url(#9e9b5a0882)"><path fill="#000000" d="M 168.335938 9.664062 Z M 146.210938 117.144531 C 147.585938 117.699219 149.074219 118.136719 150.683594 118.441406 L 148.726562 123.296875 C 147.683594 125.902344 148.949219 128.863281 151.558594 129.910156 C 154.164062 130.953125 157.125 129.6875 158.171875 127.078125 L 161.097656 119.796875 L 162.125 119.929688 C 167.835938 120.652344 173.726562 119.539062 178.589844 117.164062 C 183.714844 114.675781 187.863281 110.710938 189.800781 105.910156 C 190.316406 104.625 190.65625 103.292969 190.828125 101.972656 L 190.828125 101.957031 C 191.289062 98.277344 190.371094 94.78125 188.328125 91.808594 C 186.425781 89.050781 183.5625 86.785156 179.957031 85.335938 C 178.136719 84.605469 176.101562 84.078125 173.886719 83.792969 L 164.042969 82.554688 C 162.75 82.390625 161.554688 82.078125 160.480469 81.652344 C 158.777344 80.964844 157.472656 79.984375 156.699219 78.847656 C 156.0625 77.921875 155.769531 76.839844 155.914062 75.734375 L 155.929688 75.714844 C 155.984375 75.253906 156.109375 74.78125 156.296875 74.304688 C 157.242188 71.949219 159.5625 69.871094 162.527344 68.425781 C 165.746094 66.863281 169.578125 66.121094 173.253906 66.578125 L 177.894531 67.167969 C 178.082031 67.203125 178.261719 67.21875 178.449219 67.238281 L 183.097656 67.828125 C 184.390625 67.988281 185.585938 68.300781 186.660156 68.726562 C 188.363281 69.414062 189.65625 70.398438 190.441406 71.53125 C 191.078125 72.449219 191.371094 73.53125 191.226562 74.644531 C 191.175781 75.082031 191.039062 75.566406 190.835938 76.074219 C 189.792969 78.679688 191.058594 81.644531 193.664062 82.6875 C 196.269531 83.730469 199.234375 82.464844 200.277344 79.859375 C 200.796875 78.5625 201.136719 77.242188 201.304688 75.921875 L 201.304688 75.902344 C 201.769531 72.226562 200.847656 68.726562 198.804688 65.765625 C 196.90625 63.007812 194.039062 60.742188 190.433594 59.292969 C 189.058594 58.742188 187.570312 58.304688 185.960938 58 L 187.917969 53.136719 C 188.960938 50.53125 187.695312 47.566406 185.089844 46.523438 C 182.480469 45.480469 179.519531 46.746094 178.472656 49.351562 L 175.539062 56.636719 L 174.484375 56.5 C 168.78125 55.785156 162.910156 56.894531 158.035156 59.269531 C 152.914062 61.765625 148.761719 65.71875 146.828125 70.523438 C 146.289062 71.851562 145.941406 73.183594 145.800781 74.484375 C 145.335938 78.171875 146.265625 81.660156 148.300781 84.632812 C 150.199219 87.390625 153.074219 89.65625 156.671875 91.101562 C 158.492188 91.835938 160.527344 92.363281 162.738281 92.636719 L 172.585938 93.878906 C 173.878906 94.039062 175.074219 94.351562 176.144531 94.78125 C 177.851562 95.46875 179.144531 96.449219 179.929688 97.582031 C 180.5625 98.503906 180.859375 99.582031 180.714844 100.699219 C 180.660156 101.136719 180.527344 101.617188 180.320312 102.125 C 179.375 104.480469 177.054688 106.5625 174.09375 108.007812 C 170.871094 109.578125 167.03125 110.320312 163.363281 109.855469 L 158.734375 109.273438 C 158.535156 109.238281 158.347656 109.210938 158.152344 109.203125 L 153.519531 108.613281 C 152.226562 108.453125 151.03125 108.140625 149.960938 107.710938 C 148.253906 107.027344 146.960938 106.042969 146.175781 104.910156 C 145.542969 103.992188 145.246094 102.910156 145.390625 101.796875 C 145.441406 101.359375 145.578125 100.875 145.78125 100.367188 C 146.828125 97.761719 145.558594 94.796875 142.953125 93.753906 C 140.347656 92.710938 137.382812 93.976562 136.339844 96.582031 C 135.820312 97.878906 135.484375 99.199219 135.3125 100.519531 L 135.3125 100.535156 C 134.847656 104.214844 135.769531 107.710938 137.8125 110.675781 C 139.738281 113.433594 142.613281 115.699219 146.210938 117.144531 Z M 168.335938 30.128906 Z M 34.605469 88.210938 C 34.605469 71.316406 50.214844 56.429688 75.445312 46.039062 C 99.320312 36.207031 132.171875 30.117188 168.335938 30.117188 C 204.5 30.117188 237.351562 36.207031 261.226562 46.039062 C 286.457031 56.429688 302.066406 71.316406 302.066406 88.210938 C 302.066406 105.105469 286.457031 119.992188 261.226562 130.382812 C 237.351562 140.21875 204.5 146.304688 168.335938 146.304688 C 132.171875 146.304688 99.320312 140.21875 75.445312 130.382812 C 50.214844 119.992188 34.605469 105.105469 34.605469 88.210938 Z M 44.796875 88.210938 C 44.796875 100.582031 57.988281 112.203125 79.308594 120.984375 C 101.988281 130.328125 133.457031 136.101562 168.335938 136.101562 C 203.214844 136.101562 234.683594 130.320312 257.363281 120.984375 C 278.683594 112.203125 291.875 100.582031 291.875 88.210938 C 291.875 75.839844 278.683594 64.222656 257.363281 55.4375 C 234.683594 46.09375 203.214844 40.320312 168.335938 40.320312 C 133.457031 40.320312 101.988281 46.101562 79.308594 55.4375 C 57.988281 64.222656 44.796875 75.839844 44.796875 88.210938 Z M 367.488281 160.574219 L 367.488281 215.742188 C 367.488281 228.574219 361.5 240.613281 350.851562 251.21875 C 350.621094 251.503906 350.351562 251.769531 350.058594 252.003906 C 347.878906 254.109375 345.523438 256.152344 342.980469 258.144531 L 342.988281 288.113281 C 342.988281 310.515625 324.78125 330.480469 295.347656 344.625 C 267.046875 358.246094 228.070312 366.664062 185.152344 366.664062 C 142.230469 366.664062 103.253906 358.238281 74.953125 344.625 C 45.519531 330.472656 27.3125 310.515625 27.3125 288.113281 L 27.3125 232.957031 C 27.3125 232.957031 27.3125 232.957031 27.3125 232.949219 C 27.3125 224.851562 29.710938 217.042969 34.175781 209.691406 C 37.496094 204.226562 41.957031 199.042969 47.417969 194.195312 C 39.878906 189.75 33.320312 184.871094 27.910156 179.628906 C 27.625 179.398438 27.367188 179.148438 27.132812 178.863281 C 16.476562 168.261719 10.488281 156.21875 10.488281 143.386719 L 10.488281 88.210938 C 10.488281 65.808594 28.703125 45.851562 58.128906 31.691406 C 86.441406 18.085938 125.414062 9.664062 168.335938 9.664062 C 211.257812 9.664062 250.230469 18.085938 278.53125 31.699219 C 307.96875 45.851562 326.175781 65.820312 326.175781 88.21875 L 326.175781 107.300781 C 338.5625 113.988281 348.601562 121.777344 355.664062 130.363281 C 363.292969 139.636719 367.488281 149.828125 367.488281 160.574219 Z M 326.175781 118.96875 L 326.175781 131.550781 C 331.234375 135.433594 335.296875 139.636719 338.179688 144.089844 C 341.570312 149.304688 343.371094 154.835938 343.371094 160.585938 C 343.371094 177.15625 328.371094 191.785156 304.011719 202.140625 C 281.023438 211.902344 249.292969 218.132812 214.128906 218.613281 C 213.90625 218.648438 213.675781 218.675781 213.441406 218.710938 C 213.015625 218.773438 212.585938 218.835938 212.15625 218.898438 C 210.371094 219.148438 208.570312 219.390625 206.757812 219.613281 C 206.625 219.632812 206.488281 219.648438 206.355469 219.667969 C 206.347656 219.667969 206.339844 219.667969 206.328125 219.667969 C 206.304688 219.667969 206.277344 219.675781 206.242188 219.675781 C 206.007812 219.703125 205.765625 219.730469 205.535156 219.757812 C 203.929688 219.945312 202.320312 220.121094 200.699219 220.292969 C 200.429688 220.320312 200.164062 220.347656 199.894531 220.371094 C 198.046875 220.558594 196.191406 220.722656 194.324219 220.871094 C 194.148438 220.890625 193.96875 220.910156 193.789062 220.917969 C 193.511719 220.933594 193.226562 220.960938 192.949219 220.980469 C 192.335938 221.023438 191.726562 221.070312 191.113281 221.113281 C 190.828125 221.132812 190.542969 221.148438 190.253906 221.167969 C 183.089844 221.65625 175.769531 221.917969 168.335938 221.917969 C 160.953125 221.917969 153.691406 221.65625 146.578125 221.175781 C 146.210938 221.148438 145.835938 221.132812 145.480469 221.105469 C 144.917969 221.070312 144.355469 221.023438 143.792969 220.980469 C 143.488281 220.953125 143.175781 220.933594 142.871094 220.910156 L 141.5 220.792969 C 141.160156 220.765625 140.8125 220.738281 140.472656 220.703125 L 139.800781 220.648438 C 139.972656 220.695312 140.132812 220.738281 140.300781 220.773438 C 141.828125 221.160156 143.363281 221.53125 144.925781 221.890625 C 144.925781 221.890625 144.933594 221.890625 144.933594 221.890625 C 145.996094 222.132812 147.078125 222.371094 148.148438 222.605469 C 148.289062 222.632812 148.425781 222.65625 148.558594 222.695312 C 156.269531 224.34375 164.335938 225.691406 172.683594 226.710938 C 172.734375 226.71875 172.78125 226.71875 172.835938 226.726562 C 184.605469 228.148438 196.929688 228.914062 209.648438 228.914062 C 222.3125 228.914062 234.605469 228.164062 246.339844 226.746094 C 246.457031 226.726562 246.5625 226.71875 246.679688 226.710938 C 251.613281 226.113281 256.460938 225.398438 261.183594 224.566406 C 264.40625 224.003906 267.574219 223.378906 270.679688 222.71875 C 270.875 222.667969 271.070312 222.621094 271.277344 222.59375 C 271.285156 222.59375 271.304688 222.585938 271.3125 222.585938 C 274.625 221.871094 277.871094 221.097656 281.050781 220.265625 C 285.851562 219.015625 290.484375 217.640625 294.945312 216.152344 C 295.203125 216.035156 295.480469 215.945312 295.765625 215.875 C 302.808594 213.492188 309.394531 210.832031 315.457031 207.921875 C 316.742188 207.308594 317.992188 206.671875 319.222656 206.039062 C 319.472656 205.878906 319.738281 205.746094 320.015625 205.628906 C 329.164062 200.816406 336.902344 195.4375 342.917969 189.636719 C 343.160156 189.339844 343.433594 189.074219 343.730469 188.832031 C 352.414062 180.164062 357.277344 170.582031 357.277344 160.566406 C 357.277344 152.257812 353.914062 144.226562 347.808594 136.800781 C 342.515625 130.363281 335.179688 124.359375 326.175781 118.96875 Z M 311.199219 121.984375 C 311.027344 122.171875 310.851562 122.351562 310.679688 122.535156 L 310.679688 161.296875 C 310.984375 160.808594 311.269531 160.308594 311.539062 159.808594 C 311.714844 159.476562 311.886719 159.148438 312.054688 158.816406 C 312.164062 158.601562 312.277344 158.398438 312.375 158.183594 C 312.589844 157.746094 312.796875 157.316406 312.984375 156.878906 C 313.027344 156.792969 313.0625 156.703125 313.109375 156.613281 C 313.3125 156.148438 313.5 155.675781 313.6875 155.210938 C 313.714844 155.132812 313.75 155.058594 313.777344 154.980469 C 313.957031 154.515625 314.125 154.042969 314.277344 153.570312 C 314.304688 153.480469 314.339844 153.390625 314.367188 153.292969 C 314.519531 152.835938 314.652344 152.382812 314.777344 151.925781 C 314.8125 151.800781 314.839844 151.6875 314.875 151.5625 C 314.992188 151.132812 315.097656 150.703125 315.195312 150.277344 C 315.230469 150.117188 315.269531 149.945312 315.292969 149.785156 C 315.375 149.390625 315.457031 149 315.527344 148.597656 C 315.5625 148.375 315.589844 148.160156 315.625 147.9375 C 315.679688 147.589844 315.730469 147.242188 315.769531 146.894531 C 315.804688 146.589844 315.820312 146.296875 315.847656 145.992188 C 315.875 145.714844 315.902344 145.4375 315.917969 145.152344 C 315.945312 144.636719 315.964844 144.117188 315.964844 143.601562 C 315.964844 143.527344 315.972656 143.464844 315.972656 143.394531 L 315.972656 116.378906 C 315.867188 116.523438 315.75 116.664062 315.632812 116.808594 C 315.285156 117.261719 314.929688 117.71875 314.554688 118.171875 C 314.382812 118.386719 314.207031 118.59375 314.027344 118.804688 C 313.671875 119.234375 313.304688 119.671875 312.921875 120.089844 C 312.734375 120.304688 312.535156 120.527344 312.339844 120.742188 C 311.976562 121.152344 311.589844 121.574219 311.199219 121.984375 Z M 199.582031 210.171875 C 199.949219 210.136719 200.304688 210.089844 200.664062 210.054688 L 200.664062 165.136719 C 195.824219 165.628906 190.898438 166.019531 185.898438 166.289062 L 185.898438 211.242188 C 187.558594 211.152344 189.21875 211.046875 190.871094 210.929688 C 191.128906 210.914062 191.398438 210.894531 191.65625 210.867188 C 192.300781 210.824219 192.941406 210.769531 193.585938 210.714844 C 195.386719 210.574219 197.171875 210.414062 198.949219 210.234375 C 199.164062 210.214844 199.367188 210.191406 199.582031 210.171875 Z M 145.605469 210.921875 C 147.308594 211.046875 149.03125 211.152344 150.753906 211.25 L 150.753906 166.296875 C 145.765625 166.027344 140.835938 165.636719 136 165.144531 L 136 210.066406 C 136.296875 210.089844 136.589844 210.136719 136.882812 210.164062 C 137.1875 210.191406 137.492188 210.226562 137.792969 210.261719 C 139.5 210.429688 141.222656 210.582031 142.953125 210.726562 C 143.738281 210.789062 144.515625 210.851562 145.300781 210.914062 C 145.398438 210.902344 145.503906 210.914062 145.605469 210.921875 Z M 277.132812 231.714844 L 277.132812 276.429688 C 282.226562 275.199219 287.15625 273.824219 291.882812 272.324219 L 291.882812 227.789062 C 287.128906 229.226562 282.210938 230.539062 277.132812 231.714844 Z M 302.078125 224.460938 L 302.078125 268.816406 C 306.78125 267.042969 311.242188 265.140625 315.457031 263.113281 C 315.917969 262.890625 316.375 262.660156 316.828125 262.4375 L 316.828125 218.507812 C 312.179688 220.632812 307.253906 222.621094 302.078125 224.460938 Z M 266.929688 233.867188 C 262.121094 234.785156 257.191406 235.597656 252.167969 236.285156 L 252.167969 281.171875 C 257.203125 280.457031 262.128906 279.625 266.929688 278.671875 Z M 241.976562 282.429688 L 241.976562 237.507812 C 237.136719 238 232.210938 238.390625 227.222656 238.660156 L 227.222656 283.617188 C 232.222656 283.328125 237.136719 282.9375 241.976562 282.429688 Z M 209.640625 239.132812 C 207.167969 239.132812 204.707031 239.097656 202.257812 239.042969 L 202.257812 283.980469 C 204.230469 284.035156 206.203125 284.070312 208.175781 284.097656 C 208.667969 284.097656 209.148438 284.105469 209.640625 284.105469 C 212.113281 284.105469 214.578125 284.078125 217.023438 284.015625 L 217.023438 239.054688 C 214.578125 239.105469 212.121094 239.132812 209.640625 239.132812 Z M 286.957031 140.34375 C 286.546875 140.574219 286.136719 140.796875 285.71875 141.03125 L 285.71875 184.449219 C 287.734375 183.21875 289.679688 181.960938 291.507812 180.675781 C 294.8125 178.355469 297.800781 175.945312 300.480469 173.464844 L 300.480469 131.523438 C 300.445312 131.550781 300.40625 131.578125 300.382812 131.597656 C 300.195312 131.738281 299.996094 131.871094 299.808594 132.015625 C 299.246094 132.433594 298.675781 132.863281 298.085938 133.273438 C 297.820312 133.46875 297.542969 133.65625 297.265625 133.855469 C 296.757812 134.210938 296.238281 134.578125 295.714844 134.925781 C 295.402344 135.140625 295.078125 135.34375 294.765625 135.558594 C 294.265625 135.890625 293.769531 136.21875 293.25 136.550781 C 292.910156 136.761719 292.570312 136.988281 292.222656 137.199219 C 291.722656 137.511719 291.214844 137.824219 290.699219 138.136719 C 290.339844 138.351562 289.984375 138.566406 289.617188 138.789062 C 289.101562 139.101562 288.574219 139.40625 288.046875 139.707031 C 287.691406 139.933594 287.332031 140.136719 286.957031 140.34375 Z M 275.523438 146.144531 C 270.867188 148.269531 265.941406 150.257812 260.761719 152.097656 L 260.761719 196.4375 C 262.78125 195.667969 264.78125 194.875 266.761719 194.042969 C 269.796875 192.769531 272.722656 191.4375 275.515625 190.054688 L 275.515625 146.144531 Z M 250.570312 155.425781 C 245.8125 156.855469 240.886719 158.164062 235.808594 159.351562 L 235.808594 204.058594 C 237.941406 203.539062 240.066406 202.996094 242.179688 202.414062 L 242.476562 202.351562 C 242.589844 202.328125 242.707031 202.289062 242.816406 202.265625 C 244.546875 201.78125 246.269531 201.292969 247.964844 200.773438 C 248.167969 200.710938 248.382812 200.648438 248.589844 200.585938 C 249.257812 200.382812 249.902344 200.167969 250.5625 199.953125 L 250.5625 155.425781 Z M 225.617188 161.503906 C 220.804688 162.421875 215.886719 163.234375 210.855469 163.921875 L 210.855469 208.804688 C 211.328125 208.734375 211.808594 208.671875 212.28125 208.601562 C 212.730469 208.539062 213.167969 208.46875 213.601562 208.40625 C 214.273438 208.304688 214.941406 208.199219 215.601562 208.09375 C 216.058594 208.019531 216.523438 207.949219 216.96875 207.867188 C 217.324219 207.804688 217.683594 207.742188 218.046875 207.691406 C 220.589844 207.261719 223.109375 206.789062 225.609375 206.289062 L 225.609375 161.503906 Z M 175.707031 211.644531 L 175.707031 166.679688 C 173.261719 166.734375 170.808594 166.769531 168.328125 166.769531 C 165.855469 166.769531 163.390625 166.742188 160.945312 166.679688 L 160.945312 211.644531 C 163.390625 211.699219 165.855469 211.734375 168.328125 211.734375 C 170.808594 211.734375 173.261719 211.707031 175.707031 211.644531 Z M 152.351562 278.4375 C 157.199219 279.402344 162.125 280.25 167.113281 280.972656 L 167.113281 236.296875 C 162.089844 235.609375 157.160156 234.796875 152.351562 233.875 Z M 177.304688 237.5 L 177.304688 282.257812 C 182.1875 282.792969 187.113281 283.214844 192.066406 283.515625 L 192.066406 238.660156 C 187.070312 238.382812 182.152344 237.992188 177.304688 237.5 Z M 67.1875 233.449219 L 67.296875 233.617188 L 67.296875 203.976562 C 67.019531 203.863281 66.734375 203.753906 66.457031 203.636719 C 65.777344 203.363281 65.117188 203.058594 64.449219 202.765625 C 64.019531 202.578125 63.59375 202.398438 63.164062 202.210938 C 62.78125 202.039062 62.378906 201.878906 61.996094 201.703125 L 61.996094 215.742188 C 61.996094 216.867188 62.058594 217.980469 62.183594 219.097656 C 62.21875 219.363281 62.253906 219.632812 62.289062 219.898438 C 62.316406 220.113281 62.34375 220.328125 62.378906 220.535156 C 62.421875 220.800781 62.46875 221.058594 62.511719 221.328125 C 62.582031 221.710938 62.644531 222.09375 62.734375 222.480469 C 62.941406 223.316406 63.15625 224.105469 63.378906 224.851562 C 63.539062 225.363281 63.699219 225.871094 63.867188 226.386719 C 64.199219 227.34375 64.566406 228.253906 64.976562 229.171875 C 65.144531 229.53125 65.316406 229.894531 65.484375 230.242188 C 65.492188 230.253906 65.492188 230.269531 65.5 230.28125 C 65.574219 230.429688 65.652344 230.582031 65.726562 230.734375 C 66.101562 231.484375 66.511719 232.253906 66.972656 233.0625 C 67.046875 233.199219 67.117188 233.324219 67.1875 233.449219 Z M 100.84375 159.351562 C 95.765625 158.175781 90.847656 156.855469 86.082031 155.425781 L 86.082031 199.953125 L 87.242188 200.328125 L 92.082031 201.753906 C 92.117188 201.765625 92.144531 201.78125 92.167969 201.792969 C 92.4375 201.863281 92.695312 201.941406 92.964844 202.015625 C 93.867188 202.265625 94.757812 202.503906 95.632812 202.738281 C 95.738281 202.765625 95.847656 202.789062 95.945312 202.816406 C 96.460938 202.953125 96.972656 203.085938 97.480469 203.21875 C 98.210938 203.40625 98.945312 203.59375 99.683594 203.773438 C 100.070312 203.871094 100.460938 203.960938 100.855469 204.050781 L 100.855469 159.351562 Z M 82.085938 249.78125 C 82.648438 250.226562 83.210938 250.671875 83.78125 251.109375 C 84.003906 251.234375 84.191406 251.386719 84.371094 251.546875 L 86.886719 253.351562 C 87.824219 254.003906 88.839844 254.679688 89.9375 255.386719 L 92.125 256.75 C 92.160156 256.777344 92.207031 256.796875 92.242188 256.824219 L 92.242188 213.394531 C 91.894531 213.195312 91.535156 213.011719 91.1875 212.8125 C 90.707031 212.546875 90.234375 212.269531 89.761719 211.992188 C 89.402344 211.785156 89.039062 211.582031 88.6875 211.375 L 84.253906 210.039062 C 82.734375 209.566406 81.191406 209.066406 79.628906 208.546875 C 79.417969 208.484375 79.203125 208.421875 79.003906 208.332031 C 78.792969 208.261719 78.585938 208.191406 78.371094 208.117188 C 78.183594 208.054688 77.996094 207.984375 77.800781 207.921875 C 77.695312 207.886719 77.585938 207.851562 77.488281 207.816406 L 77.488281 245.691406 C 78.808594 247.003906 80.28125 248.324219 82.085938 249.78125 Z M 117.203125 268.613281 L 117.203125 224.460938 C 117 224.390625 116.785156 224.316406 116.578125 224.238281 C 116.015625 224.03125 115.464844 223.828125 114.902344 223.621094 C 114.3125 223.398438 113.714844 223.183594 113.125 222.960938 C 112.574219 222.746094 112.035156 222.53125 111.484375 222.320312 C 110.902344 222.09375 110.324219 221.863281 109.753906 221.640625 C 109.214844 221.425781 108.679688 221.203125 108.15625 220.980469 C 107.582031 220.746094 107.019531 220.515625 106.457031 220.273438 C 105.933594 220.050781 105.414062 219.820312 104.898438 219.597656 C 104.34375 219.355469 103.78125 219.113281 103.238281 218.863281 C 102.96875 218.75 102.710938 218.625 102.441406 218.5 L 102.441406 262.300781 C 107.128906 264.578125 112.054688 266.683594 117.203125 268.613281 Z M 125.800781 208.804688 L 125.800781 163.921875 C 120.773438 163.234375 115.847656 162.421875 111.039062 161.503906 L 111.039062 206.289062 C 111.636719 206.40625 112.234375 206.539062 112.832031 206.65625 C 112.902344 206.671875 112.972656 206.683594 113.046875 206.699219 C 114.847656 207.046875 116.667969 207.371094 118.5 207.671875 C 118.9375 207.742188 119.363281 207.824219 119.800781 207.894531 C 120.167969 207.957031 120.535156 208.011719 120.898438 208.074219 C 121.65625 208.191406 122.40625 208.316406 123.167969 208.429688 C 123.523438 208.484375 123.878906 208.539062 124.238281 208.59375 C 124.765625 208.664062 125.28125 208.734375 125.800781 208.804688 Z M 61.128906 146.136719 L 61.128906 190.054688 C 61.273438 190.125 61.414062 190.199219 61.558594 190.269531 C 61.789062 190.386719 62.011719 190.492188 62.246094 190.609375 C 64.804688 191.839844 67.511719 193.054688 70.355469 194.242188 C 72.167969 195 74.023438 195.722656 75.890625 196.425781 L 75.890625 152.085938 C 70.722656 150.25 65.789062 148.257812 61.128906 146.136719 Z M 138.742188 230.90625 C 138.203125 230.769531 137.679688 230.636719 137.152344 230.492188 C 136.394531 230.296875 135.632812 230.109375 134.886719 229.914062 C 134.285156 229.753906 133.699219 229.59375 133.109375 229.433594 C 132.4375 229.246094 131.761719 229.066406 131.089844 228.878906 C 130.484375 228.707031 129.886719 228.53125 129.289062 228.351562 C 128.65625 228.164062 128.023438 227.984375 127.398438 227.796875 L 127.398438 272.101562 C 132.179688 273.601562 137.105469 274.96875 142.160156 276.179688 L 142.160156 231.714844 C 141.015625 231.449219 139.875 231.179688 138.742188 230.90625 Z M 277.765625 200.292969 C 285.886719 198.140625 293.355469 195.625 300.03125 192.785156 C 320.550781 184.066406 333.179688 172.675781 333.179688 160.59375 C 333.179688 156.855469 331.957031 153.167969 329.65625 149.632812 C 328.671875 148.117188 327.496094 146.625 326.140625 145.160156 C 326.140625 145.207031 326.128906 145.261719 326.128906 145.304688 C 326.121094 145.429688 326.121094 145.554688 326.113281 145.679688 C 326.101562 145.886719 326.078125 146.082031 326.066406 146.285156 C 326.058594 146.472656 326.039062 146.660156 326.023438 146.847656 C 326.003906 147.035156 325.996094 147.222656 325.976562 147.410156 C 325.960938 147.605469 325.933594 147.792969 325.914062 147.992188 C 325.890625 148.195312 325.863281 148.394531 325.835938 148.597656 C 325.765625 149.1875 325.675781 149.765625 325.578125 150.347656 C 325.550781 150.507812 325.523438 150.667969 325.488281 150.828125 C 325.363281 151.488281 325.226562 152.140625 325.078125 152.800781 C 325.058594 152.882812 325.039062 152.953125 325.023438 153.035156 C 324.105469 156.890625 322.640625 160.648438 320.667969 164.296875 C 320.613281 164.402344 320.550781 164.511719 320.488281 164.617188 C 320.175781 165.191406 319.847656 165.761719 319.507812 166.332031 C 319.390625 166.527344 319.273438 166.726562 319.160156 166.914062 C 318.875 167.367188 318.589844 167.824219 318.285156 168.277344 C 318.105469 168.546875 317.9375 168.820312 317.75 169.089844 C 317.535156 169.402344 317.304688 169.722656 317.078125 170.035156 C 314.859375 173.175781 312.261719 176.222656 309.304688 179.140625 C 309.191406 179.265625 309.074219 179.378906 308.949219 179.488281 C 305.523438 182.824219 301.648438 186.019531 297.363281 189.019531 C 292.992188 192.089844 288.207031 194.980469 283.066406 197.660156 C 283.058594 197.667969 283.046875 197.667969 283.03125 197.675781 C 283.011719 197.683594 282.996094 197.695312 282.96875 197.710938 C 282.03125 198.203125 281.085938 198.683594 280.121094 199.15625 C 279.941406 199.246094 279.765625 199.335938 279.585938 199.417969 C 278.988281 199.695312 278.382812 199.996094 277.765625 200.292969 Z M 36.175781 173.515625 C 40.351562 177.382812 45.304688 181.050781 50.9375 184.476562 L 50.9375 141.03125 C 50.515625 140.796875 50.105469 140.574219 49.695312 140.34375 C 49.339844 140.136719 48.992188 139.941406 48.632812 139.734375 C 48.089844 139.421875 47.554688 139.109375 47.019531 138.796875 C 46.671875 138.59375 46.332031 138.386719 45.984375 138.171875 C 45.449219 137.851562 44.921875 137.523438 44.402344 137.199219 C 44.082031 136.996094 43.75 136.789062 43.429688 136.585938 C 42.894531 136.246094 42.367188 135.898438 41.851562 135.550781 C 41.554688 135.351562 41.261719 135.15625 40.96875 134.960938 C 40.414062 134.585938 39.871094 134.210938 39.332031 133.828125 C 39.082031 133.65625 38.835938 133.480469 38.59375 133.308594 C 37.96875 132.863281 37.363281 132.417969 36.753906 131.960938 C 36.601562 131.847656 36.449219 131.738281 36.300781 131.621094 C 36.261719 131.597656 36.21875 131.558594 36.175781 131.535156 Z M 52.996094 318.253906 C 57.175781 322.117188 62.128906 325.785156 67.75 329.214844 L 67.75 285.757812 C 67.347656 285.535156 66.949219 285.3125 66.546875 285.089844 C 66.152344 284.863281 65.769531 284.640625 65.386719 284.417969 C 64.878906 284.125 64.378906 283.839844 63.878906 283.535156 C 63.503906 283.3125 63.128906 283.089844 62.761719 282.867188 C 62.261719 282.5625 61.761719 282.257812 61.273438 281.945312 C 60.914062 281.722656 60.566406 281.5 60.21875 281.277344 C 59.71875 280.957031 59.21875 280.625 58.726562 280.304688 C 58.40625 280.089844 58.078125 279.875 57.765625 279.660156 C 57.246094 279.3125 56.738281 278.957031 56.230469 278.601562 C 55.953125 278.402344 55.667969 278.207031 55.390625 278.011719 C 54.808594 277.601562 54.246094 277.179688 53.683594 276.761719 C 53.488281 276.617188 53.292969 276.476562 53.105469 276.332031 C 53.070312 276.304688 53.035156 276.277344 53.007812 276.261719 L 53.007812 318.253906 Z M 102.898438 300.152344 L 102.898438 344.6875 C 107.636719 346.1875 112.5625 347.554688 117.660156 348.792969 L 117.660156 304.082031 C 112.582031 302.902344 107.664062 301.589844 102.898438 300.152344 Z M 127.859375 351.035156 C 132.652344 351.988281 137.582031 352.820312 142.621094 353.535156 L 142.621094 308.648438 C 137.597656 307.960938 132.671875 307.152344 127.859375 306.230469 Z M 152.816406 354.792969 C 157.652344 355.300781 162.570312 355.695312 167.578125 355.980469 L 167.578125 311.023438 C 162.589844 310.757812 157.660156 310.363281 152.816406 309.871094 Z M 202.722656 311.015625 L 202.722656 355.96875 C 207.722656 355.695312 212.648438 355.292969 217.476562 354.785156 L 217.476562 309.863281 C 212.640625 310.363281 207.710938 310.746094 202.722656 311.015625 Z M 227.679688 353.535156 C 232.710938 352.820312 237.636719 351.988281 242.441406 351.035156 L 242.441406 306.230469 C 237.628906 307.152344 232.710938 307.960938 227.679688 308.648438 Z M 252.632812 348.792969 C 257.730469 347.5625 262.65625 346.1875 267.386719 344.6875 L 267.386719 300.171875 C 267.304688 300.199219 267.234375 300.214844 267.164062 300.242188 C 262.476562 301.644531 257.628906 302.921875 252.632812 304.082031 Z M 302.542969 285.757812 L 302.542969 329.214844 C 308.164062 325.785156 313.117188 322.117188 317.304688 318.253906 L 317.304688 276.269531 C 317.285156 276.289062 317.257812 276.304688 317.230469 276.324219 C 316.695312 276.726562 316.144531 277.128906 315.597656 277.519531 C 315.132812 277.859375 314.679688 278.199219 314.207031 278.527344 C 313.609375 278.949219 312.992188 279.359375 312.386719 279.769531 C 311.929688 280.070312 311.492188 280.375 311.039062 280.679688 C 310.378906 281.109375 309.691406 281.535156 309.011719 281.964844 C 308.574219 282.230469 308.15625 282.507812 307.71875 282.777344 C 306.984375 283.222656 306.234375 283.660156 305.484375 284.097656 C 305.074219 284.339844 304.675781 284.578125 304.253906 284.820312 C 303.683594 285.132812 303.113281 285.445312 302.542969 285.757812 Z M 335.046875 251.46875 C 337.472656 249.65625 339.730469 247.800781 341.800781 245.890625 L 341.800781 203.90625 C 341.765625 203.933594 341.722656 203.960938 341.6875 203.996094 C 341.535156 204.113281 341.375 204.226562 341.222656 204.34375 C 340.625 204.789062 340.015625 205.246094 339.390625 205.683594 C 339.140625 205.859375 338.890625 206.03125 338.644531 206.207031 C 338.105469 206.582031 337.5625 206.96875 337.007812 207.34375 C 336.714844 207.539062 336.421875 207.734375 336.125 207.929688 C 335.597656 208.28125 335.082031 208.617188 334.546875 208.964844 C 334.226562 209.171875 333.902344 209.378906 333.574219 209.582031 C 333.046875 209.914062 332.519531 210.234375 331.984375 210.5625 C 331.644531 210.769531 331.304688 210.976562 330.96875 211.179688 C 330.433594 211.5 329.878906 211.8125 329.332031 212.136719 C 328.984375 212.332031 328.648438 212.535156 328.296875 212.734375 C 327.878906 212.964844 327.460938 213.195312 327.039062 213.429688 L 327.039062 256.722656 C 329.636719 255.1875 332.207031 253.589844 334.886719 251.59375 C 334.9375 251.519531 334.992188 251.503906 335.046875 251.46875 Z M 20.679688 88.210938 C 20.679688 93.753906 22.179688 99.171875 24.984375 104.367188 C 27.242188 108.550781 30.347656 112.59375 34.21875 116.460938 C 34.523438 116.699219 34.800781 116.976562 35.050781 117.28125 C 41.066406 123.082031 48.792969 128.464844 57.941406 133.273438 C 58.21875 133.390625 58.488281 133.523438 58.738281 133.683594 C 59.976562 134.328125 61.226562 134.960938 62.511719 135.578125 C 68.582031 138.496094 75.1875 141.164062 82.234375 143.546875 C 82.496094 143.609375 82.753906 143.699219 82.996094 143.796875 C 90.429688 146.277344 98.363281 148.445312 106.71875 150.25 C 106.90625 150.277344 107.09375 150.320312 107.269531 150.363281 C 114.964844 152.015625 123.015625 153.355469 131.339844 154.371094 C 131.414062 154.382812 131.484375 154.390625 131.554688 154.398438 C 143.308594 155.820312 155.625 156.578125 168.328125 156.578125 C 181.019531 156.578125 193.324219 155.820312 205.078125 154.410156 C 205.160156 154.398438 205.242188 154.390625 205.320312 154.382812 C 213.65625 153.371094 221.707031 152.023438 229.410156 150.375 C 229.578125 150.328125 229.75 150.292969 229.917969 150.265625 C 238.273438 148.457031 246.207031 146.296875 253.648438 143.8125 C 253.898438 143.707031 254.148438 143.625 254.417969 143.554688 C 261.46875 141.171875 268.074219 138.503906 274.140625 135.585938 C 275.425781 134.96875 276.683594 134.335938 277.925781 133.691406 C 278.167969 133.542969 278.425781 133.40625 278.695312 133.300781 C 287.851562 128.488281 295.589844 123.109375 301.605469 117.296875 C 301.84375 116.996094 302.121094 116.726562 302.425781 116.496094 C 307.289062 111.628906 310.957031 106.488281 313.242188 101.136719 C 315.027344 96.941406 315.972656 92.628906 315.972656 88.230469 C 315.972656 70.066406 299.988281 53.296875 274.140625 40.863281 C 247.171875 27.894531 209.757812 19.871094 168.328125 19.871094 C 126.886719 19.871094 89.484375 27.894531 62.511719 40.863281 C 36.675781 53.277344 20.679688 70.050781 20.679688 88.210938 Z M 20.679688 143.386719 C 20.679688 149.554688 22.527344 155.558594 25.972656 161.289062 L 25.972656 122.527344 C 25.804688 122.351562 25.644531 122.179688 25.472656 122 C 25.070312 121.574219 24.671875 121.144531 24.285156 120.707031 C 24.097656 120.503906 23.910156 120.296875 23.734375 120.082031 C 23.347656 119.644531 22.972656 119.207031 22.609375 118.769531 C 22.4375 118.566406 22.269531 118.359375 22.101562 118.164062 C 21.726562 117.707031 21.367188 117.246094 21.011719 116.78125 C 20.902344 116.636719 20.789062 116.503906 20.679688 116.359375 Z M 42.851562 214.945312 C 39.371094 220.675781 37.503906 226.71875 37.503906 232.949219 C 37.503906 235.972656 37.960938 238.964844 38.816406 241.898438 C 43.117188 256.582031 57.800781 269.953125 79.335938 280.3125 C 106.308594 293.28125 143.710938 301.304688 185.152344 301.304688 C 214.226562 301.304688 241.332031 297.34375 264.253906 290.488281 C 264.886719 290.300781 265.503906 290.105469 266.128906 289.90625 C 266.832031 289.683594 267.546875 289.46875 268.25 289.246094 C 268.910156 289.03125 269.5625 288.808594 270.222656 288.59375 C 270.75 288.417969 271.285156 288.246094 271.8125 288.070312 C 267.9375 288.898438 264.191406 289.59375 260.503906 290.183594 C 256.34375 290.878906 252.105469 291.488281 247.796875 292.015625 C 247.695312 292.03125 247.597656 292.039062 247.5 292.050781 C 236.601562 293.371094 225.269531 294.128906 213.613281 294.273438 C 213.601562 294.273438 213.601562 294.273438 213.59375 294.273438 C 212.28125 294.289062 210.96875 294.296875 209.648438 294.296875 C 196.609375 294.296875 183.929688 293.511719 171.808594 292.050781 C 171.699219 292.039062 171.59375 292.023438 171.484375 292.015625 C 166.085938 291.351562 160.792969 290.558594 155.636719 289.640625 C 126.210938 286.847656 100.480469 279.9375 82.136719 270.449219 C 62.914062 260.5 51.425781 247.496094 51.425781 232.949219 C 51.425781 231.316406 51.585938 229.628906 51.910156 227.914062 L 51.910156 227.898438 C 52.113281 226.761719 52.410156 225.628906 52.757812 224.515625 C 52.460938 223.175781 52.238281 221.828125 52.085938 220.460938 C 52.085938 220.433594 52.078125 220.398438 52.078125 220.371094 C 52.078125 220.363281 52.078125 220.347656 52.078125 220.335938 C 51.910156 218.828125 51.820312 217.300781 51.8125 215.777344 C 51.8125 215.769531 51.8125 215.757812 51.8125 215.75 L 51.8125 203.960938 C 48.160156 207.476562 45.152344 211.152344 42.851562 214.945312 Z M 37.503906 288.113281 C 37.503906 294.28125 39.351562 300.289062 42.796875 306.027344 L 42.796875 267.265625 C 42.617188 267.085938 42.449219 266.898438 42.277344 266.710938 C 41.886719 266.300781 41.503906 265.882812 41.128906 265.460938 C 40.929688 265.238281 40.734375 265.023438 40.539062 264.800781 C 40.164062 264.382812 39.808594 263.953125 39.449219 263.523438 C 39.269531 263.3125 39.082031 263.089844 38.90625 262.875 C 38.546875 262.4375 38.199219 261.988281 37.851562 261.542969 C 37.734375 261.390625 37.609375 261.242188 37.496094 261.089844 L 37.496094 288.113281 Z M 79.328125 335.46875 C 83.539062 337.496094 88 339.398438 92.707031 341.171875 L 92.707031 296.816406 C 87.539062 294.976562 82.601562 292.988281 77.945312 290.863281 L 77.945312 334.78125 C 78.40625 335.023438 78.863281 335.246094 79.328125 335.46875 Z M 192.53125 356.382812 L 192.53125 311.40625 C 190.085938 311.460938 187.632812 311.496094 185.152344 311.496094 C 182.679688 311.496094 180.214844 311.46875 177.769531 311.40625 L 177.769531 356.371094 C 180.214844 356.425781 182.679688 356.460938 185.152344 356.460938 C 187.621094 356.46875 190.085938 356.433594 192.53125 356.382812 Z M 290.964844 335.46875 C 291.429688 335.246094 291.882812 335.015625 292.339844 334.792969 L 292.339844 290.871094 C 291.429688 291.289062 290.5 291.703125 289.5625 292.101562 C 289.386719 292.183594 289.207031 292.265625 289.027344 292.34375 C 287.714844 292.914062 286.378906 293.46875 285.03125 294.011719 C 284.996094 294.03125 284.949219 294.046875 284.914062 294.058594 C 282.53125 295.011719 280.085938 295.933594 277.585938 296.824219 L 277.585938 341.171875 C 282.28125 339.40625 286.753906 337.496094 290.964844 335.46875 Z M 332.796875 265.238281 C 331.144531 266.300781 329.308594 267.355469 327.496094 268.335938 L 327.496094 306.027344 C 330.949219 300.296875 332.796875 294.28125 332.796875 288.113281 Z M 356.992188 189.109375 C 356.625 189.589844 356.242188 190.074219 355.859375 190.546875 C 355.699219 190.742188 355.539062 190.929688 355.378906 191.125 C 355.003906 191.582031 354.617188 192.027344 354.226562 192.472656 C 354.046875 192.667969 353.867188 192.875 353.691406 193.070312 C 353.296875 193.507812 352.894531 193.945312 352.484375 194.382812 C 352.324219 194.554688 352.15625 194.730469 351.996094 194.902344 L 351.996094 233.664062 C 355.441406 227.933594 357.296875 221.917969 357.296875 215.75 L 357.296875 188.734375 C 357.199219 188.859375 357.089844 188.984375 356.992188 189.109375 Z M 356.992188 189.109375 " fill-opacity="1" fill-rule="nonzero"/></g></svg>