<svg xmlns="http://www.w3.org/2000/svg" xmlns:xlink="http://www.w3.org/1999/xlink" width="500" zoomAndPan="magnify" viewBox="0 0 375 374.999991" height="500" preserveAspectRatio="xMidYMid meet" version="1.0"><defs><clipPath id="943e7ad260"><path d="M 0 80.390625 L 375 80.390625 L 375 294.890625 L 0 294.890625 Z M 0 80.390625 " clip-rule="nonzero"/></clipPath></defs><g clip-path="url(#943e7ad260)"><path fill="#ffffff" d="M 107.035156 285.636719 C 107.035156 290.484375 103.105469 294.429688 98.242188 294.429688 C 93.394531 294.429688 89.46875 290.5 89.46875 285.636719 C 89.46875 261.84375 97.960938 240.019531 112.074219 223.035156 C 107.792969 217.480469 102.453125 212.792969 96.332031 209.308594 C 88.671875 204.957031 79.777344 202.464844 70.277344 202.464844 C 55.71875 202.464844 42.542969 208.355469 33.007812 217.890625 C 23.472656 227.421875 17.582031 240.601562 17.582031 255.160156 C 17.582031 260.007812 13.65625 263.949219 8.792969 263.949219 C 3.945312 263.949219 0 260.023438 0 255.160156 C 0 235.753906 7.871094 218.191406 20.589844 205.472656 C 26.339844 199.722656 33.09375 194.964844 40.558594 191.460938 C 39.675781 190.703125 38.808594 189.90625 37.976562 189.074219 C 29.71875 180.8125 24.605469 169.386719 24.605469 156.773438 C 24.605469 144.164062 29.71875 132.734375 37.976562 124.476562 C 46.238281 116.214844 57.664062 111.101562 70.277344 111.101562 C 82.890625 111.101562 94.296875 116.214844 102.578125 124.476562 C 110.835938 132.734375 115.949219 144.164062 115.949219 156.773438 C 115.949219 169.386719 110.835938 180.796875 102.578125 189.074219 C 101.746094 189.90625 100.878906 190.703125 99.992188 191.460938 C 101.691406 192.257812 103.371094 193.125 105 194.0625 C 112.480469 198.324219 119.117188 203.914062 124.546875 210.511719 C 132.699219 203.667969 142.003906 198.132812 152.121094 194.203125 C 149.007812 192.046875 146.089844 189.621094 143.4375 186.953125 C 132.167969 175.683594 125.199219 160.101562 125.199219 142.90625 C 125.199219 125.714844 132.167969 110.128906 143.4375 98.863281 C 154.707031 87.59375 170.289062 80.625 187.480469 80.625 C 204.675781 80.625 220.257812 87.59375 231.527344 98.863281 C 242.792969 110.128906 249.765625 125.714844 249.765625 142.90625 C 249.765625 160.101562 242.792969 175.683594 231.527344 186.953125 C 228.855469 189.621094 225.957031 192.046875 222.84375 194.203125 C 232.941406 198.113281 242.246094 203.667969 250.417969 210.511719 C 255.847656 203.914062 262.480469 198.324219 269.964844 194.0625 C 271.59375 193.125 273.273438 192.257812 274.96875 191.460938 C 274.085938 190.703125 273.21875 189.90625 272.386719 189.074219 C 264.128906 180.8125 259.015625 169.386719 259.015625 156.773438 C 259.015625 144.164062 264.128906 132.734375 272.386719 124.476562 C 280.648438 116.214844 292.074219 111.101562 304.6875 111.101562 C 317.300781 111.101562 328.726562 116.214844 336.988281 124.476562 C 345.246094 132.734375 350.359375 144.164062 350.359375 156.773438 C 350.359375 169.386719 345.246094 180.796875 336.988281 189.074219 C 336.15625 189.90625 335.304688 190.703125 334.40625 191.460938 C 341.867188 194.945312 348.625 199.722656 354.375 205.472656 C 367.09375 218.191406 374.964844 235.753906 374.964844 255.160156 C 374.964844 260.007812 371.039062 263.949219 366.171875 263.949219 C 361.328125 263.949219 357.382812 260.023438 357.382812 255.160156 C 357.382812 240.601562 351.492188 227.421875 341.957031 217.890625 C 332.421875 208.355469 319.246094 202.464844 304.6875 202.464844 C 295.1875 202.464844 286.292969 204.957031 278.632812 209.308594 C 272.511719 212.792969 267.167969 217.480469 262.890625 223.035156 C 277.003906 240.019531 285.496094 261.828125 285.496094 285.636719 C 285.496094 290.484375 281.566406 294.429688 276.722656 294.429688 C 271.875 294.429688 267.929688 290.5 267.929688 285.636719 C 267.929688 263.4375 258.925781 243.324219 244.386719 228.785156 C 229.847656 214.246094 209.734375 205.242188 187.535156 205.242188 C 165.335938 205.242188 145.222656 214.246094 130.683594 228.785156 C 116.144531 243.324219 107.140625 263.4375 107.140625 285.636719 Z M 50.394531 176.65625 C 55.472656 181.734375 62.492188 184.882812 70.257812 184.882812 C 78.023438 184.882812 85.046875 181.734375 90.125 176.65625 C 95.199219 171.582031 98.347656 164.539062 98.347656 156.792969 C 98.347656 149.027344 95.199219 142.003906 90.125 136.929688 C 85.046875 131.851562 78.007812 128.703125 70.257812 128.703125 C 62.492188 128.703125 55.472656 131.851562 50.394531 136.929688 C 45.320312 142.003906 42.167969 149.027344 42.167969 156.792969 C 42.167969 164.558594 45.320312 171.582031 50.394531 176.65625 Z M 304.632812 184.882812 C 312.398438 184.882812 319.421875 181.734375 324.5 176.65625 C 329.574219 171.582031 332.722656 164.539062 332.722656 156.792969 C 332.722656 149.027344 329.574219 142.003906 324.5 136.929688 C 319.421875 131.851562 312.398438 128.703125 304.632812 128.703125 C 296.867188 128.703125 289.847656 131.851562 284.769531 136.929688 C 279.695312 142.003906 276.542969 149.027344 276.542969 156.792969 C 276.542969 164.558594 279.695312 171.582031 284.769531 176.65625 C 289.847656 181.734375 296.886719 184.882812 304.632812 184.882812 Z M 187.445312 187.660156 C 199.792969 187.660156 210.972656 182.652344 219.074219 174.550781 C 227.15625 166.46875 232.179688 155.289062 232.179688 142.925781 C 232.179688 130.578125 227.175781 119.398438 219.074219 111.296875 C 210.992188 103.214844 199.792969 98.207031 187.445312 98.207031 C 175.101562 98.207031 163.921875 103.214844 155.820312 111.296875 C 147.734375 119.382812 142.710938 130.578125 142.710938 142.925781 C 142.710938 155.269531 147.71875 166.449219 155.820312 174.550781 C 163.902344 182.636719 175.101562 187.660156 187.445312 187.660156 Z M 187.445312 187.660156 " fill-opacity="1" fill-rule="nonzero"/></g></svg>