<svg xmlns="http://www.w3.org/2000/svg" xmlns:xlink="http://www.w3.org/1999/xlink" width="500" zoomAndPan="magnify" viewBox="0 0 375 374.999991" height="500" preserveAspectRatio="xMidYMid meet" version="1.0"><path fill="#f9b132" d="M 276.117188 312.207031 C 272.742188 270.609375 239.675781 243.664062 187.460938 229.433594 C 141.550781 235.035156 113.675781 266.597656 96.761719 313.945312 C 101.6875 314.808594 106.644531 316.457031 111.398438 319.207031 C 137.761719 334.429688 138.089844 371.730469 138.089844 371.730469 C 138.089844 371.730469 157.019531 339.585938 187.460938 339.585938 C 217.902344 339.585938 236.835938 371.730469 236.835938 371.730469 C 236.835938 371.730469 237.164062 334.429688 263.523438 319.207031 C 268.28125 316.457031 273.234375 314.808594 278.160156 313.945312 Z M 276.117188 312.207031 " fill-opacity="1" fill-rule="nonzero"/><path fill="#f9b132" d="M 339.585938 187.460938 C 339.585938 157.019531 371.730469 138.089844 371.730469 138.089844 C 371.730469 138.089844 339.542969 137.804688 322.765625 116.628906 L 280.605469 113.417969 L 237.683594 187.558594 L 237.683594 187.566406 C 229.691406 241.085938 262.839844 263.445312 315.878906 270.746094 C 316.738281 268.308594 317.839844 265.894531 319.207031 263.523438 C 334.429688 237.164062 371.730469 236.835938 371.730469 236.835938 C 371.730469 236.835938 339.585938 217.902344 339.585938 187.460938 Z M 339.585938 187.460938 " fill-opacity="1" fill-rule="nonzero"/><path fill="#f9b132" d="M 94.28125 108.242188 L 52.167969 116.632812 C 35.382812 137.808594 3.195312 138.089844 3.195312 138.089844 C 3.195312 138.089844 35.335938 157.019531 35.335938 187.460938 C 35.335938 217.902344 3.195312 236.835938 3.195312 236.835938 C 3.195312 236.835938 40.492188 237.164062 55.71875 263.523438 C 57.085938 265.894531 58.183594 268.308594 59.046875 270.746094 C 108.257812 263.3125 141.671875 242.027344 137.242188 187.558594 Z M 94.28125 108.242188 " fill-opacity="1" fill-rule="nonzero"/><path fill="#f9b132" d="M 253.664062 47.929688 L 261.625 66.261719 L 278.160156 72.675781 L 187.460938 127.328125 L 108.660156 84.710938 L 103.808594 67.457031 L 121.257812 47.929688 C 137.851562 30.507812 138.089844 3.195312 138.089844 3.195312 C 138.089844 3.195312 157.019531 35.335938 187.460938 35.335938 C 217.902344 35.335938 236.835938 3.195312 236.835938 3.195312 C 236.835938 3.195312 237.074219 30.507812 253.664062 47.929688 Z M 253.664062 47.929688 " fill-opacity="1" fill-rule="nonzero"/><path fill="#5d5560" d="M 352.097656 313.304688 C 357.613281 319.785156 357.226562 329.414062 351.207031 335.425781 L 339.882812 346.757812 C 333.867188 352.777344 324.238281 353.160156 317.757812 347.648438 L 311.382812 342.21875 C 311.894531 321.738281 324.289062 310.46875 346.667969 306.929688 Z M 352.097656 313.304688 " fill-opacity="1" fill-rule="nonzero"/><path fill="#655f68" d="M 330.871094 288.363281 L 346.667969 306.929688 L 311.382812 342.21875 L 278.160156 313.945312 L 276.117188 312.207031 C 280.871094 284.144531 298.199219 274.511719 330.871094 288.363281 Z M 330.871094 288.363281 " fill-opacity="1" fill-rule="nonzero"/><path fill="#5d5560" d="M 315.878906 270.746094 L 330.871094 288.363281 C 313.707031 302.769531 295.460938 310.722656 276.117188 312.207031 L 240 281.46875 L 240 281.460938 C 254.292969 264.511719 275.488281 254.285156 310.355469 264.261719 Z M 315.878906 270.746094 " fill-opacity="1" fill-rule="nonzero"/><path fill="#655f68" d="M 285.933594 235.558594 L 310.355469 264.261719 C 287.421875 278.140625 263.976562 283.875 240 281.460938 L 239.992188 281.460938 C 239.703125 280.933594 239.355469 280.4375 238.960938 279.953125 C 237.027344 277.621094 234.523438 276.363281 231.871094 276.023438 L 231.871094 276.015625 C 227.964844 244.859375 247.914062 231.445312 280.472656 227.414062 C 280.816406 230.066406 282.0625 232.578125 284.402344 234.511719 C 284.894531 234.910156 285.398438 235.261719 285.933594 235.558594 Z M 285.933594 235.558594 " fill-opacity="1" fill-rule="nonzero"/><path fill="#ad6a6a" d="M 285.933594 235.558594 C 285.398438 235.261719 284.894531 234.910156 284.402344 234.511719 C 282.0625 232.578125 280.816406 230.066406 280.472656 227.414062 L 231.871094 276.015625 L 231.871094 276.023438 C 234.523438 276.363281 237.027344 277.621094 238.960938 279.953125 C 239.355469 280.4375 239.703125 280.933594 239.992188 281.460938 L 240 281.460938 L 240 281.46875 C 243.441406 287.539062 240.3125 296.300781 233.128906 301.65625 C 225.320312 307.480469 210.902344 307.230469 202.8125 294.917969 C 194.246094 281.890625 201.996094 265.851562 211.847656 255.996094 L 215.242188 252.601562 L 236.152344 231.695312 L 260.449219 207.398438 C 270.300781 197.542969 286.351562 189.796875 299.375 198.355469 C 311.679688 206.445312 311.933594 220.859375 306.113281 228.675781 C 300.757812 235.855469 292.011719 238.984375 285.933594 235.558594 Z M 285.933594 235.558594 " fill-opacity="1" fill-rule="nonzero"/><path fill="#d8d8d8" d="M 237.683594 187.566406 L 202.457031 198.195312 L 187.460938 229.433594 L 215.242188 252.601562 L 236.152344 231.695312 L 257.054688 210.792969 Z M 237.683594 187.566406 " fill-opacity="1" fill-rule="nonzero"/><path fill="#ad6a6a" d="M 163.078125 255.996094 L 159.679688 252.601562 L 143.050781 220.546875 L 117.871094 210.792969 L 114.476562 207.398438 C 104.625 197.542969 88.574219 189.796875 75.550781 198.355469 C 63.246094 206.445312 62.992188 220.859375 68.808594 228.675781 C 74.167969 235.855469 82.914062 238.984375 88.988281 235.558594 L 134.929688 281.460938 L 134.921875 281.460938 L 134.921875 281.46875 C 131.484375 287.539062 134.613281 296.300781 141.796875 301.65625 C 149.605469 307.480469 164.019531 307.230469 172.113281 294.917969 C 180.679688 281.890625 172.929688 265.851562 163.078125 255.996094 Z M 163.078125 255.996094 " fill-opacity="1" fill-rule="nonzero"/><path fill="#655f68" d="M 143.050781 276.015625 L 143.050781 276.023438 C 140.398438 276.363281 137.894531 277.621094 135.964844 279.953125 C 135.570312 280.4375 135.21875 280.933594 134.929688 281.460938 L 134.921875 281.460938 C 104.441406 299.144531 78.710938 298.777344 64.566406 264.261719 L 88.992188 235.558594 C 89.523438 235.261719 90.03125 234.910156 90.519531 234.511719 C 92.863281 232.578125 94.109375 230.066406 94.453125 227.414062 Z M 143.050781 276.015625 " fill-opacity="1" fill-rule="nonzero"/><path fill="#5d5560" d="M 134.921875 281.460938 L 134.921875 281.46875 L 98.804688 312.207031 C 73.953125 318.292969 54.128906 312.507812 44.050781 288.363281 L 59.046875 270.746094 L 64.566406 264.261719 C 87.503906 278.140625 110.945312 283.875 134.921875 281.460938 Z M 134.921875 281.460938 " fill-opacity="1" fill-rule="nonzero"/><path fill="#655f68" d="M 98.804688 312.207031 L 96.761719 313.945312 L 63.542969 342.21875 C 40.34375 343.175781 28.828125 331.144531 28.257812 306.929688 L 44.050781 288.363281 C 61.214844 302.769531 79.464844 310.722656 98.804688 312.207031 Z M 98.804688 312.207031 " fill-opacity="1" fill-rule="nonzero"/><path fill="#5d5560" d="M 63.542969 342.21875 L 57.167969 347.648438 C 50.6875 353.160156 41.058594 352.777344 35.039062 346.757812 L 23.714844 335.425781 C 17.699219 329.414062 17.3125 319.785156 22.824219 313.304688 L 28.257812 306.929688 Z M 63.542969 342.21875 " fill-opacity="1" fill-rule="nonzero"/><path fill="#e15c63" d="M 52.167969 116.628906 L 40.101562 106.570312 L 19.777344 15.320312 L 111.019531 35.648438 L 121.257812 47.929688 L 134.476562 63.789062 L 128.742188 131.820312 L 68.246094 130.027344 L 68.238281 130.035156 Z M 52.167969 116.628906 " fill-opacity="1" fill-rule="nonzero"/><path fill="#d8d8d8" d="M 162.148438 157.6875 L 137.242188 187.558594 L 68.238281 130.035156 L 68.246094 130.027344 L 49.476562 45.027344 L 134.476562 63.789062 L 134.484375 63.789062 L 187.460938 127.328125 Z M 162.148438 157.6875 " fill-opacity="1" fill-rule="nonzero"/><path fill="#1ea6bc" d="M 322.765625 116.628906 L 306.6875 130.035156 L 306.679688 130.027344 L 240.445312 116.292969 L 240.445312 63.789062 L 253.664062 47.929688 L 263.902344 35.648438 L 355.144531 15.320312 L 334.824219 106.570312 Z M 322.765625 116.628906 " fill-opacity="1" fill-rule="nonzero"/><path fill="#e4e4e4" d="M 187.460938 229.433594 L 159.679688 252.601562 L 117.871094 210.792969 L 137.242188 187.558594 L 162.148438 157.6875 L 187.460938 127.328125 L 240.4375 63.789062 L 240.445312 63.789062 L 325.449219 45.027344 L 306.679688 130.027344 L 306.6875 130.035156 L 237.683594 187.558594 L 237.683594 187.566406 L 212.777344 208.324219 Z M 187.460938 229.433594 " fill-opacity="1" fill-rule="nonzero"/><path fill="#3a322b" d="M 1.683594 140.648438 C 1.992188 140.828125 32.363281 159.113281 32.363281 187.460938 C 32.363281 215.808594 1.992188 234.09375 1.683594 234.273438 C 0.535156 234.953125 -0.0195312 236.3125 0.324219 237.601562 C 0.667969 238.890625 1.832031 239.792969 3.164062 239.808594 C 3.523438 239.8125 38.96875 240.460938 53.144531 265.011719 C 54.09375 266.65625 54.929688 268.382812 55.640625 270.160156 L 20.5625 311.378906 C 14.089844 318.980469 14.550781 330.46875 21.613281 337.53125 L 32.941406 348.859375 C 36.667969 352.585938 41.628906 354.472656 46.601562 354.472656 C 51.046875 354.472656 55.503906 352.964844 59.09375 349.910156 L 97.601562 317.136719 C 102.011719 318.050781 106.148438 319.605469 109.914062 321.777344 C 134.464844 335.953125 135.113281 371.402344 135.117188 371.753906 C 135.128906 373.089844 136.027344 374.253906 137.320312 374.601562 C 137.574219 374.667969 137.832031 374.703125 138.089844 374.703125 C 139.121094 374.703125 140.105469 374.160156 140.648438 373.238281 C 140.828125 372.929688 159.046875 342.558594 187.460938 342.558594 C 215.808594 342.558594 234.09375 372.933594 234.273438 373.238281 C 234.953125 374.386719 236.3125 374.945312 237.601562 374.597656 C 238.890625 374.253906 239.792969 373.09375 239.808594 371.757812 C 239.8125 371.402344 240.460938 335.953125 265.011719 321.777344 C 268.773438 319.605469 272.914062 318.050781 277.324219 317.136719 L 315.828125 349.90625 C 319.421875 352.964844 323.875 354.472656 328.320312 354.472656 C 333.292969 354.472656 338.253906 352.585938 341.984375 348.859375 L 353.3125 337.53125 C 360.371094 330.46875 360.832031 318.980469 354.363281 311.375 L 319.28125 270.15625 C 319.996094 268.382812 320.828125 266.652344 321.777344 265.011719 C 335.953125 240.460938 371.402344 239.8125 371.757812 239.808594 C 373.089844 239.796875 374.253906 238.894531 374.597656 237.605469 C 374.945312 236.320312 374.390625 234.957031 373.242188 234.277344 C 372.933594 234.097656 342.558594 215.808594 342.558594 187.460938 C 342.558594 159.117188 372.933594 140.828125 373.238281 140.648438 C 374.390625 139.972656 374.945312 138.613281 374.601562 137.320312 C 374.257812 136.03125 373.09375 135.128906 371.757812 135.117188 C 371.460938 135.113281 343.085938 134.609375 326.96875 116.984375 L 336.726562 108.851562 C 337.230469 108.429688 337.582031 107.855469 337.722656 107.214844 L 358.050781 15.96875 C 358.273438 14.976562 357.972656 13.941406 357.25 13.222656 C 356.53125 12.503906 355.496094 12.199219 354.503906 12.421875 L 263.257812 32.75 C 262.617188 32.890625 262.039062 33.242188 261.621094 33.746094 L 253.605469 43.359375 C 240.222656 26.996094 239.808594 3.414062 239.808594 3.167969 C 239.796875 1.832031 238.894531 0.671875 237.605469 0.324219 C 236.316406 -0.0234375 234.953125 0.535156 234.277344 1.683594 C 234.09375 1.992188 215.808594 32.363281 187.460938 32.363281 C 159.113281 32.363281 140.828125 1.992188 140.648438 1.6875 C 139.972656 0.535156 138.609375 -0.0195312 137.320312 0.324219 C 136.03125 0.667969 135.128906 1.832031 135.113281 3.167969 C 135.113281 3.414062 134.699219 26.996094 121.316406 43.359375 L 113.300781 33.746094 C 112.882812 33.242188 112.308594 32.890625 111.664062 32.75 L 20.421875 12.421875 C 19.429688 12.199219 18.394531 12.503906 17.671875 13.222656 C 16.953125 13.941406 16.652344 14.976562 16.875 15.96875 L 37.203125 107.214844 C 37.34375 107.855469 37.695312 108.429688 38.199219 108.851562 L 47.957031 116.984375 C 31.839844 134.605469 3.460938 135.113281 3.167969 135.117188 C 1.832031 135.128906 0.671875 136.027344 0.324219 137.316406 C -0.0234375 138.605469 0.535156 139.96875 1.683594 140.648438 Z M 70.925781 128.398438 L 53.382812 48.929688 L 132.851562 66.472656 L 183.59375 127.328125 L 161.945312 153.289062 L 103.464844 94.808594 C 102.304688 93.648438 100.421875 93.648438 99.261719 94.808594 C 98.101562 95.96875 98.101562 97.851562 99.261719 99.011719 L 158.125 157.875 L 136.859375 183.375 Z M 242.074219 66.472656 L 321.542969 48.929688 L 304 128.398438 L 159.859375 248.582031 L 142.976562 231.699219 L 275.660156 99.011719 C 276.824219 97.851562 276.824219 95.96875 275.660156 94.808594 C 274.5 93.648438 272.621094 93.648438 271.457031 94.808594 L 138.773438 227.496094 L 121.890625 210.613281 Z M 277.082031 309.128906 L 248.667969 284.941406 C 249.277344 284.953125 249.890625 284.964844 250.5 284.964844 C 270.582031 284.964844 290.441406 279.296875 309.707031 268.082031 L 326.636719 287.972656 C 311.058594 300.433594 294.40625 307.539062 277.082031 309.128906 Z M 330.492188 292.5 L 342.632812 306.765625 L 311.21875 338.179688 L 283.230469 314.359375 C 299.761719 311.761719 315.617188 304.425781 330.492188 292.5 Z M 241.675781 278.632812 C 241.535156 278.441406 241.402344 278.246094 241.25 278.058594 C 240.128906 276.703125 238.792969 275.609375 237.316406 274.773438 L 279.226562 232.863281 C 280.0625 234.339844 281.15625 235.675781 282.511719 236.796875 C 282.972656 237.179688 283.460938 237.515625 283.960938 237.828125 L 305.796875 263.488281 C 284.914062 275.425781 263.371094 280.519531 241.675781 278.632812 Z M 286.300781 232.214844 C 284 230.316406 283.421875 227.933594 283.34375 226.265625 C 283.199219 223.199219 284.535156 219.941406 286.921875 217.554688 C 288.082031 216.394531 288.082031 214.515625 286.921875 213.351562 C 285.757812 212.191406 283.878906 212.191406 282.71875 213.351562 C 279.234375 216.835938 277.265625 221.648438 277.402344 226.28125 L 230.730469 272.949219 C 226.105469 272.816406 221.285156 274.785156 217.804688 278.265625 C 216.644531 279.425781 216.644531 281.308594 217.804688 282.46875 C 218.964844 283.628906 220.847656 283.628906 222.007812 282.46875 C 224.394531 280.082031 227.648438 278.742188 230.71875 278.890625 C 232.386719 278.972656 234.769531 279.546875 236.667969 281.847656 C 238.441406 283.992188 238.5625 286.511719 238.355469 288.25 C 237.875 292.246094 235.253906 296.367188 231.351562 299.277344 C 227.863281 301.878906 222.9375 302.933594 218.179688 302.09375 C 214.519531 301.449219 209.308594 299.398438 205.292969 293.289062 C 197.527344 281.472656 205.101562 266.949219 213.953125 258.101562 L 262.554688 209.5 C 271.402344 200.652344 285.925781 193.074219 297.742188 200.84375 C 303.847656 204.859375 305.898438 210.066406 306.546875 213.726562 C 307.382812 218.484375 306.332031 223.410156 303.730469 226.902344 C 300.820312 230.804688 296.699219 233.421875 292.703125 233.902344 C 290.964844 234.113281 288.445312 233.988281 286.300781 232.214844 Z M 212.597656 212.347656 L 231.945312 231.699219 L 215.0625 248.582031 L 192.101562 229.433594 Z M 236.152344 227.496094 L 217.179688 208.523438 L 237.304688 191.746094 L 253.035156 210.613281 Z M 136.671875 233.796875 C 136.671875 233.796875 136.671875 233.800781 136.671875 233.800781 L 160.972656 258.101562 C 169.820312 266.949219 177.394531 281.472656 169.628906 293.289062 C 165.613281 299.398438 160.40625 301.449219 156.742188 302.09375 C 151.984375 302.933594 147.0625 301.878906 143.570312 299.277344 C 139.667969 296.367188 137.050781 292.246094 136.570312 288.25 C 136.359375 286.511719 136.480469 283.992188 138.253906 281.847656 C 140.15625 279.546875 142.539062 278.972656 144.203125 278.890625 C 147.273438 278.746094 150.527344 280.082031 152.914062 282.46875 C 154.074219 283.628906 155.957031 283.628906 157.117188 282.46875 C 158.277344 281.308594 158.277344 279.425781 157.117188 278.265625 C 153.636719 274.785156 148.824219 272.8125 144.191406 272.949219 L 97.523438 226.28125 C 97.660156 221.648438 95.6875 216.835938 92.207031 213.351562 C 91.042969 212.191406 89.164062 212.191406 88.003906 213.351562 C 86.839844 214.515625 86.839844 216.394531 88.003906 217.554688 C 90.386719 219.941406 91.722656 223.199219 91.578125 226.269531 C 91.5 227.933594 90.921875 230.316406 88.625 232.214844 C 86.480469 233.988281 83.957031 234.109375 82.21875 233.902344 C 78.226562 233.421875 74.101562 230.804688 71.195312 226.898438 C 68.59375 223.410156 67.539062 218.484375 68.378906 213.726562 C 69.023438 210.066406 71.074219 204.859375 77.183594 200.839844 C 88.996094 193.074219 103.523438 200.648438 112.371094 209.5 Z M 90.960938 237.828125 C 91.460938 237.515625 91.949219 237.179688 92.410156 236.796875 C 93.769531 235.675781 94.859375 234.339844 95.695312 232.863281 L 137.609375 274.773438 C 136.128906 275.609375 134.792969 276.703125 133.671875 278.058594 C 133.519531 278.246094 133.390625 278.441406 133.25 278.632812 C 111.558594 280.515625 90.007812 275.425781 69.125 263.488281 Z M 65.214844 268.082031 C 84.484375 279.296875 104.34375 284.964844 124.421875 284.964844 C 125.035156 284.964844 125.644531 284.953125 126.257812 284.941406 L 97.839844 309.128906 C 80.519531 307.539062 63.867188 300.433594 48.285156 287.976562 Z M 91.695312 314.359375 L 63.707031 338.179688 L 32.292969 306.765625 L 44.433594 292.503906 C 59.304688 304.425781 75.160156 311.761719 91.695312 314.359375 Z M 55.242188 345.382812 C 49.976562 349.859375 42.027344 349.542969 37.144531 344.65625 L 25.816406 333.328125 C 20.929688 328.441406 20.609375 320.492188 25.089844 315.230469 L 28.425781 311.304688 L 59.164062 342.042969 Z M 262.039062 316.632812 C 242.148438 328.117188 236.296875 350.9375 234.578125 363.308594 C 226.90625 353.453125 210.429688 336.613281 187.460938 336.613281 C 164.492188 336.613281 148.019531 353.453125 140.34375 363.308594 C 138.625 350.9375 132.777344 328.117188 112.886719 316.632812 C 109.832031 314.871094 106.570312 313.464844 103.140625 312.421875 L 130.671875 288.992188 C 131.351562 294.5625 134.84375 300.1875 140.019531 304.042969 C 143.742188 306.816406 148.589844 308.316406 153.546875 308.316406 C 154.957031 308.316406 156.371094 308.195312 157.773438 307.949219 C 164.578125 306.75 170.554688 302.703125 174.597656 296.554688 C 184.328125 281.753906 175.601562 264.324219 165.175781 253.898438 L 164.078125 252.800781 L 187.460938 233.304688 L 210.84375 252.800781 L 209.746094 253.898438 C 199.320312 264.324219 190.597656 281.753906 200.328125 296.554688 C 204.367188 302.703125 210.34375 306.75 217.148438 307.949219 C 218.550781 308.195312 219.96875 308.316406 221.375 308.316406 C 226.332031 308.316406 231.179688 306.816406 234.902344 304.042969 C 240.078125 300.1875 243.570312 294.5625 244.25 288.992188 L 271.78125 312.421875 C 268.351562 313.464844 265.089844 314.871094 262.039062 316.632812 Z M 349.109375 333.328125 L 337.78125 344.65625 C 332.894531 349.542969 324.945312 349.863281 319.683594 345.382812 L 315.761719 342.042969 L 346.496094 311.308594 L 349.835938 315.230469 C 354.3125 320.492188 353.996094 328.441406 349.109375 333.328125 Z M 363.3125 140.339844 C 353.457031 148.015625 336.613281 164.492188 336.613281 187.460938 C 336.613281 210.429688 353.453125 226.90625 363.308594 234.578125 C 350.9375 236.300781 328.113281 242.148438 316.628906 262.039062 C 316.050781 263.046875 315.515625 264.085938 315.007812 265.140625 L 293.441406 239.800781 C 299.011719 239.117188 304.636719 235.625 308.496094 230.453125 C 312.054688 225.671875 313.515625 219.035156 312.398438 212.695312 C 311.199219 205.890625 307.152344 199.917969 301.003906 195.875 C 286.203125 186.144531 268.777344 194.867188 258.347656 205.296875 L 257.253906 206.390625 L 241.867188 187.941406 L 322.398438 120.792969 C 334.664062 134.394531 352.78125 138.871094 363.3125 140.339844 Z M 265.539062 38.332031 L 351.230469 19.242188 L 332.140625 104.933594 L 311.457031 122.179688 L 328.351562 45.664062 C 328.566406 44.671875 328.265625 43.640625 327.550781 42.921875 C 326.832031 42.203125 325.796875 41.902344 324.808594 42.121094 L 248.292969 59.011719 Z M 140.335938 11.605469 C 148.007812 21.460938 164.488281 38.308594 187.460938 38.308594 C 210.433594 38.308594 226.914062 21.460938 234.585938 11.605469 C 235.886719 20.898438 239.535156 36.109375 249.730469 48.003906 L 187.460938 122.6875 L 125.191406 48.003906 C 135.386719 36.109375 139.035156 20.898438 140.335938 11.605469 Z M 23.691406 19.242188 L 109.386719 38.332031 L 126.628906 59.011719 L 50.117188 42.121094 C 49.125 41.902344 48.089844 42.203125 47.375 42.921875 C 46.65625 43.640625 46.355469 44.671875 46.574219 45.664062 L 63.464844 122.179688 L 42.78125 104.933594 Z M 52.523438 120.792969 L 133.054688 187.941406 L 117.671875 206.390625 L 116.574219 205.296875 C 106.144531 194.867188 88.71875 186.144531 73.917969 195.875 C 67.769531 199.917969 63.722656 205.890625 62.523438 212.695312 C 61.40625 219.035156 62.867188 225.671875 66.429688 230.453125 C 70.285156 235.625 75.910156 239.117188 81.480469 239.800781 L 59.914062 265.136719 C 59.410156 264.085938 58.871094 263.046875 58.292969 262.039062 C 46.808594 242.148438 23.988281 236.300781 11.617188 234.578125 C 21.46875 226.90625 38.308594 210.429688 38.308594 187.460938 C 38.308594 164.492188 21.464844 148.015625 11.609375 140.339844 C 22.144531 138.871094 40.257812 134.394531 52.523438 120.792969 Z M 52.523438 120.792969 " fill-opacity="1" fill-rule="nonzero"/></svg>