<svg xmlns="http://www.w3.org/2000/svg" xmlns:xlink="http://www.w3.org/1999/xlink" width="500" zoomAndPan="magnify" viewBox="0 0 375 374.999991" height="500" preserveAspectRatio="xMidYMid meet" version="1.0"><defs><clipPath id="40003abe8b"><path d="M 15.246094 315 L 59 315 L 59 359 L 15.246094 359 Z M 15.246094 315 " clip-rule="nonzero"/></clipPath><clipPath id="885b076ed8"><path d="M 101 15.246094 L 359.496094 15.246094 L 359.496094 274 L 101 274 Z M 101 15.246094 " clip-rule="nonzero"/></clipPath><clipPath id="6188a3a343"><path d="M 352.664062 15.546875 L 331.296875 17.117188 C 326.976562 17.433594 322.914062 19.292969 319.851562 22.359375 L 101.242188 240.964844 L 117.511719 257.230469 L 133.773438 273.496094 L 352.382812 54.890625 C 355.445312 51.828125 357.308594 47.765625 357.625 43.441406 L 359.195312 22.074219 C 359.46875 18.363281 356.378906 15.273438 352.664062 15.546875 Z M 352.664062 15.546875 " clip-rule="nonzero"/></clipPath><linearGradient x1="1851.067" gradientTransform="matrix(0.579979, 0.579999, -0.579999, 0.579979, -1293.065764, -479.414048)" y1="-998.196017" x2="1851.067" gradientUnits="userSpaceOnUse" y2="-552.972609" id="70aa79f2db"><stop stop-opacity="1" stop-color="rgb(100%, 100%, 100%)" offset="0"/><stop stop-opacity="1" stop-color="rgb(99.957275%, 99.971008%, 100%)" offset="0.0625"/><stop stop-opacity="1" stop-color="rgb(99.752808%, 99.836731%, 100%)" offset="0.078125"/><stop stop-opacity="1" stop-color="rgb(99.42627%, 99.621582%, 100%)" offset="0.09375"/><stop stop-opacity="1" stop-color="rgb(99.101257%, 99.406433%, 100%)" offset="0.109375"/><stop stop-opacity="1" stop-color="rgb(98.774719%, 99.19281%, 100%)" offset="0.125"/><stop stop-opacity="1" stop-color="rgb(98.449707%, 98.977661%, 100%)" offset="0.140625"/><stop stop-opacity="1" stop-color="rgb(98.123169%, 98.762512%, 100%)" offset="0.15625"/><stop stop-opacity="1" stop-color="rgb(97.798157%, 98.547363%, 100%)" offset="0.171875"/><stop stop-opacity="1" stop-color="rgb(97.471619%, 98.33374%, 100%)" offset="0.1875"/><stop stop-opacity="1" stop-color="rgb(97.146606%, 98.118591%, 100%)" offset="0.203125"/><stop stop-opacity="1" stop-color="rgb(96.820068%, 97.903442%, 100%)" offset="0.21875"/><stop stop-opacity="1" stop-color="rgb(96.495056%, 97.689819%, 100%)" offset="0.234375"/><stop stop-opacity="1" stop-color="rgb(96.170044%, 97.47467%, 100%)" offset="0.25"/><stop stop-opacity="1" stop-color="rgb(95.843506%, 97.259521%, 100%)" offset="0.265625"/><stop stop-opacity="1" stop-color="rgb(95.518494%, 97.045898%, 100%)" offset="0.28125"/><stop stop-opacity="1" stop-color="rgb(95.191956%, 96.83075%, 100%)" offset="0.296875"/><stop stop-opacity="1" stop-color="rgb(94.866943%, 96.615601%, 100%)" offset="0.3125"/><stop stop-opacity="1" stop-color="rgb(94.540405%, 96.401978%, 100%)" offset="0.328125"/><stop stop-opacity="1" stop-color="rgb(94.215393%, 96.186829%, 100%)" offset="0.34375"/><stop stop-opacity="1" stop-color="rgb(93.888855%, 95.97168%, 100%)" offset="0.359375"/><stop stop-opacity="1" stop-color="rgb(93.563843%, 95.758057%, 100%)" offset="0.375"/><stop stop-opacity="1" stop-color="rgb(93.238831%, 95.542908%, 100%)" offset="0.390625"/><stop stop-opacity="1" stop-color="rgb(92.912292%, 95.327759%, 100%)" offset="0.40625"/><stop stop-opacity="1" stop-color="rgb(92.58728%, 95.114136%, 100%)" offset="0.421875"/><stop stop-opacity="1" stop-color="rgb(92.260742%, 94.898987%, 100%)" offset="0.4375"/><stop stop-opacity="1" stop-color="rgb(91.93573%, 94.683838%, 100%)" offset="0.453125"/><stop stop-opacity="1" stop-color="rgb(91.609192%, 94.470215%, 100%)" offset="0.46875"/><stop stop-opacity="1" stop-color="rgb(91.28418%, 94.255066%, 100%)" offset="0.484375"/><stop stop-opacity="1" stop-color="rgb(90.957642%, 94.039917%, 100%)" offset="0.5"/><stop stop-opacity="1" stop-color="rgb(90.632629%, 93.824768%, 100%)" offset="0.515625"/><stop stop-opacity="1" stop-color="rgb(90.306091%, 93.611145%, 100%)" offset="0.53125"/><stop stop-opacity="1" stop-color="rgb(89.981079%, 93.395996%, 100%)" offset="0.546875"/><stop stop-opacity="1" stop-color="rgb(89.656067%, 93.180847%, 100%)" offset="0.5625"/><stop stop-opacity="1" stop-color="rgb(89.329529%, 92.967224%, 100%)" offset="0.578125"/><stop stop-opacity="1" stop-color="rgb(89.004517%, 92.752075%, 100%)" offset="0.59375"/><stop stop-opacity="1" stop-color="rgb(88.677979%, 92.536926%, 100%)" offset="0.609375"/><stop stop-opacity="1" stop-color="rgb(88.352966%, 92.323303%, 100%)" offset="0.625"/><stop stop-opacity="1" stop-color="rgb(88.026428%, 92.108154%, 100%)" offset="0.640625"/><stop stop-opacity="1" stop-color="rgb(87.701416%, 91.893005%, 100%)" offset="0.65625"/><stop stop-opacity="1" stop-color="rgb(87.374878%, 91.679382%, 100%)" offset="0.671875"/><stop stop-opacity="1" stop-color="rgb(87.049866%, 91.464233%, 100%)" offset="0.6875"/><stop stop-opacity="1" stop-color="rgb(86.724854%, 91.249084%, 100%)" offset="0.703125"/><stop stop-opacity="1" stop-color="rgb(86.398315%, 91.035461%, 100%)" offset="0.71875"/><stop stop-opacity="1" stop-color="rgb(86.073303%, 90.820312%, 100%)" offset="0.734375"/><stop stop-opacity="1" stop-color="rgb(85.746765%, 90.605164%, 100%)" offset="0.75"/><stop stop-opacity="1" stop-color="rgb(85.421753%, 90.391541%, 100%)" offset="0.765625"/><stop stop-opacity="1" stop-color="rgb(85.095215%, 90.176392%, 100%)" offset="0.78125"/><stop stop-opacity="1" stop-color="rgb(84.770203%, 89.961243%, 100%)" offset="0.796875"/><stop stop-opacity="1" stop-color="rgb(84.443665%, 89.74762%, 100%)" offset="0.8125"/><stop stop-opacity="1" stop-color="rgb(84.118652%, 89.532471%, 100%)" offset="0.828125"/><stop stop-opacity="1" stop-color="rgb(83.79364%, 89.317322%, 100%)" offset="0.84375"/><stop stop-opacity="1" stop-color="rgb(83.467102%, 89.102173%, 100%)" offset="0.859375"/><stop stop-opacity="1" stop-color="rgb(83.14209%, 88.88855%, 100%)" offset="0.875"/><stop stop-opacity="1" stop-color="rgb(82.815552%, 88.673401%, 100%)" offset="0.890625"/><stop stop-opacity="1" stop-color="rgb(82.49054%, 88.458252%, 100%)" offset="0.90625"/><stop stop-opacity="1" stop-color="rgb(82.164001%, 88.244629%, 100%)" offset="0.921875"/><stop stop-opacity="1" stop-color="rgb(81.838989%, 88.02948%, 100%)" offset="0.9375"/><stop stop-opacity="1" stop-color="rgb(81.512451%, 87.814331%, 100%)" offset="0.953125"/><stop stop-opacity="1" stop-color="rgb(81.187439%, 87.600708%, 100%)" offset="0.96875"/><stop stop-opacity="1" stop-color="rgb(80.860901%, 87.385559%, 100%)" offset="0.984375"/><stop stop-opacity="1" stop-color="rgb(80.535889%, 87.17041%, 100%)" offset="1"/></linearGradient><clipPath id="d1155ea231"><path d="M 287 15.246094 L 358 15.246094 L 358 88 L 287 88 Z M 287 15.246094 " clip-rule="nonzero"/></clipPath><clipPath id="19fc0d1fa0"><path d="M 117 47 L 357 47 L 357 274 L 117 274 Z M 117 47 " clip-rule="nonzero"/></clipPath><clipPath id="db38ef61cf"><path d="M 352.382812 54.890625 C 354.363281 52.910156 355.777344 50.484375 356.660156 47.867188 C 353.023438 47.921875 348.199219 48.40625 342.207031 49.855469 C 326.855469 53.566406 312.960938 61.78125 301.792969 72.945312 L 117.511719 257.230469 L 133.773438 273.496094 Z M 352.382812 54.890625 " clip-rule="nonzero"/></clipPath><linearGradient x1="1865.09" gradientTransform="matrix(0.579979, 0.579999, -0.579999, 0.579979, -1293.065764, -479.414048)" y1="-566.996178" x2="1865.09" gradientUnits="userSpaceOnUse" y2="-967.672783" id="7ace5dc302"><stop stop-opacity="1" stop-color="rgb(50.59967%, 62.399292%, 91.799927%)" offset="0"/><stop stop-opacity="1" stop-color="rgb(50.59967%, 62.399292%, 91.799927%)" offset="0.0625"/><stop stop-opacity="1" stop-color="rgb(50.624084%, 62.42218%, 91.810608%)" offset="0.09375"/><stop stop-opacity="1" stop-color="rgb(50.776672%, 62.557983%, 91.882324%)" offset="0.109375"/><stop stop-opacity="1" stop-color="rgb(51.031494%, 62.785339%, 92.002869%)" offset="0.125"/><stop stop-opacity="1" stop-color="rgb(51.286316%, 63.011169%, 92.121887%)" offset="0.140625"/><stop stop-opacity="1" stop-color="rgb(51.539612%, 63.238525%, 92.240906%)" offset="0.15625"/><stop stop-opacity="1" stop-color="rgb(51.794434%, 63.465881%, 92.359924%)" offset="0.171875"/><stop stop-opacity="1" stop-color="rgb(52.049255%, 63.693237%, 92.480469%)" offset="0.1875"/><stop stop-opacity="1" stop-color="rgb(52.302551%, 63.919067%, 92.599487%)" offset="0.203125"/><stop stop-opacity="1" stop-color="rgb(52.557373%, 64.146423%, 92.718506%)" offset="0.21875"/><stop stop-opacity="1" stop-color="rgb(52.812195%, 64.373779%, 92.83905%)" offset="0.234375"/><stop stop-opacity="1" stop-color="rgb(53.065491%, 64.601135%, 92.958069%)" offset="0.25"/><stop stop-opacity="1" stop-color="rgb(53.320312%, 64.828491%, 93.077087%)" offset="0.265625"/><stop stop-opacity="1" stop-color="rgb(53.575134%, 65.054321%, 93.197632%)" offset="0.28125"/><stop stop-opacity="1" stop-color="rgb(53.82843%, 65.281677%, 93.31665%)" offset="0.296875"/><stop stop-opacity="1" stop-color="rgb(54.083252%, 65.509033%, 93.435669%)" offset="0.3125"/><stop stop-opacity="1" stop-color="rgb(54.338074%, 65.736389%, 93.554688%)" offset="0.328125"/><stop stop-opacity="1" stop-color="rgb(54.59137%, 65.962219%, 93.675232%)" offset="0.34375"/><stop stop-opacity="1" stop-color="rgb(54.846191%, 66.189575%, 93.79425%)" offset="0.359375"/><stop stop-opacity="1" stop-color="rgb(55.101013%, 66.416931%, 93.913269%)" offset="0.375"/><stop stop-opacity="1" stop-color="rgb(55.354309%, 66.644287%, 94.033813%)" offset="0.390625"/><stop stop-opacity="1" stop-color="rgb(55.609131%, 66.871643%, 94.152832%)" offset="0.40625"/><stop stop-opacity="1" stop-color="rgb(55.863953%, 67.097473%, 94.271851%)" offset="0.421875"/><stop stop-opacity="1" stop-color="rgb(56.117249%, 67.324829%, 94.392395%)" offset="0.4375"/><stop stop-opacity="1" stop-color="rgb(56.37207%, 67.552185%, 94.511414%)" offset="0.453125"/><stop stop-opacity="1" stop-color="rgb(56.626892%, 67.779541%, 94.630432%)" offset="0.46875"/><stop stop-opacity="1" stop-color="rgb(56.880188%, 68.005371%, 94.750977%)" offset="0.484375"/><stop stop-opacity="1" stop-color="rgb(57.13501%, 68.232727%, 94.869995%)" offset="0.5"/><stop stop-opacity="1" stop-color="rgb(57.389832%, 68.460083%, 94.989014%)" offset="0.515625"/><stop stop-opacity="1" stop-color="rgb(57.643127%, 68.687439%, 95.108032%)" offset="0.53125"/><stop stop-opacity="1" stop-color="rgb(57.897949%, 68.913269%, 95.228577%)" offset="0.546875"/><stop stop-opacity="1" stop-color="rgb(58.152771%, 69.140625%, 95.347595%)" offset="0.5625"/><stop stop-opacity="1" stop-color="rgb(58.406067%, 69.367981%, 95.466614%)" offset="0.578125"/><stop stop-opacity="1" stop-color="rgb(58.660889%, 69.595337%, 95.587158%)" offset="0.59375"/><stop stop-opacity="1" stop-color="rgb(58.91571%, 69.822693%, 95.706177%)" offset="0.609375"/><stop stop-opacity="1" stop-color="rgb(59.169006%, 70.048523%, 95.825195%)" offset="0.625"/><stop stop-opacity="1" stop-color="rgb(59.423828%, 70.275879%, 95.94574%)" offset="0.640625"/><stop stop-opacity="1" stop-color="rgb(59.67865%, 70.503235%, 96.064758%)" offset="0.65625"/><stop stop-opacity="1" stop-color="rgb(59.931946%, 70.730591%, 96.183777%)" offset="0.671875"/><stop stop-opacity="1" stop-color="rgb(60.186768%, 70.956421%, 96.302795%)" offset="0.6875"/><stop stop-opacity="1" stop-color="rgb(60.441589%, 71.183777%, 96.42334%)" offset="0.703125"/><stop stop-opacity="1" stop-color="rgb(60.694885%, 71.411133%, 96.542358%)" offset="0.71875"/><stop stop-opacity="1" stop-color="rgb(60.949707%, 71.638489%, 96.661377%)" offset="0.734375"/><stop stop-opacity="1" stop-color="rgb(61.204529%, 71.865845%, 96.781921%)" offset="0.75"/><stop stop-opacity="1" stop-color="rgb(61.457825%, 72.091675%, 96.90094%)" offset="0.765625"/><stop stop-opacity="1" stop-color="rgb(61.712646%, 72.319031%, 97.019958%)" offset="0.78125"/><stop stop-opacity="1" stop-color="rgb(61.967468%, 72.546387%, 97.140503%)" offset="0.796875"/><stop stop-opacity="1" stop-color="rgb(62.220764%, 72.773743%, 97.259521%)" offset="0.8125"/><stop stop-opacity="1" stop-color="rgb(62.475586%, 72.999573%, 97.37854%)" offset="0.828125"/><stop stop-opacity="1" stop-color="rgb(62.730408%, 73.226929%, 97.497559%)" offset="0.84375"/><stop stop-opacity="1" stop-color="rgb(62.983704%, 73.454285%, 97.618103%)" offset="0.859375"/><stop stop-opacity="1" stop-color="rgb(63.238525%, 73.681641%, 97.737122%)" offset="0.875"/><stop stop-opacity="1" stop-color="rgb(63.493347%, 73.908997%, 97.85614%)" offset="0.890625"/><stop stop-opacity="1" stop-color="rgb(63.746643%, 74.134827%, 97.976685%)" offset="0.90625"/><stop stop-opacity="1" stop-color="rgb(64.001465%, 74.362183%, 98.095703%)" offset="0.921875"/><stop stop-opacity="1" stop-color="rgb(64.256287%, 74.589539%, 98.214722%)" offset="0.9375"/><stop stop-opacity="1" stop-color="rgb(64.509583%, 74.816895%, 98.335266%)" offset="0.953125"/><stop stop-opacity="1" stop-color="rgb(64.764404%, 75.042725%, 98.454285%)" offset="0.96875"/><stop stop-opacity="1" stop-color="rgb(65.019226%, 75.270081%, 98.573303%)" offset="0.984375"/><stop stop-opacity="1" stop-color="rgb(65.272522%, 75.497437%, 98.692322%)" offset="1"/></linearGradient></defs><path fill="#b75798" d="M 113.113281 261.628906 L 102.1875 250.703125 L 30.25 322.640625 L 41.171875 333.570312 L 52.097656 344.492188 L 124.035156 272.554688 Z M 113.113281 261.628906 " fill-opacity="1" fill-rule="nonzero"/><g clip-path="url(#40003abe8b)"><path fill="#ffd9be" d="M 58.582031 340.398438 L 53.34375 321.394531 L 34.34375 316.160156 C 32.152344 315.554688 29.804688 316.175781 28.195312 317.78125 L 17.367188 328.609375 C 15.242188 330.738281 15.242188 334.183594 17.367188 336.308594 L 38.429688 357.371094 C 40.558594 359.5 44.003906 359.5 46.128906 357.371094 L 56.957031 346.542969 C 58.566406 344.9375 59.183594 342.589844 58.582031 340.398438 Z M 58.582031 340.398438 " fill-opacity="1" fill-rule="nonzero"/></g><path fill="#7f2467" d="M 102.1875 250.703125 L 89.972656 262.921875 L 111.820312 284.769531 L 124.035156 272.554688 L 113.113281 261.628906 Z M 102.1875 250.703125 " fill-opacity="1" fill-rule="nonzero"/><path fill="#7f2467" d="M 92.328125 304.265625 L 70.480469 282.417969 L 76.144531 276.753906 L 97.992188 298.601562 Z M 92.328125 304.265625 " fill-opacity="1" fill-rule="nonzero"/><path fill="#7f2467" d="M 72.832031 323.757812 L 50.984375 301.90625 L 56.648438 296.242188 L 78.5 318.09375 Z M 72.832031 323.757812 " fill-opacity="1" fill-rule="nonzero"/><path fill="#ffbf76" d="M 21.78125 340.722656 L 38.429688 357.371094 C 40.558594 359.496094 44.003906 359.496094 46.128906 357.371094 L 56.957031 346.542969 C 58.566406 344.9375 59.183594 342.589844 58.582031 340.398438 L 53.34375 321.394531 L 39.855469 334.886719 C 39.855469 334.886719 32.78125 342.871094 21.78125 340.722656 Z M 21.78125 340.722656 " fill-opacity="1" fill-rule="nonzero"/><g clip-path="url(#885b076ed8)"><g clip-path="url(#6188a3a343)"><path fill="url(#70aa79f2db)" d="M 230.359375 -113.839844 L -27.867188 144.378906 L 230.351562 402.609375 L 488.582031 144.390625 Z M 230.359375 -113.839844 " fill-rule="nonzero"/></g></g><path fill="#c7daff" d="M 160.75 181.457031 L 101.242188 240.964844 L 117.511719 257.230469 L 210.328125 164.410156 C 190.203125 175.660156 172.359375 179.90625 160.75 181.457031 Z M 160.75 181.457031 " fill-opacity="1" fill-rule="nonzero"/><path fill="#c7daff" d="M 285.828125 90.351562 C 286.296875 89.429688 286.765625 88.480469 287.230469 87.507812 L 210.328125 164.410156 C 223.191406 157.222656 236.976562 147.195312 250.671875 133.128906 L 264.496094 119.304688 C 273.019531 110.777344 280.34375 101.089844 285.828125 90.351562 Z M 285.828125 90.351562 " fill-opacity="1" fill-rule="nonzero"/><g clip-path="url(#d1155ea231)"><path fill="#c7daff" d="M 352.664062 15.546875 L 331.296875 17.117188 C 326.976562 17.433594 322.914062 19.292969 319.851562 22.359375 L 297.59375 44.613281 C 297.582031 61.148438 292.757812 75.953125 287.230469 87.507812 L 357.425781 17.316406 C 356.222656 16.113281 354.523438 15.410156 352.664062 15.546875 Z M 352.664062 15.546875 " fill-opacity="1" fill-rule="nonzero"/></g><g clip-path="url(#19fc0d1fa0)"><g clip-path="url(#db38ef61cf)"><path fill="url(#7ace5dc302)" d="M 237.089844 -71.707031 L 4.695312 160.679688 L 237.082031 393.070312 L 469.472656 160.6875 Z M 237.089844 -71.707031 " fill-rule="nonzero"/></g></g><path fill="#ffd9be" d="M 183.796875 321.378906 C 185.160156 318.039062 187.636719 310.417969 186.6875 300.835938 C 186.4375 298.339844 183.816406 296.890625 181.585938 298.03125 C 177.1875 300.28125 170.195312 302.371094 164.828125 297 L 132.230469 264.851562 L 130.328125 244.414062 L 109.890625 242.511719 L 77.738281 209.914062 C 72.371094 204.542969 74.460938 197.554688 76.707031 193.15625 C 77.847656 190.925781 76.398438 188.300781 73.90625 188.054688 C 64.324219 187.101562 56.699219 189.578125 53.363281 190.941406 C 52.199219 191.417969 51.21875 192.265625 50.621094 193.371094 C 45.53125 202.800781 44.996094 212.683594 45.375 219.078125 C 45.523438 221.515625 48.417969 222.726562 50.277344 221.136719 C 56.480469 215.816406 63.226562 218.785156 63.226562 218.785156 L 155.957031 311.515625 C 155.957031 311.515625 158.925781 318.257812 153.605469 324.464844 C 152.015625 326.320312 153.222656 329.21875 155.664062 329.363281 C 162.054688 329.746094 171.941406 329.207031 181.367188 324.117188 C 182.472656 323.523438 183.320312 322.539062 183.796875 321.378906 Z M 183.796875 321.378906 " fill-opacity="1" fill-rule="nonzero"/><path fill="#ffbf76" d="M 155.957031 311.515625 C 155.957031 311.515625 158.925781 318.261719 153.605469 324.464844 C 152.015625 326.320312 153.222656 329.21875 155.664062 329.363281 C 162.054688 329.75 171.941406 329.210938 181.367188 324.121094 C 182.472656 323.523438 183.320312 322.539062 183.796875 321.378906 C 185.160156 318.039062 187.636719 310.417969 186.6875 300.835938 C 186.4375 298.339844 183.816406 296.890625 181.582031 298.03125 C 177.1875 300.28125 170.195312 302.371094 164.824219 297 L 132.230469 264.851562 L 130.328125 244.414062 L 109.589844 265.148438 Z M 155.957031 311.515625 " fill-opacity="1" fill-rule="nonzero"/><path fill="#fffcff" d="M 81.773438 237.332031 L 93.324219 248.882812 L 104.847656 237.359375 L 93.367188 225.742188 Z M 81.773438 237.332031 " fill-opacity="1" fill-rule="nonzero"/><path fill="#fffcff" d="M 67.324219 222.882812 L 74.019531 229.578125 L 85.652344 217.945312 L 79.003906 211.207031 Z M 67.324219 222.882812 " fill-opacity="1" fill-rule="nonzero"/></svg>