<svg xmlns="http://www.w3.org/2000/svg" xmlns:xlink="http://www.w3.org/1999/xlink" width="2304" zoomAndPan="magnify" viewBox="0 0 1728 1295.99994" height="1728" preserveAspectRatio="xMidYMid meet" version="1.0"><defs><g/></defs><g fill="#ffffff" fill-opacity="1"><g transform="translate(-19.416429, 592.829932)"><g><path d="M 97.171875 -105.859375 L 97.171875 0 L 51.484375 0 L 51.484375 -105.859375 L 4.75 -105.859375 L 4.75 -142.25 L 143.6875 -142.25 L 143.6875 -105.859375 Z M 97.171875 -105.859375 "/></g></g></g><g fill="#ffffff" fill-opacity="1"><g transform="translate(154.241538, 592.829932)"><g><path d="M 111.234375 0 L 111.234375 -53.96875 L 60.984375 -53.96875 L 60.984375 0 L 15.296875 0 L 15.296875 -142.25 L 60.984375 -142.25 L 60.984375 -90.34375 L 111.234375 -90.34375 L 111.234375 -142.25 L 156.921875 -142.25 L 156.921875 0 Z M 111.234375 0 "/></g></g></g><g fill="#ffffff" fill-opacity="1"><g transform="translate(350.846908, 592.829932)"><g><path d="M 15.296875 -142.25 L 138.3125 -142.25 L 138.3125 -108.125 L 60.984375 -108.125 L 60.984375 -88.484375 L 127.15625 -88.484375 L 127.15625 -55.828125 L 60.984375 -55.828125 L 60.984375 -34.109375 L 139.765625 -34.109375 L 139.765625 0 L 15.296875 0 Z M 15.296875 -142.25 "/></g></g></g><g fill="#ffffff" fill-opacity="1"><g transform="translate(524.504862, 592.829932)"><g/></g></g><g fill="#ffffff" fill-opacity="1"><g transform="translate(617.743563, 592.829932)"><g><path d="M 83.109375 -144.71875 C 104.203125 -144.71875 120.878906 -139.445312 133.140625 -128.90625 C 145.410156 -118.363281 151.546875 -103.304688 151.546875 -83.734375 L 107.921875 -83.734375 C 107.921875 -92.003906 105.75 -98.550781 101.40625 -103.375 C 97.0625 -108.195312 90.894531 -110.609375 82.90625 -110.609375 C 73.664062 -110.609375 66.875 -107.710938 62.53125 -101.921875 C 58.195312 -96.140625 56.03125 -88.078125 56.03125 -77.734375 L 56.03125 -64.5 C 56.03125 -54.300781 58.195312 -46.269531 62.53125 -40.40625 C 66.875 -34.550781 73.53125 -31.625 82.5 -31.625 C 91.3125 -31.625 97.992188 -33.898438 102.546875 -38.453125 C 107.097656 -43.003906 109.375 -49.414062 109.375 -57.6875 L 151.546875 -57.6875 C 151.546875 -38.25 145.582031 -23.359375 133.65625 -13.015625 C 121.738281 -2.679688 104.890625 2.484375 83.109375 2.484375 C 58.847656 2.484375 40.476562 -3.71875 28 -16.125 C 15.53125 -28.53125 9.296875 -46.863281 9.296875 -71.125 C 9.296875 -95.382812 15.53125 -113.710938 28 -126.109375 C 40.476562 -138.515625 58.847656 -144.71875 83.109375 -144.71875 Z M 83.109375 -144.71875 "/></g></g></g><g fill="#ffffff" fill-opacity="1"><g transform="translate(802.978613, 592.829932)"><g><path d="M 111.234375 0 L 111.234375 -53.96875 L 60.984375 -53.96875 L 60.984375 0 L 15.296875 0 L 15.296875 -142.25 L 60.984375 -142.25 L 60.984375 -90.34375 L 111.234375 -90.34375 L 111.234375 -142.25 L 156.921875 -142.25 L 156.921875 0 Z M 111.234375 0 "/></g></g></g><g fill="#ffffff" fill-opacity="1"><g transform="translate(999.583946, 592.829932)"><g><path d="M 86.015625 -144.71875 C 110.546875 -144.71875 129.492188 -138.445312 142.859375 -125.90625 C 156.234375 -113.363281 162.921875 -95.101562 162.921875 -71.125 C 162.921875 -47.132812 156.234375 -28.867188 142.859375 -16.328125 C 129.492188 -3.785156 110.546875 2.484375 86.015625 2.484375 C 61.472656 2.484375 42.550781 -3.75 29.25 -16.21875 C 15.945312 -28.695312 9.296875 -47 9.296875 -71.125 C 9.296875 -95.238281 15.945312 -113.53125 29.25 -126 C 42.550781 -138.476562 61.472656 -144.71875 86.015625 -144.71875 Z M 86.015625 -110.609375 C 76.222656 -110.609375 68.773438 -107.644531 63.671875 -101.71875 C 58.578125 -95.789062 56.03125 -87.796875 56.03125 -77.734375 L 56.03125 -64.5 C 56.03125 -54.4375 58.578125 -46.441406 63.671875 -40.515625 C 68.773438 -34.585938 76.222656 -31.625 86.015625 -31.625 C 95.796875 -31.625 103.269531 -34.585938 108.4375 -40.515625 C 113.601562 -46.441406 116.1875 -54.4375 116.1875 -64.5 L 116.1875 -77.734375 C 116.1875 -87.796875 113.601562 -95.789062 108.4375 -101.71875 C 103.269531 -107.644531 95.796875 -110.609375 86.015625 -110.609375 Z M 86.015625 -110.609375 "/></g></g></g><g fill="#ffffff" fill-opacity="1"><g transform="translate(1196.189278, 592.829932)"><g><path d="M 75.046875 -144.71875 C 93.242188 -144.71875 108.195312 -141.03125 119.90625 -133.65625 C 131.625 -126.289062 137.625 -115.367188 137.90625 -100.890625 L 137.90625 -98.40625 L 95.109375 -98.40625 L 95.109375 -99.234375 C 95.109375 -103.367188 93.59375 -106.816406 90.5625 -109.578125 C 87.53125 -112.335938 82.910156 -113.71875 76.703125 -113.71875 C 70.640625 -113.71875 65.988281 -112.820312 62.75 -111.03125 C 59.507812 -109.238281 57.890625 -107.03125 57.890625 -104.40625 C 57.890625 -100.6875 60.09375 -97.929688 64.5 -96.140625 C 68.914062 -94.347656 76.015625 -92.488281 85.796875 -90.5625 C 97.242188 -88.21875 106.648438 -85.769531 114.015625 -83.21875 C 121.390625 -80.664062 127.832031 -76.492188 133.34375 -70.703125 C 138.863281 -64.921875 141.691406 -57.066406 141.828125 -47.140625 C 141.828125 -30.328125 136.140625 -17.851562 124.765625 -9.71875 C 113.398438 -1.582031 98.207031 2.484375 79.1875 2.484375 C 57 2.484375 39.734375 -1.234375 27.390625 -8.671875 C 15.054688 -16.117188 8.890625 -29.285156 8.890625 -48.171875 L 52.09375 -48.171875 C 52.09375 -41.003906 53.953125 -36.210938 57.671875 -33.796875 C 61.398438 -31.390625 67.191406 -30.1875 75.046875 -30.1875 C 80.835938 -30.1875 85.628906 -30.804688 89.421875 -32.046875 C 93.210938 -33.285156 95.109375 -35.835938 95.109375 -39.703125 C 95.109375 -43.140625 93.003906 -45.71875 88.796875 -47.4375 C 84.597656 -49.164062 77.742188 -50.992188 68.234375 -52.921875 C 56.648438 -55.410156 47.066406 -58 39.484375 -60.6875 C 31.910156 -63.375 25.296875 -67.816406 19.640625 -74.015625 C 13.992188 -80.210938 11.171875 -88.617188 11.171875 -99.234375 C 11.171875 -114.816406 17.195312 -126.289062 29.25 -133.65625 C 41.3125 -141.03125 56.578125 -144.71875 75.046875 -144.71875 Z M 75.046875 -144.71875 "/></g></g></g><g fill="#ffffff" fill-opacity="1"><g transform="translate(1369.847208, 592.829932)"><g><path d="M 15.296875 -142.25 L 138.3125 -142.25 L 138.3125 -108.125 L 60.984375 -108.125 L 60.984375 -88.484375 L 127.15625 -88.484375 L 127.15625 -55.828125 L 60.984375 -55.828125 L 60.984375 -34.109375 L 139.765625 -34.109375 L 139.765625 0 L 15.296875 0 Z M 15.296875 -142.25 "/></g></g></g><g fill="#ffffff" fill-opacity="1"><g transform="translate(1543.505138, 592.829932)"><g><path d="M 117.015625 0 L 57.265625 -69.046875 L 57.265625 0 L 15.296875 0 L 15.296875 -142.25 L 55.203125 -142.25 L 114.953125 -72.15625 L 114.953125 -142.25 L 156.921875 -142.25 L 156.921875 0 Z M 117.015625 0 "/></g></g></g><g fill="#ffffff" fill-opacity="1"><g transform="translate(608.001578, 696.787385)"><g><path d="M 14.597656 -25.082031 L 14.597656 -32.46875 L 27.902344 -32.46875 L 26.4375 -41.316406 L 2.820312 -41.316406 L 2.820312 0 L 14.597656 0 L 14.597656 -19.164062 L 26.4375 -19.164062 L 26.4375 -25.082031 Z M 14.597656 -25.082031 "/></g></g></g><g fill="#ffffff" fill-opacity="1"><g transform="translate(641.254838, 696.787385)"><g><path d="M 21.363281 -11.78125 L 24.746094 0 L 36.527344 0 L 24.746094 -41.316406 L 12.90625 -41.316406 L 1.128906 0 L 9.976562 0 L 13.359375 -11.78125 Z M 19.671875 -17.699219 L 15.050781 -17.699219 L 17.359375 -25.816406 Z M 19.671875 -17.699219 "/></g></g></g><g fill="#ffffff" fill-opacity="1"><g transform="translate(682.567509, 696.787385)"><g><path d="M 2.820312 -41.316406 L 2.820312 0 L 11.667969 0 L 11.667969 -24.800781 L 24.972656 0 L 38.21875 0 L 38.21875 -41.316406 L 29.367188 -41.316406 L 29.367188 -16.515625 L 16.121094 -41.316406 Z M 2.820312 -41.316406 "/></g></g></g><g fill="#ffffff" fill-opacity="1"><g transform="translate(727.261739, 696.787385)"><g><path d="M 23.28125 -32.46875 L 33.59375 -32.46875 L 32.128906 -41.316406 L 2.59375 -41.316406 L 1.128906 -32.46875 L 11.441406 -32.46875 L 11.441406 0 L 23.28125 0 Z M 23.28125 -32.46875 "/></g></g></g><g fill="#ffffff" fill-opacity="1"><g transform="translate(765.643707, 696.787385)"><g><path d="M 21.363281 -11.78125 L 24.746094 0 L 36.527344 0 L 24.746094 -41.316406 L 12.90625 -41.316406 L 1.128906 0 L 9.976562 0 L 13.359375 -11.78125 Z M 19.671875 -17.699219 L 15.050781 -17.699219 L 17.359375 -25.816406 Z M 19.671875 -17.699219 "/></g></g></g><g fill="#ffffff" fill-opacity="1"><g transform="translate(806.956378, 696.787385)"><g><path d="M 22.320312 -8.851562 C 22.320312 -8.058594 21.925781 -7.382812 21.195312 -6.820312 C 20.460938 -6.199219 19.390625 -5.917969 17.925781 -5.917969 C 16.683594 -5.917969 15.445312 -6.144531 14.316406 -6.707031 C 13.191406 -7.214844 12.117188 -7.835938 11.160156 -8.625 C 10.144531 -9.414062 9.300781 -10.257812 8.511719 -11.160156 C 7.722656 -12.0625 7.046875 -12.964844 6.539062 -13.753906 L 1.691406 -8.851562 C 3.042969 -7.160156 4.398438 -5.804688 5.75 -4.679688 C 7.101562 -3.550781 8.511719 -2.648438 9.976562 -1.972656 C 11.386719 -1.238281 12.851562 -0.734375 14.429688 -0.449219 C 16.007812 -0.113281 17.644531 0 19.390625 0 C 21.984375 0 24.179688 -0.394531 26.042969 -1.183594 C 27.902344 -1.972656 29.421875 -2.988281 30.664062 -4.226562 C 31.847656 -5.410156 32.75 -6.707031 33.3125 -8.058594 C 33.875 -9.414062 34.160156 -10.652344 34.160156 -11.78125 C 34.160156 -13.980469 33.652344 -15.894531 32.636719 -17.53125 C 31.621094 -19.164062 30.324219 -20.574219 28.804688 -21.8125 C 27.226562 -23.054688 25.589844 -24.125 23.785156 -25.082031 C 21.984375 -25.984375 20.347656 -26.886719 18.828125 -27.675781 C 17.25 -28.464844 16.007812 -29.199219 14.992188 -29.988281 C 13.980469 -30.71875 13.472656 -31.566406 13.472656 -32.46875 C 13.472656 -33.199219 13.808594 -33.875 14.597656 -34.496094 C 15.332031 -35.058594 16.460938 -35.398438 17.925781 -35.398438 C 19.164062 -35.398438 20.347656 -35.117188 21.476562 -34.609375 C 22.601562 -34.046875 23.675781 -33.425781 24.6875 -32.636719 C 25.648438 -31.847656 26.550781 -31.003906 27.339844 -30.101562 C 28.128906 -29.199219 28.746094 -28.351562 29.3125 -27.5625 L 34.160156 -32.46875 C 31.453125 -35.679688 28.691406 -37.933594 25.871094 -39.289062 C 23.054688 -40.640625 19.898438 -41.316406 16.460938 -41.316406 C 13.867188 -41.316406 11.613281 -40.867188 9.75 -40.078125 C 7.890625 -39.289062 6.371094 -38.273438 5.1875 -37.089844 C 3.945312 -35.851562 3.101562 -34.554688 2.535156 -33.199219 C 1.972656 -31.847656 1.691406 -30.609375 1.691406 -29.535156 C 1.691406 -27.28125 2.199219 -25.367188 3.214844 -23.730469 C 4.226562 -22.097656 5.46875 -20.6875 7.046875 -19.445312 C 8.566406 -18.207031 10.203125 -17.136719 12.007812 -16.234375 C 13.808594 -15.277344 15.445312 -14.429688 16.964844 -13.640625 C 18.488281 -12.851562 19.785156 -12.0625 20.800781 -11.328125 C 21.8125 -10.539062 22.320312 -9.75 22.320312 -8.851562 Z M 22.320312 -8.851562 "/></g></g></g><g fill="#ffffff" fill-opacity="1"><g transform="translate(846.465544, 696.787385)"><g><path d="M 37.089844 -41.316406 L 28.238281 -41.316406 C 28.183594 -41.203125 28.183594 -41.203125 28.238281 -41.261719 C 28.238281 -41.316406 28.238281 -41.316406 28.183594 -41.203125 C 28.128906 -41.09375 28.015625 -40.753906 27.789062 -40.300781 C 27.5625 -39.851562 27.226562 -39.0625 26.773438 -37.933594 C 26.324219 -36.808594 25.648438 -35.230469 24.800781 -33.3125 C 23.957031 -31.339844 22.886719 -28.804688 21.589844 -25.761719 C 20.234375 -28.804688 19.164062 -31.339844 18.375 -33.3125 C 17.53125 -35.230469 16.855469 -36.808594 16.402344 -37.933594 C 15.894531 -39.0625 15.558594 -39.851562 15.386719 -40.300781 C 15.164062 -40.753906 15.050781 -41.09375 14.992188 -41.203125 C 14.9375 -41.316406 14.9375 -41.316406 14.992188 -41.261719 C 14.992188 -41.203125 14.992188 -41.203125 14.992188 -41.316406 L 1.691406 -41.316406 L 13.472656 -13.640625 L 13.472656 0 L 25.308594 0 L 25.308594 -13.640625 Z M 37.089844 -41.316406 "/></g></g></g><g fill="#ffffff" fill-opacity="1"><g transform="translate(888.905379, 696.787385)"><g/></g></g><g fill="#ffffff" fill-opacity="1"><g transform="translate(909.477755, 696.787385)"><g><path d="M 38.613281 -23.617188 L 20.855469 -23.617188 L 19.390625 -17.699219 L 26.773438 -17.699219 L 26.773438 -7.382812 C 26.4375 -7.046875 26.042969 -6.820312 25.648438 -6.652344 C 25.253906 -6.425781 24.800781 -6.257812 24.292969 -6.144531 C 23.730469 -5.976562 23.109375 -5.917969 22.378906 -5.917969 C 21.136719 -5.917969 20.011719 -6.3125 19.050781 -7.101562 C 18.09375 -7.890625 17.304688 -8.90625 16.683594 -10.257812 C 16.007812 -11.554688 15.558594 -13.078125 15.21875 -14.769531 C 14.882812 -16.460938 14.769531 -18.148438 14.769531 -19.953125 C 14.769531 -21.871094 14.9375 -23.730469 15.332031 -25.589844 C 15.671875 -27.394531 16.234375 -29.027344 17.023438 -30.496094 C 17.753906 -31.960938 18.714844 -33.144531 19.839844 -34.046875 C 20.96875 -34.949219 22.265625 -35.398438 23.84375 -35.398438 C 25.308594 -35.398438 26.492188 -35.058594 27.449219 -34.496094 C 28.351562 -33.875 29.140625 -33.199219 29.707031 -32.46875 C 30.382812 -31.566406 30.890625 -30.609375 31.226562 -29.535156 L 35.625 -33.933594 C 34.664062 -35.285156 33.539062 -36.46875 32.296875 -37.597656 C 31.171875 -38.5 29.820312 -39.34375 28.183594 -40.132812 C 26.492188 -40.921875 24.578125 -41.316406 22.378906 -41.316406 C 18.882812 -41.316406 15.894531 -40.699219 13.300781 -39.457031 C 10.710938 -38.21875 8.511719 -36.640625 6.820312 -34.664062 C 5.128906 -32.636719 3.832031 -30.382812 2.988281 -27.902344 C 2.085938 -25.367188 1.691406 -22.773438 1.691406 -20.179688 C 1.691406 -17.585938 2.085938 -15.105469 2.875 -12.683594 C 3.664062 -10.257812 4.902344 -8.117188 6.480469 -6.257812 C 8.058594 -4.339844 10.089844 -2.820312 12.457031 -1.691406 C 14.824219 -0.5625 17.644531 0 20.855469 0 C 22.492188 0 24.011719 -0.113281 25.421875 -0.339844 C 26.773438 -0.5625 28.070312 -0.902344 29.199219 -1.351562 C 30.324219 -1.746094 31.398438 -2.199219 32.296875 -2.761719 C 33.199219 -3.269531 34.046875 -3.832031 34.722656 -4.398438 C 36.300781 -5.636719 37.597656 -7.160156 38.613281 -8.851562 Z M 38.613281 -23.617188 "/></g></g></g><g fill="#ffffff" fill-opacity="1"><g transform="translate(953.439306, 696.787385)"><g><path d="M 21.363281 -11.78125 L 24.746094 0 L 36.527344 0 L 24.746094 -41.316406 L 12.90625 -41.316406 L 1.128906 0 L 9.976562 0 L 13.359375 -11.78125 Z M 19.671875 -17.699219 L 15.050781 -17.699219 L 17.359375 -25.816406 Z M 19.671875 -17.699219 "/></g></g></g><g fill="#ffffff" fill-opacity="1"><g transform="translate(994.751976, 696.787385)"><g><path d="M 47.066406 -41.316406 L 32.355469 -41.316406 L 24.972656 -15.5 L 17.585938 -41.316406 L 2.820312 -41.316406 L 2.820312 0 L 11.667969 0 L 11.667969 -20.628906 L 17.585938 0 L 29.367188 0 L 35.285156 -20.628906 L 35.285156 0 L 47.066406 0 Z M 47.066406 -41.316406 "/></g></g></g><g fill="#ffffff" fill-opacity="1"><g transform="translate(1048.294654, 696.787385)"><g><path d="M 29.367188 -8.851562 L 14.597656 -8.851562 L 14.597656 -16.234375 L 26.4375 -16.234375 L 26.4375 -25.082031 L 14.597656 -25.082031 L 14.597656 -32.46875 L 27.902344 -32.46875 L 26.4375 -41.316406 L 2.820312 -41.316406 L 2.820312 0 L 27.902344 0 Z M 29.367188 -8.851562 "/></g></g></g><g fill="#ffffff" fill-opacity="1"><g transform="translate(1084.140439, 696.787385)"><g><path d="M 22.320312 -8.851562 C 22.320312 -8.058594 21.925781 -7.382812 21.195312 -6.820312 C 20.460938 -6.199219 19.390625 -5.917969 17.925781 -5.917969 C 16.683594 -5.917969 15.445312 -6.144531 14.316406 -6.707031 C 13.191406 -7.214844 12.117188 -7.835938 11.160156 -8.625 C 10.144531 -9.414062 9.300781 -10.257812 8.511719 -11.160156 C 7.722656 -12.0625 7.046875 -12.964844 6.539062 -13.753906 L 1.691406 -8.851562 C 3.042969 -7.160156 4.398438 -5.804688 5.75 -4.679688 C 7.101562 -3.550781 8.511719 -2.648438 9.976562 -1.972656 C 11.386719 -1.238281 12.851562 -0.734375 14.429688 -0.449219 C 16.007812 -0.113281 17.644531 0 19.390625 0 C 21.984375 0 24.179688 -0.394531 26.042969 -1.183594 C 27.902344 -1.972656 29.421875 -2.988281 30.664062 -4.226562 C 31.847656 -5.410156 32.75 -6.707031 33.3125 -8.058594 C 33.875 -9.414062 34.160156 -10.652344 34.160156 -11.78125 C 34.160156 -13.980469 33.652344 -15.894531 32.636719 -17.53125 C 31.621094 -19.164062 30.324219 -20.574219 28.804688 -21.8125 C 27.226562 -23.054688 25.589844 -24.125 23.785156 -25.082031 C 21.984375 -25.984375 20.347656 -26.886719 18.828125 -27.675781 C 17.25 -28.464844 16.007812 -29.199219 14.992188 -29.988281 C 13.980469 -30.71875 13.472656 -31.566406 13.472656 -32.46875 C 13.472656 -33.199219 13.808594 -33.875 14.597656 -34.496094 C 15.332031 -35.058594 16.460938 -35.398438 17.925781 -35.398438 C 19.164062 -35.398438 20.347656 -35.117188 21.476562 -34.609375 C 22.601562 -34.046875 23.675781 -33.425781 24.6875 -32.636719 C 25.648438 -31.847656 26.550781 -31.003906 27.339844 -30.101562 C 28.128906 -29.199219 28.746094 -28.351562 29.3125 -27.5625 L 34.160156 -32.46875 C 31.453125 -35.679688 28.691406 -37.933594 25.871094 -39.289062 C 23.054688 -40.640625 19.898438 -41.316406 16.460938 -41.316406 C 13.867188 -41.316406 11.613281 -40.867188 9.75 -40.078125 C 7.890625 -39.289062 6.371094 -38.273438 5.1875 -37.089844 C 3.945312 -35.851562 3.101562 -34.554688 2.535156 -33.199219 C 1.972656 -31.847656 1.691406 -30.609375 1.691406 -29.535156 C 1.691406 -27.28125 2.199219 -25.367188 3.214844 -23.730469 C 4.226562 -22.097656 5.46875 -20.6875 7.046875 -19.445312 C 8.566406 -18.207031 10.203125 -17.136719 12.007812 -16.234375 C 13.808594 -15.277344 15.445312 -14.429688 16.964844 -13.640625 C 18.488281 -12.851562 19.785156 -12.0625 20.800781 -11.328125 C 21.8125 -10.539062 22.320312 -9.75 22.320312 -8.851562 Z M 22.320312 -8.851562 "/></g></g></g></svg>