<svg xmlns="http://www.w3.org/2000/svg" xmlns:xlink="http://www.w3.org/1999/xlink" width="1920" zoomAndPan="magnify" viewBox="0 0 1440 809.999993" height="1080" preserveAspectRatio="xMidYMid meet" version="1.0"><defs><g/><clipPath id="10b34ca6a4"><path d="M 462 261 L 978 261 L 978 549 L 462 549 Z M 462 261 " clip-rule="nonzero"/></clipPath><clipPath id="cba6f1bb7a"><path d="M 484.5 261 L 955.5 261 C 967.925781 261 978 271.074219 978 283.5 L 978 526.5 C 978 538.925781 967.925781 549 955.5 549 L 484.5 549 C 472.074219 549 462 538.925781 462 526.5 L 462 283.5 C 462 271.074219 472.074219 261 484.5 261 Z M 484.5 261 " clip-rule="nonzero"/></clipPath><clipPath id="c8c2852eb1"><path d="M 662 369 L 703 369 L 703 383 L 662 383 Z M 662 369 " clip-rule="nonzero"/></clipPath><clipPath id="6cf2322713"><path d="M 652 446 L 787.6875 446 L 787.6875 464 L 652 464 Z M 652 446 " clip-rule="nonzero"/></clipPath><clipPath id="70437b0df5"><path d="M 652 449 L 787.6875 449 L 787.6875 464 L 652 464 Z M 652 449 " clip-rule="nonzero"/></clipPath><clipPath id="c01cbc37d9"><path d="M 655 451 L 785 451 L 785 482.25 L 655 482.25 Z M 655 451 " clip-rule="nonzero"/></clipPath><clipPath id="0ecf8db10f"><path d="M 662 465 L 675 465 L 675 482.25 L 662 482.25 Z M 662 465 " clip-rule="nonzero"/></clipPath><clipPath id="fb8f6db90a"><path d="M 682 463 L 696 463 L 696 482.25 L 682 482.25 Z M 682 463 " clip-rule="nonzero"/></clipPath><clipPath id="6f76a2731f"><path d="M 703 462 L 716 462 L 716 482.25 L 703 482.25 Z M 703 462 " clip-rule="nonzero"/></clipPath><clipPath id="7e5cce549b"><path d="M 724 462 L 737 462 L 737 482.25 L 724 482.25 Z M 724 462 " clip-rule="nonzero"/></clipPath><clipPath id="4c06411ea1"><path d="M 744 463 L 758 463 L 758 482.25 L 744 482.25 Z M 744 463 " clip-rule="nonzero"/></clipPath><clipPath id="3968770e88"><path d="M 765 465 L 778 465 L 778 482.25 L 765 482.25 Z M 765 465 " clip-rule="nonzero"/></clipPath></defs><g clip-path="url(#10b34ca6a4)"><g clip-path="url(#cba6f1bb7a)"><path fill="#ffffff" d="M 462 261 L 978.375 261 L 978.375 549 L 462 549 Z M 462 261 " fill-opacity="1" fill-rule="nonzero"/></g></g><g clip-path="url(#c8c2852eb1)"><path fill="#583026" d="M 702.066406 379.675781 C 702.660156 376.601562 697.238281 374.96875 695.492188 373.109375 C 695.132812 372.726562 695.132812 372.164062 695.492188 371.78125 C 696.179688 371.046875 695.894531 369.976562 695.371094 368.988281 C 675.902344 370.691406 662.425781 374.351562 662.425781 378.597656 C 662.425781 378.597656 662.269531 380.824219 664.613281 382.34375 L 702.292969 382.359375 C 701.984375 381.613281 701.859375 380.765625 702.066406 379.675781 " fill-opacity="1" fill-rule="nonzero"/></g><path fill="#41231d" d="M 702.292969 382.359375 C 701.984375 381.613281 701.859375 380.765625 702.066406 379.675781 C 702.246094 378.75 701.875 377.953125 701.226562 377.246094 C 699.949219 376.496094 698.660156 375.808594 697.949219 375.089844 C 697.839844 374.980469 697.769531 374.855469 697.71875 374.722656 C 696.824219 374.179688 696 373.652344 695.492188 373.109375 C 695.132812 372.726562 695.132812 372.164062 695.492188 371.78125 C 695.671875 371.589844 695.78125 371.375 695.84375 371.144531 C 676.445312 372.910156 663.179688 376.472656 663.179688 380.578125 C 663.179688 380.578125 663.171875 380.738281 663.199219 380.996094 C 663.539062 381.457031 664.011719 381.925781 664.6875 382.34375 L 702.292969 382.359375 " fill-opacity="1" fill-rule="nonzero"/><path fill="#d98b52" d="M 705.851562 398.40625 C 705.8125 398.0625 705.941406 397.820312 706.144531 397.675781 L 706.125 397.585938 C 705.671875 393.207031 700.933594 389.746094 704.796875 386.160156 C 703.488281 383.886719 701.488281 382.707031 702.066406 379.675781 C 702.640625 376.691406 697.554688 375.066406 695.660156 373.269531 C 677.453125 374.925781 664.917969 378.386719 664.917969 382.390625 L 664.917969 403.410156 L 706.117188 403.410156 C 706.097656 401.738281 706.046875 400.070312 705.851562 398.40625 " fill-opacity="1" fill-rule="nonzero"/><path fill="#371e19" d="M 681.25 403.410156 C 681.242188 398.722656 681.230469 394.042969 681.222656 389.359375 C 681.214844 386.253906 678.882812 384 676.019531 384.386719 C 673.152344 384.769531 670.832031 387.441406 670.832031 390.304688 C 670.832031 394.671875 670.832031 399.039062 670.832031 403.410156 C 674.304688 403.410156 677.777344 403.410156 681.25 403.410156 " fill-opacity="1" fill-rule="nonzero"/><path fill="#371e19" d="M 698.792969 403.410156 C 698.78125 398.363281 698.773438 393.320312 698.761719 388.273438 C 698.757812 384.9375 696.417969 382.375 693.539062 382.601562 C 690.660156 382.835938 688.335938 385.652344 688.34375 388.839844 C 688.355469 393.695312 688.367188 398.554688 688.378906 403.410156 C 691.851562 403.410156 695.320312 403.410156 698.792969 403.410156 " fill-opacity="1" fill-rule="nonzero"/><path fill="#371e19" d="M 705.917969 399.125 C 705.917969 400.554688 705.921875 401.980469 705.921875 403.410156 L 706.117188 403.410156 C 706.105469 401.980469 706.050781 400.550781 705.917969 399.125 " fill-opacity="1" fill-rule="nonzero"/><path fill="#41231d" d="M 718.03125 405.066406 C 716.964844 403.441406 715.347656 401.417969 715.039062 399.433594 C 714.742188 397.535156 712.792969 396.988281 712.363281 395.378906 C 712.160156 394.613281 712.320312 393.394531 711.75 392.773438 C 682.492188 393.511719 659.941406 398.148438 659.941406 403.757812 C 659.941406 403.757812 659.777344 406.078125 662.222656 407.667969 L 719.585938 407.691406 C 719.101562 406.804688 718.597656 405.929688 718.03125 405.066406 " fill-opacity="1" fill-rule="nonzero"/><path fill="#583026" d="M 713.621094 397.4375 C 713.839844 398.25 714.441406 398.792969 715.023438 399.371094 C 714.84375 398.355469 714.183594 397.726562 713.558594 397.105469 C 713.574219 397.222656 713.59375 397.332031 713.621094 397.4375 " fill-opacity="1" fill-rule="nonzero"/><path fill="#583026" d="M 719.128906 406.882812 C 718.78125 406.273438 718.421875 405.667969 718.03125 405.066406 C 717.730469 404.609375 717.390625 404.121094 717.042969 403.613281 C 717.644531 404.777344 718.46875 405.894531 719.128906 406.882812 " fill-opacity="1" fill-rule="nonzero"/><path fill="#583026" d="M 661.199219 405.816406 C 661.199219 400.25 683.375 395.648438 712.273438 394.851562 C 712.199219 394.132812 712.203125 393.269531 711.75 392.773438 C 682.492188 393.511719 659.941406 398.148438 659.941406 403.757812 C 659.941406 403.757812 659.824219 405.488281 661.367188 406.980469 C 661.167969 406.304688 661.199219 405.816406 661.199219 405.816406 " fill-opacity="1" fill-rule="nonzero"/><path fill="#d98b52" d="M 727.851562 429.511719 C 728.054688 426.316406 726.578125 424.597656 724.574219 422.417969 C 723.808594 421.585938 723.300781 420.273438 723.398438 419.132812 C 723.644531 416.191406 722.761719 414.382812 721.574219 411.730469 C 720.527344 409.402344 719.433594 407.203125 718.03125 405.066406 C 716.964844 403.441406 715.347656 401.417969 715.039062 399.433594 C 714.878906 398.414062 714.246094 397.785156 713.625 397.171875 C 684.898438 397.75 662.542969 402.25 662.542969 407.714844 L 662.542969 429.644531 L 727.851562 429.644531 C 727.851562 429.597656 727.847656 429.558594 727.851562 429.511719 " fill-opacity="1" fill-rule="nonzero"/><path fill="#371e19" d="M 679.582031 429.644531 C 679.570312 424.757812 679.5625 419.871094 679.554688 414.984375 C 679.546875 411.742188 677.113281 409.394531 674.125 409.792969 C 671.132812 410.195312 668.714844 412.988281 668.710938 415.96875 C 668.710938 420.527344 668.710938 425.085938 668.710938 429.644531 C 672.335938 429.644531 675.957031 429.644531 679.582031 429.644531 " fill-opacity="1" fill-rule="nonzero"/><path fill="#371e19" d="M 697.886719 429.644531 C 697.878906 424.382812 697.867188 419.117188 697.855469 413.851562 C 697.851562 410.371094 695.40625 407.695312 692.40625 407.9375 C 689.402344 408.175781 686.976562 411.117188 686.984375 414.445312 C 686.996094 419.511719 687.007812 424.578125 687.019531 429.644531 C 690.644531 429.644531 694.265625 429.644531 697.886719 429.644531 " fill-opacity="1" fill-rule="nonzero"/><path fill="#371e19" d="M 716.195312 429.644531 C 716.195312 424.226562 716.191406 418.804688 716.1875 413.386719 C 716.1875 409.808594 713.75 406.929688 710.738281 407.007812 C 707.734375 407.089844 705.300781 410.058594 705.304688 413.582031 C 705.3125 418.9375 705.320312 424.289062 705.328125 429.644531 C 708.953125 429.644531 712.574219 429.644531 716.195312 429.644531 " fill-opacity="1" fill-rule="nonzero"/><path fill="#371e19" d="M 727.851562 429.511719 C 728.054688 426.316406 726.578125 424.597656 724.574219 422.417969 C 724.171875 421.980469 723.847656 421.414062 723.636719 420.808594 C 723.636719 423.753906 723.636719 426.699219 723.636719 429.644531 L 727.851562 429.644531 C 727.851562 429.597656 727.847656 429.558594 727.851562 429.511719 " fill-opacity="1" fill-rule="nonzero"/><path fill="#583026" d="M 768.894531 431.132812 C 766.222656 429.820312 764.425781 428.074219 762.9375 425.503906 C 762.332031 424.453125 760.945312 422.171875 759.328125 421.007812 C 758.351562 420.863281 757.355469 420.726562 756.332031 420.597656 C 756.234375 420.648438 756.144531 420.691406 756.046875 420.761719 C 754.957031 421.558594 754.082031 422.585938 753.011719 423.402344 C 751.804688 424.328125 750.535156 425.351562 749.054688 425.804688 C 747.4375 426.300781 744.726562 426.257812 743.34375 427.117188 C 741.875 428.027344 739.90625 429.902344 737.964844 429.195312 C 733.839844 427.699219 733.3125 421.578125 730.328125 418.652344 C 726.9375 418.550781 723.460938 418.492188 719.914062 418.492188 C 684.539062 418.492188 655.863281 423.796875 655.863281 430.335938 C 655.863281 430.335938 655.6875 432.816406 658.300781 434.511719 L 778.152344 434.5625 C 775.167969 433.113281 771.875 432.59375 768.894531 431.132812 " fill-opacity="1" fill-rule="nonzero"/><path fill="#41231d" d="M 762.9375 428.621094 C 762.332031 427.570312 760.945312 425.289062 759.328125 424.121094 C 758.351562 423.980469 757.355469 423.84375 756.332031 423.710938 C 756.234375 423.765625 756.144531 423.808594 756.046875 423.875 C 754.957031 424.675781 754.082031 425.703125 753.011719 426.519531 C 751.804688 427.445312 750.535156 428.46875 749.054688 428.921875 C 747.4375 429.417969 744.726562 429.371094 743.34375 430.234375 C 741.875 431.144531 739.90625 433.019531 737.964844 432.3125 C 733.839844 430.816406 733.3125 424.695312 730.328125 421.769531 C 726.9375 421.664062 723.460938 421.609375 719.914062 421.609375 C 686.90625 421.609375 659.738281 426.226562 656.246094 432.15625 C 656.574219 432.914062 657.179688 433.785156 658.300781 434.511719 L 769.585938 434.558594 C 769.355469 434.457031 769.125 434.359375 768.894531 434.246094 C 766.222656 432.9375 764.425781 431.191406 762.9375 428.621094 " fill-opacity="1" fill-rule="nonzero"/><path fill="#d98b52" d="M 778.8125 434.886719 C 775.660156 433.167969 772.09375 432.699219 768.894531 431.132812 C 766.632812 430.023438 765.007812 428.597656 763.660156 426.632812 C 759.925781 425.929688 755.703125 425.316406 751.085938 424.8125 C 750.449219 425.226562 749.777344 425.582031 749.054688 425.804688 C 747.4375 426.300781 744.726562 426.257812 743.34375 427.117188 C 741.875 428.027344 739.90625 429.902344 737.964844 429.195312 C 735.589844 428.335938 734.410156 425.941406 733.265625 423.507812 C 728.96875 423.332031 724.503906 423.238281 719.914062 423.238281 C 686.074219 423.238281 658.640625 428.308594 658.640625 434.5625 L 658.640625 457.984375 L 781.1875 457.984375 L 781.1875 437.167969 C 780.539062 436.382812 779.898438 435.476562 778.8125 434.886719 " fill-opacity="1" fill-rule="nonzero"/><path fill="#371e19" d="M 676.839844 457.984375 C 676.828125 452.765625 676.820312 447.546875 676.808594 442.328125 C 676.800781 438.867188 674.203125 436.355469 671.011719 436.785156 C 667.816406 437.214844 665.230469 440.195312 665.230469 443.378906 C 665.230469 448.25 665.230469 453.117188 665.230469 457.984375 C 669.097656 457.984375 672.96875 457.984375 676.839844 457.984375 " fill-opacity="1" fill-rule="nonzero"/><path fill="#371e19" d="M 696.390625 457.984375 C 696.375 452.363281 696.367188 446.742188 696.355469 441.121094 C 696.347656 437.398438 693.738281 434.542969 690.53125 434.800781 C 687.328125 435.058594 684.738281 438.199219 684.742188 441.75 C 684.757812 447.164062 684.769531 452.574219 684.78125 457.984375 C 688.652344 457.984375 692.519531 457.984375 696.390625 457.984375 " fill-opacity="1" fill-rule="nonzero"/><path fill="#371e19" d="M 715.941406 457.984375 C 715.9375 452.199219 715.9375 446.40625 715.933594 440.621094 C 715.933594 436.800781 713.328125 433.722656 710.117188 433.808594 C 706.902344 433.894531 704.300781 437.066406 704.308594 440.832031 C 704.316406 446.546875 704.324219 452.265625 704.335938 457.984375 C 708.203125 457.984375 712.074219 457.984375 715.941406 457.984375 " fill-opacity="1" fill-rule="nonzero"/><path fill="#371e19" d="M 735.496094 457.984375 C 735.503906 452.269531 735.511719 446.546875 735.519531 440.832031 C 735.523438 437.066406 732.925781 433.894531 729.714844 433.808594 C 726.5 433.726562 723.894531 436.800781 723.890625 440.621094 C 723.890625 446.40625 723.890625 452.199219 723.886719 457.984375 C 727.753906 457.984375 731.625 457.984375 735.496094 457.984375 " fill-opacity="1" fill-rule="nonzero"/><path fill="#371e19" d="M 755.046875 457.984375 C 755.058594 452.574219 755.070312 447.164062 755.082031 441.75 C 755.089844 438.199219 752.5 435.058594 749.292969 434.800781 C 746.085938 434.546875 743.480469 437.398438 743.472656 441.121094 C 743.460938 446.742188 743.449219 452.363281 743.4375 457.984375 C 747.308594 457.984375 751.175781 457.984375 755.046875 457.984375 " fill-opacity="1" fill-rule="nonzero"/><path fill="#371e19" d="M 774.597656 457.984375 C 774.597656 453.117188 774.597656 448.25 774.597656 443.378906 C 774.597656 440.195312 772.011719 437.214844 768.816406 436.785156 C 765.625 436.355469 763.027344 438.867188 763.019531 442.328125 C 763.011719 447.546875 763 452.765625 762.988281 457.984375 C 766.859375 457.984375 770.730469 457.984375 774.597656 457.984375 " fill-opacity="1" fill-rule="nonzero"/><g clip-path="url(#6cf2322713)"><path fill="#583026" d="M 784.699219 463.285156 L 654.765625 463.226562 C 652.003906 461.433594 652.191406 458.8125 652.191406 458.8125 C 652.191406 451.898438 682.511719 446.292969 719.910156 446.292969 C 757.3125 446.292969 787.636719 451.898438 787.636719 458.8125 C 787.636719 458.8125 787.414062 462.355469 784.699219 463.285156 " fill-opacity="1" fill-rule="nonzero"/></g><g clip-path="url(#70437b0df5)"><path fill="#41231d" d="M 784.699219 463.285156 C 786.097656 462.808594 786.832031 461.640625 787.214844 460.613281 C 783.460938 454.355469 754.765625 449.488281 719.914062 449.488281 C 684.933594 449.488281 656.152344 454.390625 652.570312 460.683594 C 652.914062 461.5 653.558594 462.441406 654.765625 463.226562 L 784.699219 463.285156 " fill-opacity="1" fill-rule="nonzero"/></g><g clip-path="url(#c01cbc37d9)"><path fill="#d98b52" d="M 784.699219 482.222656 L 784.699219 463.285156 C 784.699219 456.667969 755.691406 451.304688 719.910156 451.304688 C 684.132812 451.304688 655.125 456.667969 655.125 463.285156 L 655.125 482.222656 L 784.699219 482.222656 " fill-opacity="1" fill-rule="nonzero"/></g><g clip-path="url(#0ecf8db10f)"><path fill="#371e19" d="M 674.355469 482.222656 C 674.351562 478.644531 674.34375 475.070312 674.335938 471.492188 C 674.328125 467.832031 671.582031 465.179688 668.203125 465.632812 C 664.828125 466.085938 662.09375 469.234375 662.09375 472.605469 L 662.09375 482.222656 L 674.355469 482.222656 " fill-opacity="1" fill-rule="nonzero"/></g><g clip-path="url(#fb8f6db90a)"><path fill="#371e19" d="M 695.027344 482.222656 C 695.019531 478.21875 695.011719 474.214844 695.003906 470.214844 C 694.996094 466.28125 692.238281 463.261719 688.847656 463.53125 C 685.460938 463.804688 682.71875 467.125 682.726562 470.882812 C 682.734375 474.660156 682.746094 478.441406 682.753906 482.222656 L 695.027344 482.222656 " fill-opacity="1" fill-rule="nonzero"/></g><g clip-path="url(#6f76a2731f)"><path fill="#371e19" d="M 715.710938 482.222656 C 715.707031 478.042969 715.707031 473.863281 715.707031 469.6875 C 715.703125 465.648438 712.949219 462.394531 709.550781 462.484375 C 706.152344 462.578125 703.40625 465.929688 703.410156 469.910156 C 703.417969 474.011719 703.425781 478.117188 703.429688 482.222656 L 715.710938 482.222656 " fill-opacity="1" fill-rule="nonzero"/></g><g clip-path="url(#7e5cce549b)"><path fill="#371e19" d="M 736.394531 482.222656 C 736.398438 478.117188 736.40625 474.011719 736.414062 469.910156 C 736.417969 465.929688 733.671875 462.578125 730.273438 462.484375 C 726.875 462.394531 724.121094 465.648438 724.121094 469.6875 C 724.117188 473.863281 724.113281 478.042969 724.113281 482.222656 L 736.394531 482.222656 " fill-opacity="1" fill-rule="nonzero"/></g><g clip-path="url(#4c06411ea1)"><path fill="#371e19" d="M 757.074219 482.222656 C 757.082031 478.441406 757.085938 474.660156 757.097656 470.882812 C 757.105469 467.125 754.367188 463.804688 750.976562 463.535156 C 747.585938 463.265625 744.828125 466.28125 744.820312 470.214844 C 744.8125 474.214844 744.804688 478.21875 744.796875 482.222656 L 757.074219 482.222656 " fill-opacity="1" fill-rule="nonzero"/></g><g clip-path="url(#3968770e88)"><path fill="#371e19" d="M 777.730469 482.222656 L 777.730469 472.605469 C 777.730469 469.234375 774.996094 466.085938 771.621094 465.632812 C 768.242188 465.179688 765.496094 467.832031 765.488281 471.492188 C 765.484375 475.070312 765.476562 478.644531 765.46875 482.222656 L 777.730469 482.222656 " fill-opacity="1" fill-rule="nonzero"/></g><g fill="#583026" fill-opacity="1"><g transform="translate(558.085942, 340.299994)"><g><path d="M 7.609375 0.25 C 5.609375 0.25 4.003906 -0.375 2.796875 -1.625 C 1.585938 -2.882812 0.984375 -4.613281 0.984375 -6.8125 L 0.984375 -19.484375 C 0.984375 -22.210938 1.523438 -24.269531 2.609375 -25.65625 C 3.703125 -27.050781 5.414062 -27.75 7.75 -27.75 C 9.769531 -27.75 11.398438 -27.191406 12.640625 -26.078125 C 13.878906 -24.972656 14.5 -23.375 14.5 -21.28125 L 14.5 -16.546875 L 9.03125 -16.546875 L 9.03125 -20.609375 C 9.03125 -21.398438 8.929688 -21.941406 8.734375 -22.234375 C 8.546875 -22.535156 8.21875 -22.6875 7.75 -22.6875 C 7.257812 -22.6875 6.921875 -22.515625 6.734375 -22.171875 C 6.554688 -21.828125 6.46875 -21.328125 6.46875 -20.671875 L 6.46875 -6.875 C 6.46875 -6.15625 6.570312 -5.628906 6.78125 -5.296875 C 7 -4.960938 7.320312 -4.796875 7.75 -4.796875 C 8.601562 -4.796875 9.03125 -5.488281 9.03125 -6.875 L 9.03125 -11.84375 L 14.5625 -11.84375 L 14.5625 -6.65625 C 14.5625 -2.050781 12.242188 0.25 7.609375 0.25 Z M 7.609375 0.25 "/></g></g></g><g fill="#583026" fill-opacity="1"><g transform="translate(573.25021, 340.299994)"><g><path d="M 7.9375 0.25 C 3.257812 0.25 0.921875 -2.171875 0.921875 -7.015625 L 0.921875 -16.421875 C 0.921875 -18.640625 1.546875 -20.40625 2.796875 -21.71875 C 4.046875 -23.03125 5.757812 -23.6875 7.9375 -23.6875 C 10.113281 -23.6875 11.820312 -23.03125 13.0625 -21.71875 C 14.3125 -20.40625 14.9375 -18.640625 14.9375 -16.421875 L 14.9375 -7.015625 C 14.9375 -2.171875 12.601562 0.25 7.9375 0.25 Z M 7.9375 -4.0625 C 8.382812 -4.0625 8.710938 -4.222656 8.921875 -4.546875 C 9.140625 -4.867188 9.25 -5.304688 9.25 -5.859375 L 9.25 -17.3125 C 9.25 -18.675781 8.8125 -19.359375 7.9375 -19.359375 C 7.0625 -19.359375 6.625 -18.675781 6.625 -17.3125 L 6.625 -5.859375 C 6.625 -5.304688 6.726562 -4.867188 6.9375 -4.546875 C 7.15625 -4.222656 7.488281 -4.0625 7.9375 -4.0625 Z M 7.9375 -4.0625 "/></g></g></g><g fill="#583026" fill-opacity="1"><g transform="translate(589.150299, 340.299994)"><g><path d="M 1.125 0 L 1.125 -27.640625 L 6.8125 -27.640625 L 6.8125 0 Z M 1.125 0 "/></g></g></g><g fill="#583026" fill-opacity="1"><g transform="translate(597.08435, 340.299994)"><g><path d="M 1.09375 -24.984375 L 1.09375 -28.890625 L 6.6875 -28.890625 L 6.6875 -24.984375 Z M 1.09375 0 L 1.09375 -23.421875 L 6.6875 -23.421875 L 6.6875 0 Z M 1.09375 0 "/></g></g></g><g fill="#583026" fill-opacity="1"><g transform="translate(604.858436, 340.299994)"><g><path d="M 7.546875 0.25 C 2.921875 0.25 0.609375 -2.09375 0.609375 -6.78125 L 0.640625 -8.640625 L 6.234375 -8.640625 L 6.265625 -5.890625 C 6.265625 -5.335938 6.367188 -4.914062 6.578125 -4.625 C 6.796875 -4.332031 7.148438 -4.1875 7.640625 -4.1875 C 8.390625 -4.1875 8.765625 -4.796875 8.765625 -6.015625 C 8.765625 -6.910156 8.585938 -7.613281 8.234375 -8.125 C 7.890625 -8.632812 7.332031 -9.179688 6.5625 -9.765625 L 3.578125 -12.0625 C 2.554688 -12.851562 1.820312 -13.671875 1.375 -14.515625 C 0.925781 -15.359375 0.703125 -16.546875 0.703125 -18.078125 C 0.703125 -19.273438 1.015625 -20.296875 1.640625 -21.140625 C 2.273438 -21.984375 3.113281 -22.617188 4.15625 -23.046875 C 5.207031 -23.472656 6.367188 -23.6875 7.640625 -23.6875 C 12.191406 -23.6875 14.46875 -21.421875 14.46875 -16.890625 L 14.46875 -16.453125 L 8.671875 -16.453125 L 8.671875 -17.34375 C 8.671875 -17.894531 8.578125 -18.367188 8.390625 -18.765625 C 8.210938 -19.160156 7.910156 -19.359375 7.484375 -19.359375 C 7.097656 -19.359375 6.800781 -19.242188 6.59375 -19.015625 C 6.394531 -18.796875 6.296875 -18.492188 6.296875 -18.109375 C 6.296875 -17.253906 6.628906 -16.59375 7.296875 -16.125 L 10.75 -13.59375 C 11.988281 -12.675781 12.9375 -11.675781 13.59375 -10.59375 C 14.257812 -9.519531 14.59375 -8.164062 14.59375 -6.53125 C 14.59375 -4.351562 13.972656 -2.675781 12.734375 -1.5 C 11.492188 -0.332031 9.765625 0.25 7.546875 0.25 Z M 7.546875 0.25 "/></g></g></g><g fill="#583026" fill-opacity="1"><g transform="translate(620.054701, 340.299994)"><g><path d="M 7.6875 0.25 C 5.269531 0.25 3.535156 -0.410156 2.484375 -1.734375 C 1.441406 -3.054688 0.921875 -5.023438 0.921875 -7.640625 L 0.921875 -17.0625 C 0.921875 -19.207031 1.539062 -20.847656 2.78125 -21.984375 C 4.019531 -23.117188 5.75 -23.6875 7.96875 -23.6875 C 12.46875 -23.6875 14.71875 -21.476562 14.71875 -17.0625 L 14.71875 -15.359375 C 14.71875 -13.648438 14.695312 -12.265625 14.65625 -11.203125 L 6.53125 -11.203125 L 6.53125 -6.65625 C 6.53125 -5.84375 6.613281 -5.207031 6.78125 -4.75 C 6.957031 -4.289062 7.320312 -4.0625 7.875 -4.0625 C 8.300781 -4.0625 8.601562 -4.1875 8.78125 -4.4375 C 8.96875 -4.695312 9.078125 -4.992188 9.109375 -5.328125 C 9.140625 -5.660156 9.15625 -6.144531 9.15625 -6.78125 L 9.15625 -9.0625 L 14.71875 -9.0625 L 14.71875 -7.71875 C 14.71875 -4.976562 14.1875 -2.960938 13.125 -1.671875 C 12.070312 -0.390625 10.257812 0.25 7.6875 0.25 Z M 9.15625 -13.984375 L 9.15625 -16.984375 C 9.15625 -18.671875 8.738281 -19.515625 7.90625 -19.515625 C 6.96875 -19.515625 6.5 -18.671875 6.5 -16.984375 L 6.5 -13.984375 Z M 9.15625 -13.984375 "/></g></g></g><g fill="#583026" fill-opacity="1"><g transform="translate(635.666867, 340.299994)"><g><path d="M 5.625 0.25 C 3.882812 0.25 2.6875 -0.269531 2.03125 -1.3125 C 1.382812 -2.351562 1.0625 -3.910156 1.0625 -5.984375 L 1.0625 -23.421875 L 6.6875 -23.421875 L 6.6875 -7.109375 C 6.6875 -6.953125 6.6875 -6.546875 6.6875 -5.890625 C 6.6875 -5.242188 6.785156 -4.785156 6.984375 -4.515625 C 7.191406 -4.253906 7.507812 -4.125 7.9375 -4.125 C 8.507812 -4.125 8.867188 -4.363281 9.015625 -4.84375 C 9.171875 -5.320312 9.25 -6.007812 9.25 -6.90625 L 9.25 -7.109375 L 9.28125 -23.421875 L 14.84375 -23.421875 L 14.84375 0 L 9.25 0 L 9.25 -2.5 C 8.863281 -1.519531 8.414062 -0.816406 7.90625 -0.390625 C 7.394531 0.0351562 6.632812 0.25 5.625 0.25 Z M 5.625 0.25 "/></g></g></g><g fill="#583026" fill-opacity="1"><g transform="translate(651.63094, 340.299994)"><g><path d="M 1.125 -23.421875 L 6.59375 -23.421875 L 6.59375 -20.703125 C 6.84375 -21.703125 7.273438 -22.445312 7.890625 -22.9375 C 8.515625 -23.4375 9.394531 -23.6875 10.53125 -23.6875 C 11.445312 -23.6875 12.238281 -23.476562 12.90625 -23.0625 C 13.582031 -22.644531 14.0625 -22.070312 14.34375 -21.34375 C 14.8125 -22.15625 15.332031 -22.75 15.90625 -23.125 C 16.476562 -23.5 17.273438 -23.6875 18.296875 -23.6875 C 20.140625 -23.6875 21.414062 -23.125 22.125 -22 C 22.84375 -20.875 23.203125 -19.25 23.203125 -17.125 L 23.140625 0 L 17.5 0 L 17.5 -17.21875 C 17.5 -18.726562 17.117188 -19.484375 16.359375 -19.484375 C 15.816406 -19.484375 15.425781 -19.222656 15.1875 -18.703125 C 14.957031 -18.179688 14.84375 -17.554688 14.84375 -16.828125 L 14.84375 0 L 9.25 0 L 9.25 -17.21875 C 9.25 -17.875 9.175781 -18.40625 9.03125 -18.8125 C 8.894531 -19.21875 8.601562 -19.421875 8.15625 -19.421875 C 7.582031 -19.421875 7.175781 -19.140625 6.9375 -18.578125 C 6.707031 -18.015625 6.59375 -17.335938 6.59375 -16.546875 L 6.59375 0 L 1.125 0 Z M 1.125 -23.421875 "/></g></g></g><g fill="#583026" fill-opacity="1"><g transform="translate(675.88098, 340.299994)"><g/></g></g><g fill="#583026" fill-opacity="1"><g transform="translate(683.367144, 340.299994)"><g><path d="M 1.21875 0 L 1.21875 -27.484375 L 12.21875 -27.484375 L 12.21875 -22.140625 L 6.75 -22.140625 L 6.75 -17.765625 L 11.9375 -17.765625 L 11.9375 -12.484375 L 6.75 -12.484375 L 6.75 0 Z M 1.21875 0 "/></g></g></g><g fill="#583026" fill-opacity="1"><g transform="translate(696.132009, 340.299994)"><g><path d="M 5.375 0.25 C 3.5625 0.25 2.316406 -0.347656 1.640625 -1.546875 C 0.972656 -2.753906 0.640625 -4.476562 0.640625 -6.71875 C 0.640625 -8.550781 0.878906 -9.957031 1.359375 -10.9375 C 1.835938 -11.925781 2.503906 -12.648438 3.359375 -13.109375 C 4.210938 -13.566406 5.515625 -14.070312 7.265625 -14.625 L 8.796875 -15.140625 L 8.796875 -17.53125 C 8.796875 -18.15625 8.671875 -18.628906 8.421875 -18.953125 C 8.179688 -19.285156 7.890625 -19.453125 7.546875 -19.453125 C 7.253906 -19.453125 6.992188 -19.3125 6.765625 -19.03125 C 6.546875 -18.757812 6.4375 -18.390625 6.4375 -17.921875 L 6.4375 -16.515625 L 0.984375 -16.515625 L 0.984375 -17.28125 C 0.984375 -19.582031 1.519531 -21.222656 2.59375 -22.203125 C 3.675781 -23.191406 5.4375 -23.6875 7.875 -23.6875 C 9.8125 -23.6875 11.390625 -23.175781 12.609375 -22.15625 C 13.828125 -21.144531 14.4375 -19.710938 14.4375 -17.859375 L 14.4375 0 L 8.859375 0 L 8.859375 -2.78125 C 8.585938 -1.820312 8.144531 -1.078125 7.53125 -0.546875 C 6.925781 -0.015625 6.207031 0.25 5.375 0.25 Z M 7.578125 -4.09375 C 8.003906 -4.09375 8.304688 -4.269531 8.484375 -4.625 C 8.671875 -4.976562 8.765625 -5.410156 8.765625 -5.921875 L 8.765625 -12.453125 C 7.929688 -12.128906 7.316406 -11.722656 6.921875 -11.234375 C 6.535156 -10.742188 6.34375 -10.0625 6.34375 -9.1875 L 6.34375 -6.171875 C 6.34375 -4.785156 6.753906 -4.09375 7.578125 -4.09375 Z M 7.578125 -4.09375 "/></g></g></g><g fill="#583026" fill-opacity="1"><g transform="translate(711.58421, 340.299994)"><g><path d="M 1.125 -23.421875 L 6.71875 -23.421875 L 6.71875 -20.453125 C 6.957031 -21.410156 7.363281 -22.1875 7.9375 -22.78125 C 8.507812 -23.382812 9.273438 -23.6875 10.234375 -23.6875 C 11.816406 -23.6875 12.984375 -23.195312 13.734375 -22.21875 C 14.492188 -21.25 14.875 -19.867188 14.875 -18.078125 L 14.875 0 L 9.375 0 L 9.375 -17.5 C 9.375 -18.007812 9.269531 -18.445312 9.0625 -18.8125 C 8.863281 -19.175781 8.550781 -19.359375 8.125 -19.359375 C 7.550781 -19.359375 7.171875 -19.097656 6.984375 -18.578125 C 6.804688 -18.054688 6.71875 -17.359375 6.71875 -16.484375 L 6.71875 0 L 1.125 0 Z M 1.125 -23.421875 "/></g></g></g><g fill="#583026" fill-opacity="1"><g transform="translate(727.548283, 340.299994)"><g><path d="M 5.953125 0.25 C 4.484375 0.25 3.46875 -0.0546875 2.90625 -0.671875 C 2.351562 -1.285156 2.078125 -2.273438 2.078125 -3.640625 L 2.078125 -18.265625 L 0.515625 -18.265625 L 0.515625 -22.53125 L 2.078125 -22.53125 L 2.078125 -27.484375 L 7.515625 -27.484375 L 7.515625 -22.53125 L 9.125 -22.53125 L 9.125 -18.265625 L 7.515625 -18.265625 L 7.515625 -5.125 C 7.515625 -4.71875 7.546875 -4.414062 7.609375 -4.21875 C 7.679688 -4.03125 7.851562 -3.9375 8.125 -3.9375 C 8.34375 -3.9375 8.546875 -3.945312 8.734375 -3.96875 C 8.929688 -3.988281 9.0625 -4 9.125 -4 L 9.125 -0.15625 C 8.800781 -0.0703125 8.332031 0.015625 7.71875 0.109375 C 7.113281 0.203125 6.523438 0.25 5.953125 0.25 Z M 5.953125 0.25 "/></g></g></g><g fill="#583026" fill-opacity="1"><g transform="translate(737.305881, 340.299994)"><g><path d="M 5.375 0.25 C 3.5625 0.25 2.316406 -0.347656 1.640625 -1.546875 C 0.972656 -2.753906 0.640625 -4.476562 0.640625 -6.71875 C 0.640625 -8.550781 0.878906 -9.957031 1.359375 -10.9375 C 1.835938 -11.925781 2.503906 -12.648438 3.359375 -13.109375 C 4.210938 -13.566406 5.515625 -14.070312 7.265625 -14.625 L 8.796875 -15.140625 L 8.796875 -17.53125 C 8.796875 -18.15625 8.671875 -18.628906 8.421875 -18.953125 C 8.179688 -19.285156 7.890625 -19.453125 7.546875 -19.453125 C 7.253906 -19.453125 6.992188 -19.3125 6.765625 -19.03125 C 6.546875 -18.757812 6.4375 -18.390625 6.4375 -17.921875 L 6.4375 -16.515625 L 0.984375 -16.515625 L 0.984375 -17.28125 C 0.984375 -19.582031 1.519531 -21.222656 2.59375 -22.203125 C 3.675781 -23.191406 5.4375 -23.6875 7.875 -23.6875 C 9.8125 -23.6875 11.390625 -23.175781 12.609375 -22.15625 C 13.828125 -21.144531 14.4375 -19.710938 14.4375 -17.859375 L 14.4375 0 L 8.859375 0 L 8.859375 -2.78125 C 8.585938 -1.820312 8.144531 -1.078125 7.53125 -0.546875 C 6.925781 -0.015625 6.207031 0.25 5.375 0.25 Z M 7.578125 -4.09375 C 8.003906 -4.09375 8.304688 -4.269531 8.484375 -4.625 C 8.671875 -4.976562 8.765625 -5.410156 8.765625 -5.921875 L 8.765625 -12.453125 C 7.929688 -12.128906 7.316406 -11.722656 6.921875 -11.234375 C 6.535156 -10.742188 6.34375 -10.0625 6.34375 -9.1875 L 6.34375 -6.171875 C 6.34375 -4.785156 6.753906 -4.09375 7.578125 -4.09375 Z M 7.578125 -4.09375 "/></g></g></g><g fill="#583026" fill-opacity="1"><g transform="translate(752.758082, 340.299994)"><g><path d="M 7.546875 0.25 C 2.921875 0.25 0.609375 -2.09375 0.609375 -6.78125 L 0.640625 -8.640625 L 6.234375 -8.640625 L 6.265625 -5.890625 C 6.265625 -5.335938 6.367188 -4.914062 6.578125 -4.625 C 6.796875 -4.332031 7.148438 -4.1875 7.640625 -4.1875 C 8.390625 -4.1875 8.765625 -4.796875 8.765625 -6.015625 C 8.765625 -6.910156 8.585938 -7.613281 8.234375 -8.125 C 7.890625 -8.632812 7.332031 -9.179688 6.5625 -9.765625 L 3.578125 -12.0625 C 2.554688 -12.851562 1.820312 -13.671875 1.375 -14.515625 C 0.925781 -15.359375 0.703125 -16.546875 0.703125 -18.078125 C 0.703125 -19.273438 1.015625 -20.296875 1.640625 -21.140625 C 2.273438 -21.984375 3.113281 -22.617188 4.15625 -23.046875 C 5.207031 -23.472656 6.367188 -23.6875 7.640625 -23.6875 C 12.191406 -23.6875 14.46875 -21.421875 14.46875 -16.890625 L 14.46875 -16.453125 L 8.671875 -16.453125 L 8.671875 -17.34375 C 8.671875 -17.894531 8.578125 -18.367188 8.390625 -18.765625 C 8.210938 -19.160156 7.910156 -19.359375 7.484375 -19.359375 C 7.097656 -19.359375 6.800781 -19.242188 6.59375 -19.015625 C 6.394531 -18.796875 6.296875 -18.492188 6.296875 -18.109375 C 6.296875 -17.253906 6.628906 -16.59375 7.296875 -16.125 L 10.75 -13.59375 C 11.988281 -12.675781 12.9375 -11.675781 13.59375 -10.59375 C 14.257812 -9.519531 14.59375 -8.164062 14.59375 -6.53125 C 14.59375 -4.351562 13.972656 -2.675781 12.734375 -1.5 C 11.492188 -0.332031 9.765625 0.25 7.546875 0.25 Z M 7.546875 0.25 "/></g></g></g><g fill="#583026" fill-opacity="1"><g transform="translate(767.954348, 340.299994)"><g><path d="M 0.671875 0.359375 L 3.359375 0.359375 C 3.742188 0.359375 3.9375 0.195312 3.9375 -0.125 C 3.9375 -0.28125 3.925781 -0.398438 3.90625 -0.484375 L 0.25 -23.421875 L 5.59375 -23.421875 L 6.65625 -12 L 7.171875 -6.171875 L 7.78125 -12 L 9.03125 -23.421875 L 14.40625 -23.421875 L 10.046875 1.21875 C 9.898438 2.132812 9.597656 2.8125 9.140625 3.25 C 8.679688 3.6875 7.957031 3.90625 6.96875 3.90625 L 0.671875 3.90625 Z M 0.671875 0.359375 "/></g></g></g><g fill="#583026" fill-opacity="1"><g transform="translate(782.702737, 340.299994)"><g/></g></g><g fill="#583026" fill-opacity="1"><g transform="translate(790.188912, 340.299994)"><g><path d="M 6.875 0.25 C 4.894531 0.25 3.414062 -0.445312 2.4375 -1.84375 C 1.46875 -3.238281 0.984375 -5.351562 0.984375 -8.1875 L 0.984375 -20.03125 C 0.984375 -22.570312 1.550781 -24.492188 2.6875 -25.796875 C 3.820312 -27.097656 5.507812 -27.75 7.75 -27.75 C 9.5625 -27.75 10.96875 -27.382812 11.96875 -26.65625 C 12.96875 -25.925781 13.660156 -24.867188 14.046875 -23.484375 C 14.429688 -22.097656 14.625 -20.316406 14.625 -18.140625 L 9.25 -18.140625 L 9.25 -20.609375 C 9.25 -21.265625 9.15625 -21.773438 8.96875 -22.140625 C 8.789062 -22.503906 8.46875 -22.6875 8 -22.6875 C 6.957031 -22.6875 6.4375 -22.003906 6.4375 -20.640625 L 6.4375 -7.328125 C 6.4375 -6.492188 6.539062 -5.863281 6.75 -5.4375 C 6.96875 -5.007812 7.34375 -4.796875 7.875 -4.796875 C 8.40625 -4.796875 8.773438 -5.007812 8.984375 -5.4375 C 9.203125 -5.863281 9.3125 -6.492188 9.3125 -7.328125 L 9.3125 -11.265625 L 7.84375 -11.265625 L 7.84375 -16 L 14.5625 -16 L 14.5625 0 L 12.359375 0 L 11.421875 -2.296875 C 10.441406 -0.597656 8.925781 0.25 6.875 0.25 Z M 6.875 0.25 "/></g></g></g><g fill="#583026" fill-opacity="1"><g transform="translate(805.705085, 340.299994)"><g><path d="M 5.375 0.25 C 3.5625 0.25 2.316406 -0.347656 1.640625 -1.546875 C 0.972656 -2.753906 0.640625 -4.476562 0.640625 -6.71875 C 0.640625 -8.550781 0.878906 -9.957031 1.359375 -10.9375 C 1.835938 -11.925781 2.503906 -12.648438 3.359375 -13.109375 C 4.210938 -13.566406 5.515625 -14.070312 7.265625 -14.625 L 8.796875 -15.140625 L 8.796875 -17.53125 C 8.796875 -18.15625 8.671875 -18.628906 8.421875 -18.953125 C 8.179688 -19.285156 7.890625 -19.453125 7.546875 -19.453125 C 7.253906 -19.453125 6.992188 -19.3125 6.765625 -19.03125 C 6.546875 -18.757812 6.4375 -18.390625 6.4375 -17.921875 L 6.4375 -16.515625 L 0.984375 -16.515625 L 0.984375 -17.28125 C 0.984375 -19.582031 1.519531 -21.222656 2.59375 -22.203125 C 3.675781 -23.191406 5.4375 -23.6875 7.875 -23.6875 C 9.8125 -23.6875 11.390625 -23.175781 12.609375 -22.15625 C 13.828125 -21.144531 14.4375 -19.710938 14.4375 -17.859375 L 14.4375 0 L 8.859375 0 L 8.859375 -2.78125 C 8.585938 -1.820312 8.144531 -1.078125 7.53125 -0.546875 C 6.925781 -0.015625 6.207031 0.25 5.375 0.25 Z M 7.578125 -4.09375 C 8.003906 -4.09375 8.304688 -4.269531 8.484375 -4.625 C 8.671875 -4.976562 8.765625 -5.410156 8.765625 -5.921875 L 8.765625 -12.453125 C 7.929688 -12.128906 7.316406 -11.722656 6.921875 -11.234375 C 6.535156 -10.742188 6.34375 -10.0625 6.34375 -9.1875 L 6.34375 -6.171875 C 6.34375 -4.785156 6.753906 -4.09375 7.578125 -4.09375 Z M 7.578125 -4.09375 "/></g></g></g><g fill="#583026" fill-opacity="1"><g transform="translate(821.157286, 340.299994)"><g><path d="M 1.125 -23.421875 L 6.59375 -23.421875 L 6.59375 -20.703125 C 6.84375 -21.703125 7.273438 -22.445312 7.890625 -22.9375 C 8.515625 -23.4375 9.394531 -23.6875 10.53125 -23.6875 C 11.445312 -23.6875 12.238281 -23.476562 12.90625 -23.0625 C 13.582031 -22.644531 14.0625 -22.070312 14.34375 -21.34375 C 14.8125 -22.15625 15.332031 -22.75 15.90625 -23.125 C 16.476562 -23.5 17.273438 -23.6875 18.296875 -23.6875 C 20.140625 -23.6875 21.414062 -23.125 22.125 -22 C 22.84375 -20.875 23.203125 -19.25 23.203125 -17.125 L 23.140625 0 L 17.5 0 L 17.5 -17.21875 C 17.5 -18.726562 17.117188 -19.484375 16.359375 -19.484375 C 15.816406 -19.484375 15.425781 -19.222656 15.1875 -18.703125 C 14.957031 -18.179688 14.84375 -17.554688 14.84375 -16.828125 L 14.84375 0 L 9.25 0 L 9.25 -17.21875 C 9.25 -17.875 9.175781 -18.40625 9.03125 -18.8125 C 8.894531 -19.21875 8.601562 -19.421875 8.15625 -19.421875 C 7.582031 -19.421875 7.175781 -19.140625 6.9375 -18.578125 C 6.707031 -18.015625 6.59375 -17.335938 6.59375 -16.546875 L 6.59375 0 L 1.125 0 Z M 1.125 -23.421875 "/></g></g></g><g fill="#583026" fill-opacity="1"><g transform="translate(845.407339, 340.299994)"><g><path d="M 7.6875 0.25 C 5.269531 0.25 3.535156 -0.410156 2.484375 -1.734375 C 1.441406 -3.054688 0.921875 -5.023438 0.921875 -7.640625 L 0.921875 -17.0625 C 0.921875 -19.207031 1.539062 -20.847656 2.78125 -21.984375 C 4.019531 -23.117188 5.75 -23.6875 7.96875 -23.6875 C 12.46875 -23.6875 14.71875 -21.476562 14.71875 -17.0625 L 14.71875 -15.359375 C 14.71875 -13.648438 14.695312 -12.265625 14.65625 -11.203125 L 6.53125 -11.203125 L 6.53125 -6.65625 C 6.53125 -5.84375 6.613281 -5.207031 6.78125 -4.75 C 6.957031 -4.289062 7.320312 -4.0625 7.875 -4.0625 C 8.300781 -4.0625 8.601562 -4.1875 8.78125 -4.4375 C 8.96875 -4.695312 9.078125 -4.992188 9.109375 -5.328125 C 9.140625 -5.660156 9.15625 -6.144531 9.15625 -6.78125 L 9.15625 -9.0625 L 14.71875 -9.0625 L 14.71875 -7.71875 C 14.71875 -4.976562 14.1875 -2.960938 13.125 -1.671875 C 12.070312 -0.390625 10.257812 0.25 7.6875 0.25 Z M 9.15625 -13.984375 L 9.15625 -16.984375 C 9.15625 -18.671875 8.738281 -19.515625 7.90625 -19.515625 C 6.96875 -19.515625 6.5 -18.671875 6.5 -16.984375 L 6.5 -13.984375 Z M 9.15625 -13.984375 "/></g></g></g><g fill="#583026" fill-opacity="1"><g transform="translate(861.019505, 340.299994)"><g><path d="M 7.546875 0.25 C 2.921875 0.25 0.609375 -2.09375 0.609375 -6.78125 L 0.640625 -8.640625 L 6.234375 -8.640625 L 6.265625 -5.890625 C 6.265625 -5.335938 6.367188 -4.914062 6.578125 -4.625 C 6.796875 -4.332031 7.148438 -4.1875 7.640625 -4.1875 C 8.390625 -4.1875 8.765625 -4.796875 8.765625 -6.015625 C 8.765625 -6.910156 8.585938 -7.613281 8.234375 -8.125 C 7.890625 -8.632812 7.332031 -9.179688 6.5625 -9.765625 L 3.578125 -12.0625 C 2.554688 -12.851562 1.820312 -13.671875 1.375 -14.515625 C 0.925781 -15.359375 0.703125 -16.546875 0.703125 -18.078125 C 0.703125 -19.273438 1.015625 -20.296875 1.640625 -21.140625 C 2.273438 -21.984375 3.113281 -22.617188 4.15625 -23.046875 C 5.207031 -23.472656 6.367188 -23.6875 7.640625 -23.6875 C 12.191406 -23.6875 14.46875 -21.421875 14.46875 -16.890625 L 14.46875 -16.453125 L 8.671875 -16.453125 L 8.671875 -17.34375 C 8.671875 -17.894531 8.578125 -18.367188 8.390625 -18.765625 C 8.210938 -19.160156 7.910156 -19.359375 7.484375 -19.359375 C 7.097656 -19.359375 6.800781 -19.242188 6.59375 -19.015625 C 6.394531 -18.796875 6.296875 -18.492188 6.296875 -18.109375 C 6.296875 -17.253906 6.628906 -16.59375 7.296875 -16.125 L 10.75 -13.59375 C 11.988281 -12.675781 12.9375 -11.675781 13.59375 -10.59375 C 14.257812 -9.519531 14.59375 -8.164062 14.59375 -6.53125 C 14.59375 -4.351562 13.972656 -2.675781 12.734375 -1.5 C 11.492188 -0.332031 9.765625 0.25 7.546875 0.25 Z M 7.546875 0.25 "/></g></g></g></svg>